<svg xmlns="http://www.w3.org/2000/svg" width="40" height="40" viewBox="0 0 40 40">
  <g id="그룹_36" data-name="그룹 36" transform="translate(-664 -252)">
    <rect id="사각형_64" data-name="사각형 64" width="40" height="40" transform="translate(664 252)" fill="none"/>
    <path id="패스_179" data-name="패스 179" d="M27.676,240.861h2v-2.874H31.2a4.746,4.746,0,0,0,1.437-.212,3.362,3.362,0,0,0,1.17-.637,2.964,2.964,0,0,0,.787-1.054,3.51,3.51,0,0,0,.287-1.465v-.027a3.648,3.648,0,0,0-.241-1.349,2.986,2.986,0,0,0-.689-1.047,3.066,3.066,0,0,0-1.092-.677,4.168,4.168,0,0,0-1.463-.24h-3.72Zm2-4.75v-2.93h1.548a1.783,1.783,0,0,1,1.19.37,1.34,1.34,0,0,1,.436,1.081v.027a1.4,1.4,0,0,1-.417,1.034,1.576,1.576,0,0,1-1.17.418Zm-6.041,4.524a4.659,4.659,0,0,0,1.535-1.068,4.984,4.984,0,0,0,1.009-1.574,5.071,5.071,0,0,0,.364-1.924v-.028a5.143,5.143,0,0,0-.357-1.923,4.732,4.732,0,0,0-1-1.561,4.828,4.828,0,0,0-1.528-1.054,5.028,5.028,0,0,0-3.882,0,4.691,4.691,0,0,0-1.535,1.068,4.977,4.977,0,0,0-1.008,1.574,5.056,5.056,0,0,0-.364,1.924v.028a5.145,5.145,0,0,0,.357,1.924,4.741,4.741,0,0,0,1,1.56,4.8,4.8,0,0,0,1.528,1.054,5.018,5.018,0,0,0,3.882,0m-3.03-1.794a2.757,2.757,0,0,1-.871-.65,2.913,2.913,0,0,1-.572-.958,3.316,3.316,0,0,1-.2-1.164v-.028a3.257,3.257,0,0,1,.2-1.156,3.074,3.074,0,0,1,.559-.952,2.573,2.573,0,0,1,.859-.643,2.614,2.614,0,0,1,1.112-.232,2.548,2.548,0,0,1,1.105.239,2.758,2.758,0,0,1,.879.65,2.943,2.943,0,0,1,.572.958,3.356,3.356,0,0,1,.2,1.164v.028a3.3,3.3,0,0,1-.2,1.157,3.072,3.072,0,0,1-.559.951,2.53,2.53,0,0,1-.865.643,2.612,2.612,0,0,1-1.105.233,2.54,2.54,0,0,1-1.112-.24m-8.993,2.019h2v-7.639h2.77v-1.944H8.845v1.944h2.77Z" transform="translate(662.162 35.983)" fill="#fff"/>
  </g>
</svg>
