<svg xmlns="http://www.w3.org/2000/svg" width="40" height="40" viewBox="0 0 40 40">
  <g id="그룹_33" data-name="그룹 33" transform="translate(-664 -85)">
    <rect id="사각형_61" data-name="사각형 61" width="40" height="40" transform="translate(664 85)" fill="none"/>
    <path id="패스_174" data-name="패스 174" d="M34.212,21.535,23.387,10.71a2.135,2.135,0,0,0-2.976,0L9.585,21.535a1.528,1.528,0,0,0-.446,1.08,1.55,1.55,0,0,0,1.55,1.582h1.423v8.3a1.611,1.611,0,0,0,1.611,1.608H30.075a1.611,1.611,0,0,0,1.61-1.608V24.2h1.423a1.549,1.549,0,0,0,1.55-1.582,1.527,1.527,0,0,0-.445-1.08M24.128,26.429H19.669a1.611,1.611,0,0,0-1.61,1.609v4.337H13.845V23.331a.867.867,0,0,0-.866-.866H11.105l10.53-10.53a.352.352,0,0,1,.526,0l10.53,10.53H30.819a.867.867,0,0,0-.867.866v9.045H25.739V28.038a1.612,1.612,0,0,0-1.611-1.609m-.122,5.947H19.792V28.161h4.214Z" transform="translate(662.101 82.9)" fill="#fff"/>
  </g>
</svg>
