<svg xmlns="http://www.w3.org/2000/svg" width="40" height="40" viewBox="0 0 40 40">
  <g id="그룹_35" data-name="그룹 35" transform="translate(-664 -197)">
    <rect id="사각형_63" data-name="사각형 63" width="40" height="40" transform="translate(664 197)" fill="none"/>
    <g id="그룹_32" data-name="그룹 32">
      <path id="패스_176" data-name="패스 176" d="M34.2,153.905a5.459,5.459,0,0,0-7.709,0l-3.756,3.755a.958.958,0,1,0,1.355,1.354l3.756-3.755a3.536,3.536,0,0,1,5,5l-4.91,4.91a3.541,3.541,0,0,1-5,0,.981.981,0,0,0-1.354,0,.958.958,0,0,0,0,1.353,5.458,5.458,0,0,0,7.711,0l4.91-4.91a5.463,5.463,0,0,0,0-7.709" transform="translate(659.574 53.355)" fill="#fff"/>
      <path id="패스_177" data-name="패스 177" d="M22.02,170.82,18.843,174a3.536,3.536,0,0,1-5-5l4.621-4.622a3.549,3.549,0,0,1,5,0,.954.954,0,0,0,.677.28h0a.957.957,0,0,0,.676-1.634,5.457,5.457,0,0,0-7.708,0l-4.622,4.623a5.45,5.45,0,0,0,7.708,7.708l3.178-3.178a.957.957,0,0,0,0-1.354.98.98,0,0,0-1.354,0" transform="translate(661.736 51.461)" fill="#fff"/>
    </g>
  </g>
</svg>
