<svg xmlns="http://www.w3.org/2000/svg" width="36" height="36" viewBox="0 0 36 36">
  <g id="icon-kakao" transform="translate(-726 -249)">
    <rect id="사각형_57" data-name="사각형 57" width="36" height="36" transform="translate(726 249)" fill="none" opacity="0.377"/>
    <path id="패스_168" data-name="패스 168" d="M383.2,13.64c-6.018,0-10.9,4.512-10.9,10.079,0,4.111,1.722,6.074,4.081,7.862l.01.005v4.824a.278.278,0,0,0,.444.222l4.131-3.069.089.039a11.837,11.837,0,0,0,2.142.194c6.019,0,10.9-4.512,10.9-10.078S389.222,13.64,383.2,13.64m-3.652,12.632a2.277,2.277,0,0,0,2.257-1.626h1.579a3.78,3.78,0,0,1-3.836,3.147,4.086,4.086,0,1,1,0-8.171,3.784,3.784,0,0,1,3.847,3.205h-1.575a2.245,2.245,0,0,0-2.272-1.706,2.467,2.467,0,0,0-2.565,2.586,2.529,2.529,0,0,0,2.565,2.565m10.409,1.364h-1.447V24.37a1.04,1.04,0,0,0-1.111-1.157c-.753,0-1.235.46-1.235,1.392v3.031h-1.448V19.648h1.448v3a1.858,1.858,0,0,1,1.672-.784,1.987,1.987,0,0,1,1.515.616,2.332,2.332,0,0,1,.606,1.706Z" transform="translate(360.797 242.787)" fill="#fff"/>
  </g>
</svg>
