<svg xmlns="http://www.w3.org/2000/svg" width="36" height="36" viewBox="0 0 36 36">
  <g id="icon-youtube" transform="translate(-677 -249)">
    <rect id="사각형_56" data-name="사각형 56" width="36" height="36" transform="translate(677 249)" fill="none" opacity="0.377"/>
    <path id="패스_166" data-name="패스 166" d="M304.014,19.808a3.107,3.107,0,0,0-2.2-2.194c-1.936-.519-9.7-.519-9.7-.519s-7.766,0-9.7.519a3.109,3.109,0,0,0-2.2,2.194,32.385,32.385,0,0,0-.518,5.977,32.381,32.381,0,0,0,.518,5.978,3.111,3.111,0,0,0,2.2,2.2c1.936.519,9.7.519,9.7.519s7.765,0,9.7-.519a3.108,3.108,0,0,0,2.2-2.2,32.284,32.284,0,0,0,.519-5.978,32.289,32.289,0,0,0-.519-5.977m-14.381,9.7V22.06l6.452,3.726Z" transform="translate(402.883 241.214)" fill="#fff"/>
  </g>
</svg>
