<svg xmlns="http://www.w3.org/2000/svg" xmlns:xlink="http://www.w3.org/1999/xlink" width="36" height="36" viewBox="0 0 36 36">
  <defs>
    <clipPath id="clip-path">
      <rect id="사각형_120" data-name="사각형 120" width="36" height="36" transform="translate(922 279)" fill="none" opacity="0.363"/>
    </clipPath>
  </defs>
  <g id="icon-kead" transform="translate(-922 -279)" clip-path="url(#clip-path)">
    <path id="패스_91" data-name="패스 91" d="M285.427,14.26v3c0-.661.737-1.273,1.983-1.77,0,0,.161-.064.224-.087a2.016,2.016,0,0,0,1.392-2.035v-1.39c-2.2.555-3.6,1.372-3.6,2.284" transform="translate(643.658 277.494)" fill="#fff"/>
    <path id="패스_92" data-name="패스 92" d="M300.511,1.859A1.859,1.859,0,1,1,298.652,0a1.859,1.859,0,0,1,1.858,1.859" transform="translate(637.116 284.387)" fill="#fff"/>
    <path id="패스_93" data-name="패스 93" d="M302.474,10.228c-.98,0-2.263.039-3.159.14a2.615,2.615,0,0,0-2.437,2.759V23.12c0,.6.816,1.09,1.824,1.09s1.822-.488,1.822-1.09V13.881a.651.651,0,0,1,.61-.626c.44-.017.885-.028,1.34-.028,5.776,0,10.459,1.355,10.459,3.026v-3c0-1.67-4.683-3.026-10.459-3.026" transform="translate(637.067 278.5)" fill="#fff"/>
    <path id="패스_94" data-name="패스 94" d="M324.222,19.834V21.2a1.336,1.336,0,0,0,1.848,1.151c1.62-.533,2.6-1.232,2.6-2v-3c0,1.025-1.76,1.929-4.45,2.477" transform="translate(621.328 274.397)" fill="#fff"/>
    <path id="패스_95" data-name="패스 95" d="M316.295,15.674a1.86,1.86,0,1,1-1.86-1.861,1.859,1.859,0,0,1,1.86,1.861" transform="translate(628.032 276.436)" fill="#fff"/>
    <path id="패스_96" data-name="패스 96" d="M297.843,20.331s-1.287.053-1.96.053c-5.775,0-10.456-1.356-10.456-3.027v3c0,1.671,4.681,3.027,10.456,3.027.161,0,.473,0,.473,0a.629.629,0,0,1,.629.63V34.126c0,.6.817,1.091,1.823,1.091s1.824-.489,1.824-1.091V23.12a2.714,2.714,0,0,0-2.789-2.789" transform="translate(643.658 274.397)" fill="#fff"/>
  </g>
</svg>
