<svg xmlns="http://www.w3.org/2000/svg" width="40" height="40" viewBox="0 0 40 40">
  <g id="그룹_34" data-name="그룹 34" transform="translate(-664 -141)">
    <rect id="사각형_62" data-name="사각형 62" width="40" height="40" transform="translate(664 141)" fill="none"/>
    <path id="패스_170" data-name="패스 170" d="M32.306,87.305H30.2v-3.1a1.86,1.86,0,0,0-1.858-1.857H15.456A1.86,1.86,0,0,0,13.6,84.207v3.1H11.492A2.356,2.356,0,0,0,9.14,89.658v7.929a2.355,2.355,0,0,0,2.352,2.352H13.6v2.107a1.859,1.859,0,0,0,1.857,1.857H28.341a1.859,1.859,0,0,0,1.858-1.857V99.939h2.107a2.355,2.355,0,0,0,2.352-2.352V89.658a2.355,2.355,0,0,0-2.352-2.353m-16.974,0v-3.1a.125.125,0,0,1,.124-.125H28.341a.125.125,0,0,1,.125.125v3.1Zm13.505,6.938H14.961A1.364,1.364,0,0,0,13.6,95.6v2.6H11.492a.621.621,0,0,1-.62-.62V89.658a.621.621,0,0,1,.62-.621H32.306a.622.622,0,0,1,.62.621v7.929a.621.621,0,0,1-.62.62H30.2V95.6a1.364,1.364,0,0,0-1.362-1.362m-.371,1.732v6.072a.125.125,0,0,1-.125.125H15.456a.125.125,0,0,1-.124-.125V95.975Z" transform="translate(662.101 67.891)" fill="#fff"/>
    <path id="패스_171" data-name="패스 171" d="M19.389,102.846h8.92a.866.866,0,0,0,0-1.732h-8.92a.866.866,0,0,0,0,1.732" transform="translate(660.152 63.992)" fill="#fff"/>
    <path id="패스_172" data-name="패스 172" d="M19.389,105.348h6.442a.866.866,0,1,0,0-1.732H19.389a.866.866,0,0,0,0,1.732" transform="translate(660.152 63.472)" fill="#fff"/>
  </g>
</svg>
