<svg xmlns="http://www.w3.org/2000/svg" width="36" height="36" viewBox="0 0 36 36">
  <g id="icon-instagram" transform="translate(-530 -249)">
    <path id="패스_160" data-name="패스 160" d="M27.706,24.228a3.488,3.488,0,1,1-3.483-3.5,3.48,3.48,0,0,1,3.483,3.5m1.959.141a5.439,5.439,0,1,0-5.524,5.295,5.406,5.406,0,0,0,5.524-5.295m3.188,2.708c0,.616-.032,1.233-.085,1.846a4.9,4.9,0,0,1-.46,1.8,3.4,3.4,0,0,1-1.4,1.476,4.358,4.358,0,0,1-1.814.538l-1.322.105c0,.008,0,.014,0,.021-2.071,0-4.14.007-6.209,0-.671,0-1.345-.033-2.015-.084a4.7,4.7,0,0,1-1.834-.474A3.441,3.441,0,0,1,16.1,30.6a4.93,4.93,0,0,1-.412-1.872q-.049-2.253-.083-4.506c-.011-.76-.013-1.521,0-2.28.014-.818.023-1.639.089-2.454a4.351,4.351,0,0,1,.729-2.214,3.6,3.6,0,0,1,2.286-1.453,9.02,9.02,0,0,1,1.892-.172c2.293-.006,4.584-.046,6.879-.029a9.665,9.665,0,0,1,2.441.239,3.729,3.729,0,0,1,1.723.951,3.787,3.787,0,0,1,1.006,1.982,10.921,10.921,0,0,1,.165,2.081c.011,2.07.034,4.14.036,6.209m1.93.882V20.506a1.756,1.756,0,0,1-.042-.25,8.189,8.189,0,0,0-.461-2.849,5.542,5.542,0,0,0-.947-1.644,5.239,5.239,0,0,0-1.645-1.318,5.512,5.512,0,0,0-1.883-.591c-.471-.056-.944-.1-1.417-.125-.7-.029-1.4-.032-2.1-.046a.487.487,0,0,1-.126-.044H22.3a1.006,1.006,0,0,1-.189.044c-.259,0-.516-.008-.774,0-.734.023-1.471.017-2.2.09a6.016,6.016,0,0,0-3.184,1.181A5.268,5.268,0,0,0,14.2,17.328a6.765,6.765,0,0,0-.436,2.078c-.011.256-.027.511-.044.766a1,1,0,0,1-.042.168v7.746a.846.846,0,0,1,.042.188,7.745,7.745,0,0,0,.553,3.036,5.14,5.14,0,0,0,.885,1.426,5.44,5.44,0,0,0,1.79,1.359,5.636,5.636,0,0,0,1.781.519c.59.06,1.184.087,1.775.13a.535.535,0,0,1,.126.042h7.2a1.441,1.441,0,0,1,.253-.042,8.637,8.637,0,0,0,2.86-.42A5.509,5.509,0,0,0,34.56,30.1a8.226,8.226,0,0,0,.134-1.123c.027-.31.03-.623.047-.934,0-.029.026-.056.04-.083" transform="translate(523.77 242.788)" fill="#fff"/>
    <rect id="사각형_53" data-name="사각형 53" width="36" height="36" transform="translate(530 249)" fill="red" opacity="0"/>
  </g>
</svg>
