<?xml version="1.0" encoding="utf-8"?>
<!-- Generator: Adobe Illustrator 27.1.0, SVG Export Plug-In . SVG Version: 6.00 Build 0)  -->
<svg version="1.1" id="Layer_1" xmlns="http://www.w3.org/2000/svg" xmlns:xlink="http://www.w3.org/1999/xlink" x="0px" y="0px"
	 viewBox="0 0 36 36" style="enable-background:new 0 0 36 36;" xml:space="preserve">
<style type="text/css">
	.st0{fill:none;}
	.st1{fill:#FFFFFF;}
</style>
<g>
	<rect class="st0" width="36" height="36"/>
	<path class="st1" d="M23.8,15.7v1.2c0,0.9,0.9,1.7,2.1,1.3c1.6-0.5,2.5-1.2,2.5-2v-2.9c0,0,0,0,0,0C28.2,14.3,26.4,15.2,23.8,15.7z
		"/>
	<path class="st1" d="M8.6,14.4c1.1-0.5,1.8-1.1,1.8-2.4v-1.3c-1,0.2-1.8,0.5-2.4,0.8c-0.7,0.4-1,0.8-1,1.3C7,13.4,7.6,14,8.6,14.4z
		"/>
	<path class="st1" d="M13.6,9.3c1.1,0,1.9-0.9,1.9-1.9c0-1.1-0.9-1.9-1.9-1.9c-1.1,0-1.9,0.9-1.9,1.9C11.7,8.4,12.6,9.3,13.6,9.3z"
		/>
	<path class="st1" d="M11.7,23.4c0,0.6,0.8,1.1,1.9,1.1c1,0,1.9-0.5,1.9-1.1v-3.6c-1.4-0.1-2.7-0.2-3.8-0.4V23.4z"/>
	<path class="st1" d="M18.1,19.4c0.4,0,0.7,0.3,0.7,0.7v9.4c0,0.6,0.9,1.1,1.9,1.1c1,0,1.9-0.5,1.9-1.1V19.1c0-1.6-1.3-3-2.9-2.9
		c0,0-1.3,0.1-2,0.1c-5.8,0-10.6-1.3-10.9-3c0,0,0,0,0,0v3c0,1.7,4.9,3.2,10.9,3.2C17.7,19.4,18.1,19.4,18.1,19.4z"/>
	<path class="st1" d="M11.7,13v2.4c1.1,0.2,2.4,0.4,3.8,0.4v-2c0-0.4,0.3-0.6,0.6-0.7c0.5,0,0.9,0,1.4,0c0.3,0,0.5,0,0.8,0
		c0.2-1.1,1.1-1.9,2.3-1.9c1.3,0,2.3,1,2.3,2.3c0,0,0,0,0,0c1.4,0.2,2.6,0.6,3.6,0.9c1-0.5,1.6-1,1.6-1.6c0-0.5-0.4-0.9-1.1-1.3
		c-1.9-1-5.4-1.6-9.5-1.6c-1,0-2.4,0-3.3,0.1C12.7,10.3,11.7,11.4,11.7,13z"/>
	<path class="st1" d="M20.6,11.5c-1.1,0-1.9,0.9-1.9,1.9c0,1.1,0.9,1.9,1.9,1.9c1.1,0,1.9-0.9,1.9-1.9
		C22.5,12.4,21.7,11.5,20.6,11.5z"/>
</g>
</svg>
