<svg xmlns="http://www.w3.org/2000/svg" width="36" height="36" viewBox="0 0 36 36">
  <g id="icon-blog" transform="translate(-824 -249)">
    <rect id="사각형_59" data-name="사각형 59" width="36" height="36" transform="translate(824 249)" fill="none" opacity="0.377"/>
    <g id="그룹_30" data-name="그룹 30" transform="translate(0.566)">
      <path id="패스_151" data-name="패스 151" d="M573.794,29.909a.955.955,0,1,0,.955.956.954.954,0,0,0-.955-.956" transform="translate(269.08 235.377)" fill="#fff"/>
      <path id="패스_152" data-name="패스 152" d="M570.095,15.114H553.47a3.845,3.845,0,0,0-3.837,3.853v9.139a3.843,3.843,0,0,0,3.837,3.851H559.2l1.954,3.181a.592.592,0,0,0,.063.091.655.655,0,0,0,1.135,0,.4.4,0,0,0,.066-.1l1.953-3.181h5.728a3.847,3.847,0,0,0,3.84-3.851V18.967a3.849,3.849,0,0,0-3.84-3.853M555.03,26.391a1.428,1.428,0,0,1-1.251-.642v.485h-1.5v-6.2h1.485V22.4a1.976,1.976,0,0,1,1.267-.589c2.018,0,2.1,2.264,2.1,2.264a2.2,2.2,0,0,1-2.1,2.317m4.686-4.164v4.007h-1.434V22.568c0-1.266-.677-1.235-.677-1.235V19.9c2.174,0,2.112,2.332,2.112,2.332m6.021,1.9c0,2.263-2.515,2.266-2.515,2.266a2.224,2.224,0,0,1-2.46-2.266c0-2.293,2.46-2.293,2.46-2.293a2.257,2.257,0,0,1,2.515,2.293m5.551,2.054a2.159,2.159,0,0,1-2.174,2.322h-.579V27.184h.36c1.053,0,.947-1.087.947-1.087v-.347a1.711,1.711,0,0,1-1.307.568c-2.069,0-2.046-2.209-2.046-2.209a2.049,2.049,0,0,1,2.1-2.277,1.627,1.627,0,0,1,1.249.567v-.423h1.446Z" transform="translate(279.65 242.116)" fill="#fff"/>
      <path id="패스_153" data-name="패스 153" d="M584.316,29.909a.955.955,0,1,0,.954.956.955.955,0,0,0-.954-.956" transform="translate(264.288 235.377)" fill="#fff"/>
      <path id="패스_154" data-name="패스 154" d="M558.144,29.909a.955.955,0,1,0,.956.956.954.954,0,0,0-.956-.956" transform="translate(276.208 235.377)" fill="#fff"/>
    </g>
  </g>
</svg>
