<?xml version="1.0" encoding="UTF-8"?><svg id="Layer_1" xmlns="http://www.w3.org/2000/svg" viewBox="0 0 200 38"><rect width="200" height="38" style="fill:none;"/><g><g><path d="m10.55,13.87c1.47,3.39,4.74,6.12,7.36,7.2l2.44-3.77c-3.73-1.31-7.14-4.73-7.5-9.85h6.46v-3.92H1.4v3.92h6.78c-.25,5.16-3.45,9.04-8.18,10.89l2.66,3.73c3.27-1.23,6.86-4.62,7.9-8.2" style="fill:#1d1d1b;"/><path d="m16.12,33.61c-4.63,0-7.32-1.31-7.32-3.5s2.69-3.5,7.32-3.5,7.4,1.27,7.4,3.5-2.66,3.5-7.4,3.5m0-10.85c-7.5,0-11.84,2.81-11.84,7.35s4.34,7.31,11.84,7.31,11.88-2.81,11.88-7.31-4.34-7.35-11.88-7.35" style="fill:#1d1d1b;"/></g><polygon points="27.53 .97 23.04 .97 23.04 22.3 27.53 22.3 27.53 13.64 32.38 13.64 32.38 9.71 27.53 9.71 27.53 .97" style="fill:#1d1d1b;"/><path d="m41.67,25.64c-2.23,0-3.16-3.96-3.16-8.85s.93-8.89,3.16-8.89,3.23,4,3.23,8.89-.93,8.85-3.23,8.85m-.04-21.9c-5.24,0-7.36,6.35-7.36,13.01s2.12,13.12,7.36,13.12,7.43-6.43,7.43-13.09-2.12-13.05-7.43-13.05" style="fill:#1d1d1b;"/><polygon points="58.69 15.1 55.85 15.1 55.85 1.63 51.65 1.63 51.65 35.77 55.85 35.77 55.85 18.95 58.69 18.95 58.69 37.46 62.92 37.46 62.92 .97 58.69 .97 58.69 15.1" style="fill:#1d1d1b;"/><path d="m72.62,12.71c0-2.81,1.76-4.93,4.63-4.93s4.67,2.12,4.67,4.93-1.72,5-4.67,5-4.63-2.12-4.63-5m13.85,0c0-5.2-3.63-9.01-9.22-9.01s-9.19,3.81-9.19,9.01,3.63,8.97,9.19,8.97,9.22-3.73,9.22-8.97" style="fill:#1d1d1b;"/><rect x="90.63" y=".97" width="4.45" height="26.48" style="fill:#1d1d1b;"/><g><path d="m110.45,26.11v-10.05h-4.27v10.28c-2.3.04-4.52.04-6.96.04l.57,3.89c2.62,0,5.42-.08,8.9-.27,3.98-.23,8.97-.62,12.17-1.08l-.36-3.66c-2.69.38-5.89.62-10.05.85" style="fill:#1d1d1b;"/><path d="m113.86,20.41l4.27.46c.83-3.85,1.15-8.85,1.15-15.93h-17.95v3.85h13.42c0,3.77-.25,8.39-.9,11.62" style="fill:#1d1d1b;"/></g><polygon points="126.92 .97 122.51 .97 122.51 37.46 126.92 37.46 126.92 19.87 131.41 19.87 131.41 15.95 126.92 15.95 126.92 .97" style="fill:#1d1d1b;"/><g><path d="m92.99,30.42h-2.65c-.49,1.12-1.26,2-2.35,2.66-1.29.73-2.91,1.12-4.87,1.12-1.06,0-2-.12-2.83-.27-.83-.19-1.55-.5-2.08-.92-.6-.46-1.02-1.04-1.32-1.73-.3-.77-.45-2.41-.45-3.52v-2.54c0-.26-.04-.49-.11-.7h-4.54v3.35c0,1.77.26,3.98.83,5.22.53,1.19,1.32,2.16,2.34,2.93.98.69,2.19,1.23,3.59,1.54,1.36.31,2.91.46,4.57.46,2.95,0,5.48-.58,7.52-1.69,2-1.15,3.44-2.96,4.35-5.35.07-.21.1-.39.1-.54h-2.09Z" style="fill:#1d1d1b;"/><path d="m144.29,10.64c0-2.46,2.12-4.5,4.63-4.5,2.83,0,4.52,2,4.52,4.5,0,2.27-1.76,4.23-4.52,4.23s-4.63-1.77-4.63-4.23m13.6.04c0-4.93-3.8-8.47-8.97-8.47s-9.04,3.62-9.04,8.47,3.98,8.16,9.04,8.16,8.97-3.27,8.97-8.16" style="fill:#1d1d1b;"/></g><rect x="162.53" y=".97" width="4.45" height="18.28" style="fill:#1d1d1b;"/><path d="m177.64,25.41v-7.47h9.76v-3.81h-9.76v-6.2h11.2v-3.81h-15.61v25.13l3.27.04c5.42.08,11.31-.35,14.79-1.19l-.47-3.66c-3.88,1-9.15,1.04-13.17.96" style="fill:#1d1d1b;"/><polygon points="195.55 .97 195.55 14.02 189.88 14.02 189.88 18.1 195.55 18.1 195.55 37.46 200 37.46 200 .97 195.55 .97" style="fill:#1d1d1b;"/><path d="m167.73,32.45c-.15-.22-.37-.3-.66-.3h-4.06c-.58.63-1.5,1.15-2.78,1.56-1.32.37-2.89.6-4.64.6-2.08,0-3.69-.3-4.86-.86-1.21-.6-1.79-1.45-1.79-2.53v-.26h13.69c1.35,0,2.38-.22,3.11-.59.66-.41,1.02-1.27,1.02-2.61v-4.17c0-.97-.18-1.68-.51-2.09-.37-.37-.95-.56-1.79-.56h-20.01v2.05c0,.67.15,1.08.47,1.3.29.22.73.33,1.39.33h16.69v1.71c0,.41-.11.67-.29.74-.22.15-.51.19-.91.19h-16.21c-.44,0-.73.11-.88.3-.18.22-.25.52-.25.86v2.53c0,1.27.25,2.35.84,3.32.55.89,1.32,1.68,2.34,2.27.95.6,2.12,1.04,3.51,1.34,1.35.26,2.85.41,4.46.41,1.24,0,2.45-.11,3.66-.3,1.17-.22,2.3-.52,3.36-.89,1.02-.41,1.94-.89,2.81-1.49.84-.63,1.57-1.34,2.16-2.16.18-.3.22-.52.15-.71" style="fill:#1d1d1b;"/></g></svg>