<?xml version="1.0" encoding="utf-8"?>
<!-- Generator: Adobe Illustrator 27.1.0, SVG Export Plug-In . SVG Version: 6.00 Build 0)  -->
<svg version="1.1" id="Layer_1" xmlns="http://www.w3.org/2000/svg" xmlns:xlink="http://www.w3.org/1999/xlink" x="0px" y="0px"
	 viewBox="0 0 228 40" style="enable-background:new 0 0 228 40;" xml:space="preserve">
<style type="text/css">
	.st0{fill:none;}
	.st1{fill:#FFFFFF;}
</style>
<g transform="translate(-1050 -212)">
	<line class="st0" x1="1050" y1="252" x2="1050" y2="212"/>
	<path class="st1" d="M1130.4,233.3h-1.5v-5.9h-2.8v19.4c0,0.8,0.6,1.4,1.4,1.4c0.8,0,1.4-0.6,1.4-1.4v-11.3h1.5v11.3
		c0,0.8,0.6,1.4,1.4,1.4c0.8,0,1.4-0.6,1.4-1.4v-19.4h-2.8L1130.4,233.3z"/>
	<path class="st1" d="M1168.5,240.1c0,0.9,0.6,1.6,1.5,1.6s1.6-0.6,1.6-1.5c0,0,0-0.1,0-0.1v-9.7c0-1-0.8-1.9-1.9-1.9h-12.5v2.2
		h11.3V240.1z"/>
	<path class="st1" d="M1067.6,245.8h-10.1v-4.7h-3.1v5c0,1,0.8,1.9,1.9,1.9c0,0,0,0,0,0h11.3c0.6,0,1.1-0.5,1.1-1.1
		C1068.7,246.3,1068.2,245.8,1067.6,245.8"/>
	<path class="st1" d="M1069.9,232.9h-1.9v-5.5h-3.1v13.3c0,0.9,0.6,1.6,1.5,1.6c0.9,0,1.6-0.6,1.6-1.5c0,0,0-0.1,0-0.1v-5.6h1.9
		c0.6,0,1.1-0.5,1.1-1.1C1071,233.4,1070.5,232.9,1069.9,232.9"/>
	<path class="st1" d="M1112.8,231.2h-1.9v-3.9h-3.1v9.6c0,0.9,0.6,1.6,1.5,1.6c0.9,0,1.6-0.6,1.6-1.5c0,0,0-0.1,0-0.1v-3.5h1.9
		c0.6,0,1.1-0.5,1.1-1.1S1113.4,231.2,1112.8,231.2"/>
	<path class="st1" d="M1062.1,234.7c0-0.6-0.2-1.2-0.6-1.7c-0.6-0.6-1.5-0.7-2.1-0.2c-0.4,0.4-0.5,1.1-0.3,1.6
		c0.3,1.3-0.6,2.7-1.9,2.9c-0.1,0-0.3,0-0.4,0.1c-1.4-0.1-2.5-1.3-2.4-2.8c-0.1-1.4,1-2.6,2.4-2.7c0.1,0,0.1,0,0.2,0h5.7
		c0.6,0,1.1-0.5,1.1-1.1c0-0.6-0.5-1.1-1.1-1.1l0,0h-4.3v-2.7h-3.2v2.7h-5.2v2.2h2.4c-0.6,0.8-1,1.7-1,2.7c0,2.6,2.4,4.7,5.4,4.7
		C1059.9,239.4,1062.1,237.3,1062.1,234.7"/>
	<path class="st1" d="M1152.2,245.8h-9.9v-5.1h-3.1v5.4c0,1,0.8,1.9,1.9,1.9c0,0,0,0,0,0h11.1c0.6,0,1.1-0.5,1.1-1.1
		C1153.3,246.3,1152.8,245.8,1152.2,245.8"/>
	<path class="st1" d="M1173.2,243h-8.5v-7.3h-3.1v7.3h-6.7v2.2h18.3c0.6,0,1.1-0.5,1.1-1.1C1174.3,243.5,1173.8,243,1173.2,243
		C1173.2,243,1173.2,243,1173.2,243"/>
	<path class="st1" d="M1213.8,236.2h-2.5c0.7-1.2,1-2.5,0.9-3.9v-2.6c0-1-0.8-1.9-1.9-1.9h-13v2.2h11.8v3.1c0.1,1-0.1,2.1-0.6,3
		h-3.2v-3.9h-3.1v3.9h-7.6v2.2h5.5c-1.5,0.9-2.4,2.5-2.5,4.2c0,1.6,0.8,3.1,2.1,4c3,2.2,7,2.2,10,0c1.3-0.9,2.1-2.4,2.1-4
		c0-1.2-0.5-2.4-1.5-3.1c-0.7-0.6-1.6-0.6-2.3,0c-0.5,0.5-0.5,1.4,0,1.9c0,0,0,0,0,0c0.8,0.7,0.9,2.3-0.6,3.6c-0.8,0.6-1.7,1-2.7,1
		c-1,0-2-0.3-2.7-1c-0.7-0.6-1.2-1.5-1.2-2.4c0-2.8,3.1-4.2,4.7-4.2h8.2c0.6,0,1.1-0.5,1.1-1.1
		C1214.9,236.7,1214.4,236.2,1213.8,236.2"/>
	<path class="st1" d="M1234.4,232.8h-1.9v-5.4h-3.1v8.3c-1,0.4-2.1,0.6-3.2,0.6h-7V230h6.5c0.6,0,1.1-0.5,1.1-1.1
		c0-0.6-0.5-1.1-1.1-1.1h-9.6v8.7c0,1,0.8,1.9,1.9,1.9l0,0h8c1.2,0,2.3-0.2,3.4-0.6v3c0,0.9,0.6,1.6,1.5,1.6c0.9,0,1.6-0.6,1.6-1.5
		c0-0.1,0-0.1,0-0.2V235h1.9c0.6,0,1.1-0.5,1.1-1.1C1235.5,233.3,1235,232.8,1234.4,232.8L1234.4,232.8"/>
	<path class="st1" d="M1231.8,245.8h-9.8v-5.3h-3.1v5.7c0,1,0.8,1.9,1.9,1.9c0,0,0,0,0,0h11c0.6,0,1.1-0.5,1.1-1.1
		C1233,246.3,1232.5,245.8,1231.8,245.8C1231.9,245.8,1231.8,245.8,1231.8,245.8"/>
	<path class="st1" d="M1151.3,242.3c0.9,0,1.6-0.7,1.6-1.6c0,0,0,0,0,0v-13.4h-3.1v13.4C1149.8,241.6,1150.5,242.3,1151.3,242.3
		C1151.3,242.3,1151.3,242.3,1151.3,242.3"/>
	<path class="st1" d="M1099.7,234.5c1,1.3,2.3,2.2,3.8,2.8c1.3,0.6,2.4,0.6,2.9-0.1c0.3-0.5,0.1-1.1-0.5-1.4c0,0,0,0-0.1,0
		c-1.1-0.4-2.1-1-2.9-1.7c-0.9-1.1-1.5-2.5-1.6-4h3.1c0.6,0,1.1-0.5,1.1-1.1c0-0.6-0.5-1.1-1.1-1.1H1094v2.2h4
		c-0.1,1.5-0.6,2.9-1.6,4c-1.1,1-2.5,1.7-3.9,2l1.4,1.8C1096.2,237.4,1098.2,236.2,1099.7,234.5"/>
	<path class="st1" d="M1090.8,234.9h-2.8c0.7-1,1-2.2,0.9-3.4v-1.8c0-1-0.8-1.9-1.9-1.9h-12.9v2.2h11.7v2.6c0.1,0.8-0.2,1.7-0.7,2.3
		h-13.7v2.2h8.6v2.8h-5.9v2.2h11.5v4.5c0,0.9,0.7,1.5,1.6,1.5c0.8,0,1.5-0.7,1.5-1.5v-4.8c0-1-0.8-1.9-1.9-1.9c0,0,0,0,0,0h-3.7
		v-2.8h7.7c0.6,0,1.1-0.5,1.1-1.1C1091.9,235.4,1091.4,234.9,1090.8,234.9"/>
	<path class="st1" d="M1104.4,238.4c-3.4,0-6.2,2.3-6.2,5.1s2.8,5.1,6.2,5.1s6.2-2.3,6.2-5.1S1107.9,238.4,1104.4,238.4
		 M1104.4,246.4c-1.6-0.1-2.9-1.4-2.8-3.1c0.1-1.6,1.4-2.9,3.1-2.8c1.6,0.1,2.8,1.4,2.8,2.9C1107.5,245.1,1106.1,246.5,1104.4,246.4
		"/>
	<path class="st1" d="M1193.2,236.9h-3.7v-3.2c0.7-0.7,1.2-1.7,1.2-2.7c0-2.6-3-4.7-6.6-4.7s-6.6,2.1-6.6,4.7c0,1.1,0.5,2.1,1.3,2.8
		v3.1h-4.7v2.2h5.6c-1.3,0.8-2.2,2.2-2.3,3.8c0,1.5,0.8,2.9,2,3.8c2.9,2.1,6.8,2.1,9.7,0c1.2-0.8,2-2.2,2-3.8c-0.1-1-0.5-2-1.3-2.6
		c-0.6-0.7-1.6-0.7-2.3-0.2c-0.4,0.4-0.6,1,0.1,2c0.5,1,0.2,2.3-0.7,3c-0.7,0.6-1.6,0.9-2.5,0.9c-0.9,0-1.8-0.3-2.5-0.9
		c-0.7-0.5-1.1-1.3-1.1-2.2c0-2.2,2.4-3.7,4.7-3.7h8c0.6,0,1.1-0.5,1.1-1.1C1194.3,237.4,1193.8,236.9,1193.2,236.9 M1184.1,228.5
		c1.9,0,3.5,1.2,3.5,2.6c0,1.4-1.5,2.6-3.5,2.6c-1.9,0-3.5-1.2-3.5-2.6C1180.7,229.7,1182.2,228.5,1184.1,228.5 M1181.8,236.9v-1.4
		c1.5,0.4,3.1,0.4,4.7,0v1.5H1181.8z"/>
	<path class="st1" d="M1119.7,227.7c-3.1,0-5.5,2.5-5.6,5.5c0,3.1,2.5,5.5,5.5,5.6c3.1,0,5.5-2.5,5.6-5.5c0,0,0,0,0,0
		C1125.2,230.2,1122.7,227.7,1119.7,227.7C1119.7,227.7,1119.7,227.7,1119.7,227.7 M1119.7,236.4c-1.3,0-2.4-1.4-2.4-3.2
		s1.1-3.2,2.4-3.2c1.3,0,2.4,1.4,2.4,3.2S1121,236.4,1119.7,236.4"/>
	<path class="st1" d="M1147,233.2c-0.2-3.2-2.9-5.7-6.2-5.5c-3,0.2-5.4,2.6-5.5,5.5c0.2,3.2,2.9,5.7,6.1,5.6
		C1144.4,238.6,1146.9,236.2,1147,233.2 M1138.3,233.2c-0.3-1.5,0.8-3,2.3-3.3c1.5-0.3,3,0.8,3.3,2.3c0.1,0.3,0.1,0.6,0,1
		c0.3,1.5-0.8,3-2.3,3.3c-1.5,0.3-3-0.8-3.3-2.3C1138.3,233.9,1138.3,233.5,1138.3,233.2"/>
	<path class="st1" d="M1267.8,228.3v1.9c0,1.4,1.4,2.7,3.4,2.1c2.5-0.9,4-2,4-3.2v-4.6c0,0,0,0,0,0
		C1274.7,226.1,1271.9,227.5,1267.8,228.3z"/>
	<path class="st1" d="M1243.6,226.3c1.8-0.8,2.9-1.8,2.9-3.9v-2c-1.5,0.4-2.8,0.8-3.8,1.3c-1,0.6-1.6,1.3-1.6,2
		C1241,224.7,1242,225.6,1243.6,226.3z"/>
	<path class="st1" d="M1251.5,218.2c1.7,0,3.1-1.4,3.1-3.1c0-1.7-1.4-3.1-3.1-3.1c-1.7,0-3.1,1.4-3.1,3.1
		C1248.5,216.8,1249.8,218.2,1251.5,218.2z"/>
	<path class="st1" d="M1248.5,240.6c0,1,1.4,1.8,3,1.8s3-0.8,3-1.8v-5.8c-2.2-0.1-4.2-0.4-6-0.7V240.6z"/>
	<path class="st1" d="M1258.6,234.2c0.6,0,1,0.5,1,1v14.9c0,1,1.4,1.8,3,1.8c1.7,0,3-0.8,3-1.8v-16.4c0-2.6-2.1-4.8-4.6-4.6
		c0,0-2.1,0.1-3.3,0.1c-9.3,0-16.9-2.1-17.3-4.8c0,0,0-0.1,0,0v4.7c0,2.8,7.8,5,17.3,5C1258.1,234.2,1258.6,234.2,1258.6,234.2z"/>
	<path class="st1" d="M1248.5,224v3.7c1.8,0.3,3.8,0.6,6,0.7v-3.2c0-0.6,0.4-1,1-1c0.7,0,1.5,0,2.2,0c0.4,0,0.8,0,1.2,0
		c0.3-1.7,1.8-3.1,3.6-3.1c2,0,3.7,1.7,3.7,3.7c0,0,0,0,0,0c2.3,0.4,4.2,0.9,5.7,1.5c1.6-0.7,2.5-1.6,2.5-2.5c0-0.7-0.6-1.4-1.7-2.1
		c-3-1.5-8.6-2.5-15.1-2.5c-1.6,0-3.8,0.1-5.2,0.2C1250.1,219.7,1248.5,221.5,1248.5,224z"/>
	<path class="st1" d="M1262.6,221.7c-1.7,0-3.1,1.4-3.1,3.1c0,1.7,1.4,3.1,3.1,3.1c1.7,0,3.1-1.4,3.1-3.1
		C1265.7,223.1,1264.4,221.7,1262.6,221.7z"/>
</g>
</svg>
