<svg xmlns="http://www.w3.org/2000/svg" width="228" height="40" viewBox="0 0 228 40">
  <g transform="translate(-1050 -212)">
    <rect width="228" height="40" transform="translate(1050 212)" fill="none" opacity="0.306"/>
    <path d="M117.449,28.756h-1.477V22.844H113.2V42.232a1.388,1.388,0,0,0,2.776,0V30.941h1.477V42.232a1.387,1.387,0,0,0,2.775,0V22.844h-2.775Z" transform="translate(1012.982 204.529)" fill="#fff"/>
    <path d="M170.532,36.069a1.551,1.551,0,1,0,3.1,0V26.375a1.872,1.872,0,0,0-1.87-1.872H159.246v2.185h11.286Z" transform="translate(997.922 203.987)" fill="#fff"/>
    <path d="M19.68,47.911H9.588V43.249h-3.1v4.975A1.869,1.869,0,0,0,8.358,50.1H19.68a1.093,1.093,0,1,0,0-2.186" transform="translate(1047.878 197.856)" fill="#fff"/>
    <path d="M27.228,28.376H25.372V22.843h-3.1V36.182a1.551,1.551,0,1,0,3.1,0V30.563h1.856a1.093,1.093,0,0,0,0-2.186" transform="translate(1042.717 204.53)" fill="#fff"/>
    <path d="M90.922,26.718H89.069V22.844h-3.1v9.585a1.551,1.551,0,1,0,3.1,0V28.9h1.853a1.092,1.092,0,1,0,0-2.184" transform="translate(1021.886 204.529)" fill="#fff"/>
    <path d="M12.129,30.008a2.534,2.534,0,0,0-.616-1.714,1.563,1.563,0,0,0-2.1-.164,1.6,1.6,0,0,0-.309,1.645A2.476,2.476,0,0,1,6.77,32.762a2.587,2.587,0,0,1-2.38-2.754,2.553,2.553,0,0,1,2.549-2.73h5.7a1.092,1.092,0,1,0,0-2.184H8.375V22.4H5.161v2.695H0v2.184H2.389a4.36,4.36,0,0,0-.978,2.73c0,2.62,2.4,4.746,5.359,4.746,3.1,0,5.359-2.127,5.359-4.746" transform="translate(1050 204.675)" fill="#fff"/>
    <path d="M145.546,47.708l-9.867,0V42.6h-3.1v5.426a1.87,1.87,0,0,0,1.871,1.871h11.1a1.094,1.094,0,0,0,0-2.188" transform="translate(1006.644 198.069)" fill="#fff"/>
    <path d="M174.142,42.584h-8.5v-7.3h-3.1v7.3h-6.722v2.184h18.328a1.092,1.092,0,1,0,0-2.184" transform="translate(999.045 200.461)" fill="#fff"/>
    <path d="M234.145,31.9h-2.454a6.93,6.93,0,0,0,.866-3.892v-2.6a1.876,1.876,0,0,0-1.876-1.873H217.673V25.72h11.778v3.133a6.334,6.334,0,0,1-.563,3.047h-3.182V27.985h-3.1V31.9h-7.62v2.186H220.5a5.242,5.242,0,0,0-2.456,4.215,4.859,4.859,0,0,0,2.071,3.965,8.393,8.393,0,0,0,9.984,0,4.85,4.85,0,0,0,2.085-3.965,3.917,3.917,0,0,0-1.5-3.127,1.779,1.779,0,0,0-2.28-.038,1.329,1.329,0,0,0,.047,1.925c.762.666.9,2.306-.614,3.567a4.2,4.2,0,0,1-2.742.988,4.126,4.126,0,0,1-2.725-.988,3.022,3.022,0,0,1-1.179-2.388c0-2.84,3.132-4.154,4.728-4.154h8.226a1.093,1.093,0,1,0,0-2.186" transform="translate(979.694 204.303)" fill="#fff"/>
    <path d="M265.084,28.239h-1.851v-5.4h-3.1V31.1a8.4,8.4,0,0,1-3.178.575h-7.012v-6.18h6.51a1.092,1.092,0,1,0,0-2.184h-9.613v8.678a1.873,1.873,0,0,0,1.873,1.873h8a8.374,8.374,0,0,0,3.423-.636v2.97a1.552,1.552,0,1,0,3.1,0V30.425h1.851a1.093,1.093,0,1,0,0-2.186" transform="translate(969.278 204.53)" fill="#fff"/>
    <path d="M263.918,47.6h-9.791V42.265h-3.1v5.651a1.87,1.87,0,0,0,1.872,1.871h11.02a1.093,1.093,0,1,0,0-2.185" transform="translate(967.907 198.178)" fill="#fff"/>
    <path d="M149.8,37.746a1.552,1.552,0,0,0,1.554-1.552V22.843h-3.1V36.194a1.55,1.55,0,0,0,1.549,1.552" transform="translate(1001.518 204.53)" fill="#fff"/>
    <path d="M70.358,30.188a8.392,8.392,0,0,0,3.757,2.8c1.337.563,2.441.643,2.876-.1a1.043,1.043,0,0,0-.53-1.438,8.482,8.482,0,0,1-2.906-1.718,7.027,7.027,0,0,1-1.58-4.007h3.139a1.092,1.092,0,1,0,0-2.184H64.719V25.72h4.043a6.978,6.978,0,0,1-1.589,4.007,8.868,8.868,0,0,1-3.909,2.034l1.393,1.806a10.442,10.442,0,0,0,5.7-3.38" transform="translate(1029.311 204.303)" fill="#fff"/>
    <path d="M51.243,30.646H48.487a5.46,5.46,0,0,0,.9-3.4v-1.84a1.871,1.871,0,0,0-1.87-1.872H34.579v2.184h11.7V28.3a3.226,3.226,0,0,1-.68,2.349H31.9V32.83h8.563v2.8H34.579v2.185H46.06V42.3a1.551,1.551,0,0,0,3.1,0V37.5a1.87,1.87,0,0,0-1.869-1.872H43.56v-2.8h7.683a1.092,1.092,0,0,0,0-2.184" transform="translate(1039.569 204.303)" fill="#fff"/>
    <path d="M77.883,39.236c-3.427,0-6.208,2.281-6.208,5.093s2.781,5.093,6.208,5.093,6.212-2.28,6.212-5.093-2.781-5.093-6.212-5.093m0,8.014a2.925,2.925,0,1,1,3.057-2.921,2.992,2.992,0,0,1-3.057,2.921" transform="translate(1026.56 199.169)" fill="#fff"/>
    <path d="M203.523,31.948h-3.662V28.79a3.835,3.835,0,0,0,1.178-2.675c0-2.6-2.964-4.7-6.621-4.7s-6.618,2.106-6.618,4.7a3.863,3.863,0,0,0,1.275,2.764v3.069h-4.712v2.186h5.553a4.8,4.8,0,0,0-2.271,3.755,4.587,4.587,0,0,0,2,3.77,8.254,8.254,0,0,0,9.685-.015,4.592,4.592,0,0,0,2.01-3.755,3.652,3.652,0,0,0-1.32-2.632,1.7,1.7,0,0,0-2.325-.186c-.4.4-.642.979.063,1.986a2.424,2.424,0,0,1-.745,2.979,3.868,3.868,0,0,1-2.534.9,3.8,3.8,0,0,1-2.514-.9,2.749,2.749,0,0,1-1.073-2.187c0-2.21,2.417-3.715,4.658-3.715h7.976a1.093,1.093,0,1,0,0-2.186m-9.105-8.4c1.909,0,3.452,1.151,3.452,2.57s-1.543,2.572-3.452,2.572-3.452-1.153-3.452-2.572,1.544-2.57,3.452-2.57m-2.289,8.4V30.521a9.037,9.037,0,0,0,4.679-.026v1.453Z" transform="translate(989.708 204.997)" fill="#fff"/>
    <path d="M100.854,23.283a5.534,5.534,0,1,0,5.515,5.533,5.523,5.523,0,0,0-5.515-5.533m0,8.732c-1.341,0-2.429-1.431-2.429-3.2s1.088-3.2,2.429-3.2,2.43,1.431,2.43,3.2-1.087,3.2-2.43,3.2" transform="translate(1018.821 204.386)" fill="#fff"/>
    <path d="M138.444,28.842a5.862,5.862,0,0,0-11.708,0,5.861,5.861,0,0,0,11.708,0m-8.648,0a2.835,2.835,0,1,1,5.588,0,2.836,2.836,0,1,1-5.588,0" transform="translate(1008.554 204.386)" fill="#fff"/>
    <path d="M285.427,15.6v4.756c0-1.048,1.168-2.018,3.144-2.807,0,0,.255-.1.356-.138a3.2,3.2,0,0,0,2.207-3.228v-2.2c-3.5.88-5.707,2.176-5.707,3.621" transform="translate(956.658 208.084)" fill="#fff"/>
    <path d="M302.689,2.948A2.948,2.948,0,1,1,299.742,0a2.948,2.948,0,0,1,2.947,2.948" transform="translate(952.941 212)" fill="#fff"/>
    <path d="M305.752,10.228c-1.554,0-3.588.062-5.009.223a4.146,4.146,0,0,0-3.865,4.374V30.671c0,.955,1.293,1.729,2.892,1.729s2.889-.774,2.889-1.729V16.021a1.032,1.032,0,0,1,.968-.992c.7-.027,1.4-.045,2.125-.045,9.159,0,16.584,2.148,16.584,4.8V15.026c0-2.649-7.426-4.8-16.584-4.8" transform="translate(952.913 208.655)" fill="#fff"/>
    <path d="M324.222,21.284v2.17a2.118,2.118,0,0,0,2.93,1.824c2.568-.845,4.125-1.954,4.125-3.166V17.357c0,1.625-2.792,3.059-7.055,3.927" transform="translate(943.971 206.324)" fill="#fff"/>
    <path d="M318.473,16.763a2.949,2.949,0,1,1-2.95-2.95,2.948,2.948,0,0,1,2.95,2.95" transform="translate(947.78 207.483)" fill="#fff"/>
    <path d="M305.114,22.073s-2.041.085-3.107.085c-9.158,0-16.58-2.149-16.58-4.8v4.757c0,2.65,7.422,4.8,16.58,4.8.255,0,.75-.006.75-.006a1,1,0,0,1,1,1V43.946c0,.954,1.295,1.73,2.89,1.73s2.892-.775,2.892-1.73V26.495a4.3,4.3,0,0,0-4.423-4.422" transform="translate(956.658 206.324)" fill="#fff"/>
  </g>
</svg>
