<?xml version="1.0" encoding="UTF-8"?><svg id="Layer_1" xmlns="http://www.w3.org/2000/svg" xmlns:xlink="http://www.w3.org/1999/xlink" viewBox="0 0 40 272.21"><defs><clipPath id="clippath"><rect width="40" height="271.88" style="fill:none;"/></clipPath></defs><rect y=".21" width="40" height="272" style="fill:none;"/><g style="clip-path:url(#clippath);"><path d="m39.95,14.49c-.43,1.79-3.68,3.35-8.46,4.33v2.24c0,1.58,1.59,3.13,3.93,2.44,2.86-1,4.58-2.29,4.58-3.68v-5.34s-.04-.03-.05.02" style="fill:#fff;"/><path d="m.66,13.62c0,1.06,1.08,2.05,2.94,2.89,2.08-.91,3.29-2.06,3.29-4.44v-2.35c-1.75.44-3.23.97-4.36,1.56-1.2.71-1.87,1.5-1.87,2.34" style="fill:#fff;"/><path d="m16.34,3.56c0,1.96-1.59,3.56-3.56,3.56s-3.56-1.59-3.56-3.56S10.82,0,12.78,0s3.56,1.59,3.56,3.56" style="fill:#fff;"/><path d="m9.3,25.51v7.44c0,1.15,1.56,2.09,3.49,2.09s3.49-.93,3.49-2.09v-6.65c-2.52-.14-4.88-.41-6.97-.79" style="fill:#fff;"/><path d="m23.75,19.77s-2.46.1-3.75.1C9.28,19.87.52,17.43.02,14.37c0-.05-.02-.08-.02,0v5.46C0,23.02,8.95,25.61,20,25.61c.31,0,.9,0,.9,0,.67,0,1.2.54,1.2,1.2v19.35c0,1.15,1.56,2.09,3.49,2.09s3.49-.93,3.49-2.09v-21.05c0-2.94-2.39-5.56-5.33-5.33" style="fill:#fff;"/><path d="m37.41,11.24c-3.43-1.76-9.94-2.94-17.4-2.94-1.87,0-4.33.08-6.05.27-2.84.32-4.66,2.34-4.66,5.27v4.32c2.08.39,4.43.67,6.97.81v-3.69c0-.65.52-1.11,1.17-1.2.84-.03,1.69-.05,2.56-.05.47,0,.93,0,1.4.02.34-2.01,2.09-3.55,4.2-3.55,2.35,0,4.26,1.91,4.26,4.26v.02c2.6.43,4.84,1.02,6.55,1.72,1.86-.84,2.94-1.83,2.94-2.89,0-.85-.7-1.66-1.93-2.38" style="fill:#fff;"/><path d="m29.15,14.77c0,1.97-1.59,3.56-3.56,3.56s-3.56-1.59-3.56-3.56,1.59-3.56,3.56-3.56,3.56,1.59,3.56,3.56" style="fill:#fff;"/><path d="m27.07,76.05h-10.78v-4.98h-3.31v5.31c0,1.1.89,2,2,2h12.09c.64,0,1.17-.52,1.17-1.17s-.52-1.16-1.17-1.16" style="fill:#fff;"/><path d="m29.62,62.31h-1.98v-5.91h-3.32v14.25c0,.91.74,1.66,1.66,1.66s1.66-.74,1.66-1.66v-6h1.98c.64,0,1.17-.52,1.17-1.17s-.52-1.17-1.17-1.17" style="fill:#fff;"/><path d="m21.27,64.21c0-.7-.2-1.3-.66-1.83-.53-.63-1.74-.71-2.24-.17-.46.49-.5.99-.33,1.76.33,1.52-.82,3.19-2.49,3.19-1.41,0-2.54-1.32-2.54-2.94,0-1.53.99-2.92,2.72-2.92h6.08c.64,0,1.17-.52,1.17-1.17s-.52-1.17-1.17-1.17h-4.55v-2.88h-3.44v2.88h-5.51v2.33h2.55c-.66.83-1.04,1.83-1.04,2.92,0,2.8,2.56,5.07,5.73,5.07s5.72-2.27,5.72-5.07" style="fill:#fff;"/><path d="m29.62,255.65h-1.98v-5.76h-3.32v8.82c-.91.4-2.2.61-3.39.61h-7.49v-6.6h6.95c.64,0,1.17-.52,1.17-1.17s-.52-1.17-1.17-1.17h-10.27v9.27c0,1.1.9,2,2,2h8.54c1.29,0,2.77-.23,3.65-.68v3.17c0,.92.74,1.66,1.66,1.66s1.66-.74,1.66-1.66v-6.16h1.98c.64,0,1.17-.52,1.17-1.16s-.53-1.17-1.17-1.17" style="fill:#fff;"/><path d="m26.91,269.55h-10.46v-5.7h-3.31v6.04c0,1.1.89,2,2,2h11.77c.65,0,1.17-.52,1.17-1.17s-.52-1.17-1.17-1.17" style="fill:#fff;"/><path d="m29.71,235.07h-2.62c.76-1.05.92-2.69.92-4.16v-2.78c0-1.1-.9-2-2-2h-13.9v2.33h12.58v3.34c0,1.02-.05,2.26-.6,3.26h-3.4v-4.18h-3.31v4.18h-8.14v2.33h5.89c-1.45.79-2.62,2.8-2.62,4.5s.73,3.06,2.21,4.24c1.47,1.17,3.25,1.76,5.32,1.76s3.85-.59,5.34-1.76c1.49-1.17,2.23-2.53,2.23-4.24,0-1.34-.53-2.43-1.6-3.34-.68-.58-1.78-.64-2.44-.04-.59.55-.53,1.55.05,2.05.81.71.97,2.46-.66,3.81-.85.7-1.83,1.06-2.93,1.06s-2.07-.35-2.91-1.06c-.84-.7-1.26-1.56-1.26-2.55,0-3.03,3.34-4.44,5.05-4.44h8.79c.64,0,1.17-.52,1.17-1.17s-.52-1.17-1.17-1.17" style="fill:#fff;"/><path d="m17.54,211.61v-1.53c.76.2,1.59.32,2.45.32s1.76-.12,2.55-.34v1.55h-5Zm2.45-8.98c2.04,0,3.69,1.23,3.69,2.74s-1.65,2.75-3.69,2.75-3.69-1.23-3.69-2.75,1.65-2.74,3.69-2.74m9.73,8.98h-3.91v-3.38c.79-.81,1.26-1.79,1.26-2.86,0-2.77-3.17-5.02-7.07-5.02s-7.07,2.25-7.07,5.02c0,1.1.51,2.12,1.36,2.95v3.28h-5.03v2.33h5.93c-1.37.92-2.43,2.45-2.43,4.01s.71,2.91,2.13,4.03c1.42,1.11,3.14,1.67,5.16,1.67s3.75-.56,5.18-1.68c1.43-1.12,2.15-2.41,2.15-4.01,0-1.13-.69-2.22-1.41-2.81-.76-.63-1.79-.9-2.49-.2-.43.42-.68,1.05.07,2.12.6.86.19,2.37-.79,3.18-.78.64-1.68.96-2.71.96s-1.92-.32-2.69-.96c-.76-.64-1.15-1.42-1.15-2.34,0-2.36,2.58-3.97,4.98-3.97h8.52c.65,0,1.17-.52,1.17-1.17s-.52-1.17-1.17-1.17" style="fill:#fff;"/><path d="m24.66,192.35c0,.91.74,1.66,1.66,1.66s1.66-.75,1.66-1.66v-10.35c0-1.11-.9-2-2-2h-13.91v2.33h12.6v10.01Z" style="fill:#fff;"/><path d="m29.71,195.54h-9.08v-7.8h-3.31v7.8h-8.08v2.34h20.48c.65,0,1.17-.52,1.17-1.17s-.52-1.17-1.17-1.17" style="fill:#fff;"/><path d="m26.91,174.49h-10.54s0-5.46,0-5.46h-3.31v5.8c0,1.1.89,2,2,2h11.85c.64,0,1.17-.53,1.17-1.17s-.52-1.17-1.17-1.17" style="fill:#fff;"/><path d="m25.98,170.74c.92,0,1.66-.74,1.66-1.66v-14.26h-3.32v14.26c0,.92.74,1.66,1.66,1.66" style="fill:#fff;"/><path d="m12.13,161.08c0-1.96,1.33-3.54,2.99-3.54s2.98,1.59,2.98,3.54-1.33,3.55-2.98,3.55-2.99-1.59-2.99-3.55m9.24,0c0-3.28-2.8-5.94-6.25-5.94s-6.26,2.66-6.26,5.94,2.8,5.94,6.26,5.94,6.25-2.66,6.25-5.94" style="fill:#fff;"/><path d="m25.14,136.84h-1.58v-6.32h-2.96v20.71c0,.82.66,1.48,1.48,1.48s1.48-.66,1.48-1.48v-12.06h1.58v12.06c0,.82.66,1.48,1.48,1.48s1.48-.66,1.48-1.48v-20.71h-2.96v6.32Z" style="fill:#fff;"/><path d="m13.65,140.16c-1.43,0-2.59-1.53-2.59-3.42s1.16-3.42,2.59-3.42,2.6,1.53,2.6,3.42-1.16,3.42-2.6,3.42m0-9.33c-3.25,0-5.89,2.65-5.89,5.91s2.64,5.91,5.89,5.91,5.89-2.65,5.89-5.91-2.64-5.91-5.89-5.91" style="fill:#fff;"/><path d="m29.55,109.53h-1.91v-4.14h-3.31v10.24c0,.92.74,1.66,1.66,1.66s1.66-.74,1.66-1.66v-3.77h1.91c.64,0,1.17-.52,1.17-1.17s-.52-1.17-1.17-1.17" style="fill:#fff;"/><path d="m15.59,112.99c.86,1.37,2.6,2.39,4.01,2.99,1.43.6,2.61.69,3.07-.11.33-.57-.03-1.38-.57-1.54-.82-.24-2.32-1.05-3.1-1.84-1.01-1.01-1.57-2.93-1.69-4.28h3.35c.64,0,1.17-.52,1.17-1.17s-.52-1.17-1.17-1.17h-11.1v2.34h4.32c-.11,1.35-.68,3.27-1.7,4.28-1.02,1-2.52,1.73-4.18,2.17l1.49,1.93c2.55-.62,4.84-1.98,6.09-3.61" style="fill:#fff;"/><path d="m20.69,125.73c-1.8,0-3.26-1.4-3.26-3.12s1.46-3.12,3.26-3.12,3.27,1.4,3.27,3.12-1.46,3.12-3.27,3.12m0-8.56c-3.66,0-6.63,2.44-6.63,5.44s2.97,5.44,6.63,5.44,6.64-2.44,6.64-5.44-2.97-5.44-6.64-5.44" style="fill:#fff;"/><path d="m29.72,89.17h-2.94c.71-.84.96-2.27.96-3.63v-1.97c0-1.1-.89-2-2-2h-13.82v2.33h12.5v2.75c0,1-.14,1.95-.72,2.51h-14.46v2.33h8.96v2.99h-6.28v2.33h12.26v4.79c0,.91.74,1.66,1.66,1.66s1.66-.74,1.66-1.66v-5.12c0-1.1-.9-2-2-2h-3.99v-2.99h8.21c.64,0,1.17-.52,1.17-1.17s-.52-1.17-1.17-1.17" style="fill:#fff;"/></g></svg>