<?xml version="1.0" encoding="UTF-8"?><svg id="Layer_1" xmlns="http://www.w3.org/2000/svg" viewBox="0 0 40 40"><g id="part3"><path id="part3-2" d="m27.05,34.16h-1v-1.07c0-.83.32-1.62.91-2.22l4.29-4.38c.53-.55.83-1.26.83-2.02l-.02-11.87h-.05c-.93,0-1.68.74-1.68,1.65l-.02,5.38c.01.09.02.18.02.27,0,.3-.08.59-.23.88l-3.28,5.93-.88-.48,3.27-5.92c.07-.13.11-.27.11-.4,0-.47-.39-.84-.86-.84-.32,0-.6.17-.76.45l-2.39,4.27-2.85,2.77c-1.25,1.21-1.96,2.9-1.96,4.62v2.99h-1v-2.99c0-1.73-.71-3.41-1.96-4.62l-2.93-2.88-2.3-4.16c-.16-.28-.44-.45-.76-.45-.48,0-.86.38-.86.84,0,.13.04.27.11.4l3.27,5.91-.88.48-3.27-5.92c-.15-.29-.23-.58-.23-.88,0-.09,0-.18.02-.27h-.02v-5.38c0-.91-.75-1.65-1.68-1.65h-.05l-.02,11.87c0,.76.29,1.47.83,2.02l4.29,4.38c.59.6.91,1.39.91,2.22v1.07h-1v-1.07c0-.57-.22-1.11-.62-1.52l-4.29-4.38c-.72-.73-1.11-1.7-1.11-2.72l.02-12.87h1.04c1.48,0,2.68,1.19,2.68,2.65v4.01c.26-.13.55-.21.86-.21.67,0,1.3.37,1.63.96l2.27,4.1,2.79,2.71c.78.76,1.38,1.68,1.76,2.67.39-1,.99-1.92,1.76-2.67l2.79-2.71,2.27-4.09c.33-.59.96-.96,1.63-.96.31,0,.61.08.86.21v-4.01c0-1.46,1.2-2.65,2.68-2.65h1.05l.02,12.87c0,1.02-.39,1.99-1.11,2.72l-4.29,4.39c-.4.41-.62.95-.62,1.52v1.07Zm-7.05-11.15l-6.71-6.35c-.93-.93-1.43-2.15-1.43-3.45,0-2.67,2.16-4.84,4.82-4.84,1.25,0,2.43.48,3.32,1.34.89-.85,2.07-1.34,3.32-1.34,2.66,0,4.82,2.17,4.82,4.84,0,1.3-.5,2.52-1.42,3.44l-6.72,6.36Zm-3.32-13.64c-2.1,0-3.82,1.72-3.82,3.84,0,1.03.4,2,1.13,2.73l6.01,5.69,6.02-5.7c.72-.72,1.12-1.69,1.12-2.72,0-2.12-1.71-3.84-3.82-3.84-1.14,0-2.21.51-2.94,1.39l-.39.47-.39-.47c-.73-.88-1.8-1.39-2.93-1.39Z" style="fill:#fff;"/><rect width="40" height="40" style="fill:none;"/></g></svg>