<?xml version="1.0" encoding="UTF-8"?><svg id="Layer_1" xmlns="http://www.w3.org/2000/svg" viewBox="0 0 40 40"><g id="part4"><rect width="40" height="40" style="fill:none;"/><path id="part4-2" d="m29.06,18.57h-6.16v-3.36h6.16v3.36Zm-10.44,11.54v-14.89h2.76v14.89h-2.76Zm-5.4-9.96h3.89v9.96h-3.89v-9.96Zm-2.27-4.93h6.16v3.36h-6.16v-3.36Zm1.86-4.35c.04-.19.14-.78,1.51-.94,2.68-.32,4.12,2.24,4.73,3.72h-5.01c-.48-.41-1.4-1.8-1.22-2.77m13.12-.94c1.37.16,1.48.75,1.51.94.18.97-.74,2.37-1.22,2.77h-5.01c.61-1.48,2.07-4.04,4.72-3.72m3.22,3.72h-.98c.55-.9.95-2.05.76-3.06-.13-.72-.67-1.96-2.83-2.22-2.98-.36-4.94,1.87-5.98,3.95-1.04-2.08-3-4.31-5.98-3.95-2.16.26-2.7,1.5-2.83,2.22-.18,1.01.21,2.16.76,3.06h-1.21c-.79,0-1.44.67-1.44,1.49v3.52c0,.82.64,1.49,1.44,1.49h.83v10.05c0,.82.64,1.49,1.44,1.49h10.93c.42,0,.76-.35.76-.79s-.34-.79-.76-.79h-1.16v-9.96h3.89v10.75c0,.43.34.79.76.79s.76-.35.76-.79v-10.75h.83c.79,0,1.44-.67,1.44-1.49v-3.52c0-.82-.64-1.49-1.44-1.49" style="fill:#fff;"/></g></svg>