<?xml version="1.0" encoding="UTF-8"?><svg id="Layer_1" xmlns="http://www.w3.org/2000/svg" xmlns:xlink="http://www.w3.org/1999/xlink" viewBox="0 0 40 40"><defs><clipPath id="clippath"><path d="m20,0C8.95,0,0,8.95,0,20s8.95,20,20,20,20-8.95,20-20S31.05,0,20,0Z" style="fill:none;"/></clipPath></defs><g id="part1"><g style="clip-path:url(#clippath);"><path d="m10.73,27.08c.49-.52,1.13-.85,1.84-.92-.18-.37-.28-.78-.29-1.2-.02-.78.27-1.51.8-2.08.56-.58,1.3-.88,2.05-.9-.08-.27-.13-.56-.13-.85,0-.78.29-1.51.84-2.06.46-.47,1.05-.75,1.65-.83-.74-1.12-.63-2.66.36-3.65,1.13-1.14,2.97-1.15,4.12-.02l2.48,2.48c.26-.03.52-.02.78.02l4.76.76c1.18.19,2.11,1.06,2.38,2.23l1.68,6.95c.3,1.23.92,2.35,1.82,3.24l1.83,1.83c.24.24.24.63,0,.87-.12.12-.28.18-.43.18s-.31-.06-.43-.18l-1.83-1.83c-1.05-1.05-1.79-2.37-2.14-3.82l-1.68-6.96s0,0,0,0c-.15-.67-.69-1.18-1.37-1.29l-3.99-.64,3.37,3.37c.24.24.24.63,0,.87-.12.12-.28.18-.43.18s-.31-.06-.43-.18l-7.2-7.2c-.66-.65-1.73-.64-2.38.01-.65.66-.65,1.73.02,2.38l3.56,3.56c.12.12.18.28.18.43s-.06.31-.18.43c-.24.24-.63.24-.87,0l-2.34-2.34c-.66-.65-1.73-.64-2.38.02-.32.32-.49.74-.48,1.19,0,.45.18.87.5,1.19l2.86,2.86c.24.24.24.63,0,.87-.12.12-.28.18-.43.18-.06,0-.12,0-.17-.03-.1-.03-.18-.08-.26-.15l-2.38-2.38c-.67-.63-1.73-.61-2.37.06-.31.33-.47.75-.46,1.2.01.45.2.87.52,1.18,0,0,0,0,.01.01l2.69,2.69c.24.24.24.63,0,.87h0c-.24.24-.63.24-.87,0l-1.87-1.87c-.33-.3-.75-.46-1.2-.44-.45.02-.86.21-1.17.54-.63.68-.59,1.75.09,2.38,0,0,.01.01.02.02l5.12,5.12c.89.89,1.91,1.64,3.03,2.21l1.75.9c1.23.63,2.36,1.45,3.34,2.44l2.12,2.11c.24.24.24.63,0,.87-.12.12-.28.18-.43.18s-.31-.06-.43-.18l-2.12-2.11c-.89-.89-1.91-1.64-3.03-2.21l-1.75-.9c-1.23-.63-2.36-1.45-3.34-2.44l-5.12-5.12c-1.17-1.09-1.23-2.93-.15-4.1" style="fill:#fff;"/><path d="m15.99,12.81c-.16,0-.31-.06-.43-.18l-2.62-2.62c-.24-.24-.24-.63,0-.87.24-.24.63-.24.87,0l2.62,2.62c.24.24.24.63,0,.87-.12.12-.28.18-.43.18" style="fill:#fff;"/><path d="m22.55,12.63c-.12.12-.28.18-.43.18s-.31-.06-.43-.18c-.24-.24-.24-.63,0-.87l2.62-2.62c.24-.24.63-.24.87,0,.24.24.24.63,0,.87l-2.62,2.62Z" style="fill:#fff;"/><path d="m15.33,15.27c0,.34-.27.61-.61.61h-3.71c-.34,0-.61-.28-.61-.61s.27-.61.61-.61h3.71c.34,0,.61.28.61.61" style="fill:#fff;"/><path d="m19.06,11.54c-.34,0-.61-.27-.61-.61v-3.71c0-.34.28-.61.61-.61s.61.27.61.61v3.71c0,.34-.28.61-.61.61" style="fill:#fff;"/></g></g></svg>