<svg xmlns="http://www.w3.org/2000/svg" xmlns:xlink="http://www.w3.org/1999/xlink" width="100%" viewBox="0 0 260 84">
  <defs>
    <clipPath id="clip-path">
      <rect  width="260" height="49" transform="translate(62.211 101.134)" fill="#000"/>
    </clipPath>
  </defs>
  <g transform="translate(-62 -101)">
    <g transform="translate(-0.211 -0.134)" clip-path="url(#clip-path)">
      <path d="M13.719,15.883a19.253,19.253,0,0,0,9.567,9.357l3.171-4.9A14.488,14.488,0,0,1,16.7,7.526h8.4v-5.1H1.821v5.1h8.82C10.313,14.232,6.161,19.285,0,21.685l3.453,4.854c4.246-1.6,8.914-6,10.266-10.657" transform="translate(62.211 102.879)" fill="#000"/>
      <path d="M19.473,34.891c-6.019,0-9.519-1.7-9.519-4.553,0-2.9,3.5-4.553,9.519-4.553,6.158,0,9.613,1.65,9.613,4.553,0,2.851-3.455,4.553-9.613,4.553m0-14.11c-9.752,0-15.4,3.652-15.4,9.557,0,5.854,5.646,9.507,15.4,9.507,9.8,0,15.446-3.652,15.446-9.507,0-5.9-5.646-9.557-15.446-9.557" transform="translate(63.689 109.539)" fill="#000"/>
      <path d="M27.816,0H21.982V27.719h5.834V16.462h6.3v-5.1h-6.3Z" transform="translate(70.185 102)" fill="#000"/>
      <path d="M42.314,31.112c-2.893,0-4.107-5.153-4.107-11.507S39.42,8.049,42.314,8.049c2.986,0,4.2,5.2,4.2,11.556s-1.211,11.507-4.2,11.507M42.266,2.644c-6.812,0-9.564,8.256-9.564,16.912,0,8.705,2.751,17.062,9.564,17.062,6.905,0,9.659-8.356,9.659-17.013,0-8.705-2.754-16.961-9.659-16.961" transform="translate(74.074 102.959)" fill="#000"/>
      <path d="M58.418,18.363H54.73V.852H49.274V45.233H54.73V23.366h3.688V47.433h5.507V0H58.418Z" transform="translate(80.086 102)" fill="#000"/>
      <path d="M70.85,14.315c0-3.652,2.284-6.4,6.017-6.4,3.827,0,6.066,2.753,6.066,6.4,0,3.753-2.239,6.5-6.066,6.5-3.733,0-6.017-2.751-6.017-6.5m18.009,0c0-6.755-4.712-11.709-11.992-11.709-7.234,0-11.946,4.954-11.946,11.709,0,6.8,4.712,11.657,11.946,11.657,7.28,0,11.992-4.853,11.992-11.657" transform="translate(85.762 102.946)" fill="#000"/>
      <rect width="5.786" height="34.423" transform="translate(180.034 102.001)" fill="#000"/>
      <path d="M109.249,27.451V14.392H103.7V27.751c-2.987.05-5.879.05-9.054.05l.747,5.054c3.408,0,7.048-.1,11.573-.352,5.18-.3,11.667-.8,15.819-1.4l-.467-4.753c-3.5.5-7.653.8-13.065,1.1" transform="translate(96.544 107.221)" fill="#000"/>
      <path d="M112.948,23.9l5.552.6c1.075-5,1.494-11.507,1.494-20.714H96.663v5h17.452a86.02,86.02,0,0,1-1.167,15.11" transform="translate(97.277 103.372)" fill="#000"/>
      <path d="M122.605,0h-5.74V47.432h5.74V24.567h5.831v-5.1h-5.831Z" transform="translate(104.605 102)" fill="#000"/>
      <path d="M96.05,30.133H92.6a7.432,7.432,0,0,1-3.054,3.452,12.68,12.68,0,0,1-6.337,1.451,20.036,20.036,0,0,1-3.684-.35,6.792,6.792,0,0,1-2.7-1.2,5.49,5.49,0,0,1-1.718-2.253,15.855,15.855,0,0,1-.589-4.578v-3.3a2.88,2.88,0,0,0-.144-.9h-5.9v4.355a18.825,18.825,0,0,0,1.081,6.78,9.547,9.547,0,0,0,3.047,3.8,12.855,12.855,0,0,0,4.665,2,27.265,27.265,0,0,0,5.944.6,20.209,20.209,0,0,0,9.772-2.2,13.035,13.035,0,0,0,5.65-6.954,2.2,2.2,0,0,0,.135-.7Z" transform="translate(87.051 110.144)" fill="#000"/>
      <path d="M139.175,12.134a6,6,0,0,1,6.019-5.854,5.6,5.6,0,0,1,5.879,5.854,5.543,5.543,0,0,1-5.879,5.5c-3.453,0-6.019-2.3-6.019-5.5m17.685.049c0-6.4-4.947-11.008-11.665-11.008-6.814,0-11.758,4.7-11.758,11.008,0,6.5,5.178,10.608,11.758,10.608,6.718,0,11.665-4.253,11.665-10.608" transform="translate(110.616 102.426)" fill="#000"/>
      <rect id="사각형_41" data-name="사각형 41" width="5.786" height="23.768" transform="translate(273.494 102.001)" fill="#000"/>
      <path d="M170.985,30.68V20.973h12.693V16.02H170.985V7.966h14.558V3.012h-20.3V35.684l4.246.049c7.045.1,14.7-.451,19.224-1.551l-.606-4.755c-5.04,1.3-11.9,1.353-17.124,1.252" transform="translate(122.156 103.093)" fill="#000"/>
      <path d="M188.506,0V16.961h-7.374v5.305h7.374V47.434h5.786V0Z" transform="translate(127.919 102)" fill="#000"/>
      <path d="M168.061,34.113a.918.918,0,0,0-.854-.387h-5.278a8.271,8.271,0,0,1-3.613,2.035,22.354,22.354,0,0,1-6.037.774,14.825,14.825,0,0,1-6.319-1.115,3.589,3.589,0,0,1-2.33-3.292v-.339h17.792a8.983,8.983,0,0,0,4.039-.773c.856-.534,1.331-1.648,1.331-3.391V22.2a4.411,4.411,0,0,0-.665-2.711,3.137,3.137,0,0,0-2.329-.726H137.785v2.664c0,.869.189,1.4.617,1.694a2.92,2.92,0,0,0,1.8.435h21.7v2.228c0,.533-.142.872-.382.968a2.08,2.08,0,0,1-1.187.243H139.257a1.409,1.409,0,0,0-1.142.387,1.724,1.724,0,0,0-.33,1.113v3.292a8.056,8.056,0,0,0,1.092,4.31,8.59,8.59,0,0,0,3.042,2.953,14.142,14.142,0,0,0,4.564,1.744,30.715,30.715,0,0,0,10.552.144,30.763,30.763,0,0,0,4.373-1.162,18.909,18.909,0,0,0,3.659-1.936,12.994,12.994,0,0,0,2.806-2.809,1.024,1.024,0,0,0,.189-.92" transform="translate(112.194 108.807)" fill="#000"/>
    </g>
    <text transform="translate(132 181)" font-size="14" fill="#000"  font-family="Noto Sans KR" font-weight="700"><tspan x="-65.562" y="0">VOL. 333 JAN, 2023</tspan></text>
  </g>
</svg>
