<?xml version="1.0" encoding="UTF-8"?><svg id="Layer_1" xmlns="http://www.w3.org/2000/svg" viewBox="0 0 40 40"><g id="part2"><path d="m22.91,7.75c-.06-.11-.16-.18-.28-.21-.24-.06-.5.09-.56.33l-.9,3.45c-.06.25.09.5.33.56h0s.07.01.12.01c.21,0,.39-.14.45-.34l.9-3.45c.03-.12.01-.24-.05-.35Z" style="fill:#fff;"/><path d="m18.83,11.34l-.95-3.44c-.07-.24-.32-.39-.57-.32-.12.03-.22.11-.28.22-.06.11-.08.23-.04.35l.95,3.44h0c.06.2.24.34.44.34.05,0,.09,0,.12-.02.25-.07.39-.32.32-.57Z" style="fill:#fff;"/><path d="m15.92,12.77l-2.54-2.5c-.09-.09-.2-.13-.32-.13h0c-.12,0-.24.05-.33.14-.09.09-.13.21-.13.33,0,.12.05.24.14.32l2.54,2.5h0c.09.09.2.13.32.13s.24-.05.33-.14c.09-.09.13-.21.13-.33,0-.12-.05-.24-.14-.32Z" style="fill:#fff;"/><path d="m27.25,10.16c-.18-.18-.47-.18-.65,0l-2.5,2.54c-.09.09-.13.2-.13.33,0,.12.05.24.14.32.08.08.2.13.32.13s.24-.05.33-.14l2.5-2.54c.09-.09.13-.2.13-.33,0-.12-.05-.24-.14-.33Z" style="fill:#fff;"/><path d="m35.98,24.92l-2.83-10.62c-.03-.11-.11-.21-.21-.27-.1-.06-.23-.08-.34-.05l-3.75,1c-.24.06-.38.31-.32.55l.11.4c-.31.06-.66.08-1.06.08-1.37,0-3.02-.35-4.62-.68-1.6-.34-3.11-.65-4.4-.65-.92,0-1.62.17-2.15.51-.1.06-.21.14-.32.23-.35.09-2.9.74-4.6.53l.1-.37c.03-.11.02-.24-.04-.34-.06-.1-.16-.18-.27-.21l-3.73-1.05c-.12-.03-.24-.02-.34.04-.11.06-.18.15-.21.27l-2.99,10.57c-.03.12-.02.24.04.34.06.1.15.18.27.21l3.73,1.05s.08.02.12.02c.2,0,.38-.13.43-.33l.06-.2c.61.11,1.93.45,2.27,1.45l-.03.04c-.67.89-.64,1.83.08,2.44.29.25.61.37.97.37.26,0,.52-.07.78-.2-.15.64.04,1.24.54,1.67.3.26.64.38,1.01.38.25,0,.51-.06.77-.18-.13.62.07,1.18.55,1.55.51.39,1.09.47,1.62.24.03.37.22.7.54.94.25.19.51.28.78.28.56,0,.95-.42,1.08-.55.12-.13.23-.26.33-.38.28.32.82.79,1.49.8h.02c.34,0,.84-.13,1.31-.74.18-.24.28-.49.3-.76.34.06.69.02,1.03-.11.64-.24,1.09-.75,1.23-1.37.58.11,1.19-.1,1.69-.56.42-.39.69-.92.72-1.41.09.02.19.03.29.03.61,0,1.27-.35,1.66-.9.47-.65.49-1.42.06-2.12.48-.33,1.21-.71,1.58-.89l.04.16c.06.23.31.38.55.32l3.75-1c.12-.03.21-.1.27-.21.06-.1.08-.23.05-.34Zm-8.15,4.05c-.32-.13-.83-.56-1-.71-.02-.02-.04-.03-.05-.04-1.07-.99-2.87-2.37-3.22-2.64-.2-.15-.48-.11-.63.09-.07.1-.1.21-.09.33.02.12.08.22.18.3.3.23,2.99,2.29,3.68,3.11.28.34.05.87-.3,1.21-.34.31-.88.53-1.3.14-.74-1.18-2.88-2.81-3.12-3-.2-.15-.48-.11-.63.09-.15.2-.11.48.09.63,1.22.91,2.53,2.14,2.9,2.73.02.05.05.11.08.14.03.06.04.1.04.12,0,.47-.37.78-.69.9-.33.12-.79.12-1.11-.24-.01-.02-.03-.03-.05-.04-.5-.7-1.31-1.34-1.97-1.86-.14-.11-.27-.21-.38-.3-.19-.16-.47-.13-.63.06-.16.19-.13.47.06.63.1.09.22.18.34.27l.05.04c.92.73,2.46,1.95,1.95,2.61-.19.25-.4.38-.6.38-.4,0-.82-.47-.94-.64-.02-.03-.05-.06-.07-.08.1-.26.14-.51.12-.74-.04-.38-.25-.71-.6-.96-.24-.17-.5-.26-.77-.24.01-.08.02-.16.01-.23,0-.46-.21-.87-.61-1.22-.29-.25-.62-.38-.97-.38-.17,0-.33.03-.5.09.07-.22.09-.43.08-.63-.03-.47-.27-.88-.69-1.18-.28-.2-.59-.3-.92-.3-.45,0-.83.19-1.07.35.02-.12.03-.24.02-.36-.03-.45-.25-.83-.65-1.12-.29-.21-.61-.31-.93-.31-.56,0-.96.31-1.06.4-.05.04-.16.14-.31.29-.61-1.02-1.87-1.42-2.62-1.57,1.23-4.34,2.12-7.54,2.32-8.27,1.12.16,2.53-.02,3.58-.22-1.46,1.62-2.84,3.85-2.12,4.99.2.32.61.7,1.4.7.95,0,2.07-.58,2.58-.97.09-.07.2-.15.32-.25.62-.5,1.65-1.33,2.52-1.33.26,0,.47.07.66.22l8.58,7.14c.53.62.31,1.12.14,1.36-.28.39-.81.62-1.12.49Zm-8.86,4.81c-.06.07-.25.27-.43.27-.07,0-.15-.03-.24-.1-.25-.19-.25-.47-.02-.85.32-.5.57-.74.58-.75.01-.01.03-.02.04-.04,0,0,.15-.16.32-.16.07,0,.14.03.22.08.18.13.21.24.22.31.01.13-.03.51-.7,1.22l.05.04h0l-.05-.04Zm-2.74-2.26c.49-.65.85-.94.86-.94.01,0,.02-.02.03-.03.02-.02.25-.22.51-.22.13,0,.25.05.38.16.2.17.3.35.3.55,0,.28-.18.79-1.07,1.6-.41.37-.72.41-1.09.13h0c-.51-.39-.07-1.06.08-1.25Zm-4.59-3.52c.41-.55.73-.83.83-.91h0s.02-.02.03-.03c0,0,.2-.18.47-.18.14,0,.27.05.41.15.17.12.26.27.27.44.01.23-.1.75-1.05,1.61-.16.14-.41.29-.64.29-.13,0-.26-.05-.38-.16-.43-.37-.21-.86.06-1.22Zm2.28,1.68c.51-.68.89-.99.91-1,.01-.01.03-.02.04-.03,0,0,.35-.32.73-.32.14,0,.27.04.4.13.2.14.3.31.32.5.02.28-.13.89-1.29,1.95-.13.12-.43.32-.74.32-.16,0-.3-.05-.43-.17-.52-.45-.19-1.05.06-1.38Zm5.65-10.81c-1.19,0-2.38.96-3.09,1.53l-.02.02c-.1.08-.2.16-.27.22-.43.33-1.35.79-2.04.79-.46,0-.59-.21-.64-.28-.53-.84,2.02-4.29,3.39-5.18.38-.25.92-.37,1.66-.37,1.18,0,2.65.31,4.19.63h.02c1.64.35,3.34.7,4.8.7.47,0,.89-.04,1.27-.11l2.21,8.32c-.5.24-1.36.68-1.93,1.1l-8.34-6.94c-.36-.28-.77-.42-1.23-.42Zm-8.95-3.08l-2.74,9.71-2.87-.81,2.74-9.71,2.87.81Zm24.38,8.94l-2.88.77-2.6-9.75,2.88-.77,2.6,9.75Z" style="fill:#fff;"/><rect width="40" height="40" style="fill:none;"/></g></svg>