<?xml version="1.0" encoding="UTF-8"?><svg id="Layer_1" xmlns="http://www.w3.org/2000/svg" xmlns:xlink="http://www.w3.org/1999/xlink" viewBox="0 0 800 817.76"><defs><clipPath id="clippath"><rect width="800" height="817.76" style="fill:none;"/></clipPath><clipPath id="clippath-1"><rect x="-132.64" y="45.13" width="1139.64" height="772.64" style="fill:none;"/></clipPath><clipPath id="clippath-2"><rect x="-132.64" y="45.13" width="1139.64" height="772.64" style="fill:none;"/></clipPath><clipPath id="clippath-3"><rect x="-132.64" y="45.13" width="1139.64" height="772.64" style="fill:none;"/></clipPath><clipPath id="clippath-4"><rect x="577.22" y="191.21" width="296.65" height="408.38" style="fill:none;"/></clipPath><clipPath id="clippath-5"><rect x="-70.68" y="169.65" width="325.32" height="429.95" style="fill:none;"/></clipPath><clipPath id="clippath-6"><rect x="171.9" y="702.13" width="529.23" height="99.84" style="fill:none;"/></clipPath><clipPath id="clippath-7"><rect x="394.54" y="343.81" width="117.55" height="70.45" style="fill:none;"/></clipPath><clipPath id="clippath-8"><rect x="372.01" y="490.57" width="151.74" height="98.95" style="fill:none;"/></clipPath><clipPath id="clippath-9"><rect x="362.42" y="351.59" width="154.66" height="131.44" style="fill:none;"/></clipPath><clipPath id="clippath-10"><rect x="-132.64" y="45.13" width="1139.64" height="772.64" style="fill:none;"/></clipPath><clipPath id="clippath-11"><rect x="-132.64" y="45.13" width="1139.64" height="772.64" style="fill:none;"/></clipPath></defs><g id="Layer_1-2"><g style="clip-path:url(#clippath);"><g><rect x="-3.83" y="-1.91" width="809.57" height="819.68" style="fill:#fde1b0;"/><g style="clip-path:url(#clippath-1);"><path d="m84.69,185.1l-14.32,40.44c8.95,6.73,12.93,18.72,8.99,29.84-3.94,11.12-14.58,17.94-25.77,17.53l-14.32,40.44,278.74,99.82,45.41-128.25L84.68,185.1h0Z" style="fill:#357997;"/></g><polygon points="313.96 404.75 94.01 325.75 135.03 209.91 354.98 288.92 313.96 404.75" style="fill:#fff;"/><g style="clip-path:url(#clippath-2);"><g><path d="m88.45,299.22c.33-.93.32-1.93,0-2.92l1.96-.64c.4,1.42.39,2.88-.1,4.26-1.27,3.6-4.74,5.48-8.46,4.16-3.53-1.25-5.19-5.06-3.94-8.61.46-1.29,1.25-2.28,2.3-3.12l1.29,1.59c-.77.54-1.4,1.28-1.72,2.19-.85,2.4.39,4.83,2.86,5.7,2.62.93,4.92-.11,5.81-2.63" style="fill:#fff;"/><path d="m84.44,282.99c-.81,2.3.49,4.65,2.93,5.51,2.43.86,4.93-.14,5.75-2.44.82-2.31-.49-4.67-2.92-5.53s-4.93.14-5.75,2.46m10.54,3.73c-1.25,3.53-4.98,5.24-8.41,4.03-3.43-1.21-5.25-4.89-4-8.42,1.26-3.55,4.99-5.26,8.41-4.04,3.43,1.21,5.25,4.89,4,8.44" style="fill:#fff;"/><path d="m96.45,264c3.77,1.34,5.34,3.49,4.15,6.87-1.17,3.29-3.74,3.98-7.51,2.64l-6.36-2.25.75-2.13,6.72,2.38c2.43.86,3.98.27,4.55-1.34.58-1.63-.25-3.06-2.68-3.92l-6.72-2.38.75-2.13,6.36,2.25h-.01Z" style="fill:#fff;"/><path d="m98.31,256.15l.42-1.2c.52-1.46.42-2.71-.92-3.18-1.18-.42-2.22.22-2.68,1.52l-.55,1.54,3.72,1.32h0Zm-4.97-3.56c.71-2.01,2.53-4.04,5.22-3.09,2.71.96,2.85,3.67,2.13,5.69l-.56,1.59,4.65,1.64-.75,2.13-12-4.25,1.32-3.72h-.01Z" style="fill:#fff;"/><path d="m100.12,238.7c-.81,2.3.49,4.65,2.93,5.51,2.43.86,4.93-.14,5.75-2.44.82-2.31-.49-4.67-2.92-5.53s-4.93.14-5.75,2.46m10.54,3.73c-1.25,3.53-4.98,5.24-8.41,4.03-3.43-1.21-5.25-4.89-4-8.42,1.26-3.55,4.99-5.26,8.41-4.04,3.43,1.21,5.25,4.89,4,8.44" style="fill:#fff;"/></g></g><polygon points="117.28 223.11 107.07 226.17 115.18 229.04 114.42 231.17 102.42 226.92 103.09 225.05 113.32 221.96 105.2 219.08 105.95 216.96 117.95 221.21 117.28 223.11" style="fill:#fff;"/><g><path d="m183.09,280.46l-7.23-2.56-2.73,7.72-2.74-.97,2.73-7.72-7.03-2.49.78-2.21,11.85,4.2c1.33-2.27,2.04-4.14,2.62-5.78l-10.42-3.69.78-2.21,13.06,4.62-.61,1.73c-.63,1.79-1.33,3.75-2.75,6.28l2.47.88-.78,2.21h0Z" style="fill:#6f5394;"/><path d="m202.26,284.77l-.78,2.19-17-6.02.78-2.19,7.13,2.53.59-1.67-5.07-1.79,2.42-6.84,12.91,4.57-.77,2.17-10.24-3.63-.89,2.5,10.4,3.68-.77,2.17-5.31-1.88-.59,1.67,7.17,2.54h.02Zm-16.38-1.88l13.14,4.65-2.3,6.51-2.7-.96,1.54-4.34-10.44-3.7.77-2.17h-.01Z" style="fill:#6f5394;"/><path d="m214.44,287.83c-1.5,4.23-4.54,6.14-7.38,5.13s-4.01-4.4-2.51-8.63c1.49-4.21,4.53-6.09,7.37-5.09,2.84,1.01,4.02,4.38,2.52,8.59h0Zm-7.29-2.58c-1.01,2.86-.59,4.72.8,5.21,1.39.49,2.89-.69,3.9-3.55,1-2.84.58-4.7-.81-5.19s-2.89.69-3.89,3.53h0Zm15.37-3.78l-6.82,19.27-2.7-.96,6.82-19.27,2.7.96Z" style="fill:#6f5394;"/><path d="m229.45,296.55l-7.46-2.64,3.45-9.74,2.53.9-1.04,2.94,2.43.86,1.04-2.94,2.49.88-1.36,3.84,1.59.56,1.76-4.98,2.51.89-4.82,13.62-2.51-.89,2.27-6.42-1.59-.56-1.31,3.69h.02Zm6.46,8.45l-.78,2.19-13.14-4.65,2.22-6.26,2.7.95-1.44,4.07,10.44,3.7h0Zm-7.29-14.03l-2.43-.86-.89,2.5,2.43.86.89-2.5Zm7.59,11.68l-2.55-.9,5.13-14.49,2.55.9-5.13,14.49Z" style="fill:#6f5394;"/><path d="m255.5,309.79l-.79,2.23-17.04-6.04.79-2.23,17.04,6.04Zm-.87-3.33l-13.22-4.68,3.78-10.68,13.08,4.63-.78,2.21-10.34-3.66-.72,2.02,9.91,3.51-.75,2.13-9.91-3.51-.76,2.15,10.48,3.71-.77,2.17Z" style="fill:#6f5394;"/></g><g><path d="m137.15,282.66c-2.09,5.9-5.36,10.33-13.38,11.55l-.73-2.61c3.48-.53,5.92-1.66,7.75-3.38l-5.55-1.4.47-2.44,6.67,1.94c.47-.75.91-1.53,1.32-2.42l-5.95-2.11.78-2.19,8.62,3.05h0Zm6.82.36l-6.8,19.2-2.7-.96,3.4-9.61-3.51-1.24.79-2.23,3.51,1.24,2.61-7.36,2.7.96h0Z" style="fill:#6f5394;"/><path d="m151.68,299.56c.81.24,1.62.43,2.43.6l-.54,2.04c-4.21-.72-8.57-2.17-11.95-3.34l.51-2.35c.67.24,1.39.49,2.12.75l3.04-8.59-1.63-.58.78-2.21,10.56,3.74-.78,2.21-1.61-.57-2.94,8.3h.01Zm-4.78-1.43c.7.25,1.4.45,2.13.68l3-8.47-2.1-.75-3.02,8.53h-.01Zm15.4-8.59l-6.8,19.2-2.72-.96,6.8-19.2,2.72.96Z" style="fill:#6f5394;"/><path d="m178.39,297.43c-2.08,5.88-5.72,9.99-13.57,10.92l-.64-2.67c5.64-.66,8.78-2.92,10.68-7.04l-6.27-2.22.78-2.19,9.03,3.2h0Zm6.31-.02l-6.8,19.2-2.72-.96,6.8-19.2,2.72.96Z" style="fill:#6f5394;"/><path d="m199.23,319.17l-.79,2.23-17.04-6.04.79-2.23,17.04,6.04Zm-9.31-15.54l-2.56-.9.78-2.19,14.3,5.06-.78,2.19-2.56-.9-2.04,5.76,2.49.88-.78,2.19-14.14-5.01.78-2.19,2.45.87,2.04-5.76h.02Zm6.52,2.31l-3.84-1.36-2.04,5.76,3.84,1.36,2.04-5.76Z" style="fill:#6f5394;"/><path d="m205.01,318.87c2.81.97,5.11,1.67,7.83,2.19l-.53,2.28c-3.11-.58-5.77-1.43-9.14-2.63l-1.64-.58,4.7-13.28,9.52,3.37-.79,2.23-6.83-2.42-1.11,3.13,6.05,2.14-.76,2.15-6.05-2.14-1.26,3.57h.01Zm16.46-8.43l-6.81,19.22-2.72-.96,6.81-19.23,2.72.96h0Z" style="fill:#6f5394;"/><path d="m222.96,329.8l10.69,3.78-.78,2.21-13.38-4.74,2.02-5.71,2.7.96-1.24,3.5h-.01Zm14.72-2.53l-.77,2.17-16.94-6,.77-2.17,6.27,2.22.83-2.34,2.7.95-.83,2.34,7.97,2.82h0Zm-2.64-7.14c.18-.45.35-.93.51-1.39l-10.48-3.71.78-2.19,13.16,4.66-.64,1.81c-.67,1.9-1.35,3.82-2.77,6.13l-2.59-1.13c.47-.8.86-1.5,1.19-2.21l-10.69-3.25.5-2.38,11.03,3.65h0Z" style="fill:#6f5394;"/><path d="m260.44,334.23l-.77,2.17-17-6.02.77-2.17,17,6.02Zm-4.4,6.07c-.8,2.27-3.73,2.69-7.8,1.25s-6.06-3.6-5.26-5.87c.8-2.25,3.71-2.7,7.78-1.26s6.07,3.63,5.28,5.88Zm-10.84-14.7c3.67.95,5.96.33,6.85-.84l-5.01-1.77.78-2.19,13.92,4.93-.78,2.19-5.03-1.78c-.04,1.47,1.35,3.39,4.82,4.97l-1.7,1.81c-3.42-1.59-5.27-3.75-5.6-5.93-1.65,1.48-4.43,2-8.11,1.07l-.14-2.47h0Zm8.11,13.75c.35-1-.78-1.89-3.29-2.79-2.51-.89-3.96-.91-4.31.09s.77,1.92,3.28,2.8c2.51.89,3.96.89,4.32-.11h0Z" style="fill:#6f5394;"/><path d="m271.13,340.31c-1.8-1.41-2.73-3.27-2.95-5.24-1.5,1.65-3.55,2.69-6,2.66l-.6-2.65c3.36,0,5.59-1.96,6.52-4.33l-3.7-1.31.78-2.21,10.11,3.58-.78,2.21-3.66-1.29c-.69,2.22-.18,4.93,2.34,6.91l-2.07,1.68h.01Zm4.14,6.67c-.83,2.34-3.76,2.82-7.74,1.41-4.01-1.42-5.98-3.64-5.15-5.98s3.76-2.82,7.76-1.4c3.98,1.41,5.96,3.63,5.13,5.97h0Zm-2.7-.95c.38-1.08-.72-2.06-3.17-2.93-2.47-.88-3.94-.81-4.33.27s.72,2.06,3.19,2.94c2.45.87,3.92.8,4.31-.28Zm3.78-10.94l1.64-4.63,2.7.96-4.05,11.43-2.7-.96,1.62-4.57-2.82-1,.79-2.23,2.82,1h0Z" style="fill:#6f5394;"/></g><g style="clip-path:url(#clippath-3);"><g><g style="clip-path:url(#clippath-4);"><g><path d="m746.97,211.16s-7.07,1.05-13.47-7.39l-6.57,12.22s7.29,7.19,13.51,7.55l6.53-12.38h0Z" style="fill:#c4c461;"/><path d="m701.39,329.65s-2.37,6.74-12.83,8.46l7.74,11.52s9.77-3.09,12.99-8.41l-7.9-11.56h0Z" style="fill:#fc8066;"/><path d="m750.59,447.79s4.44,8.02-2.8,19.52l17.65,2.38s5.35-12.01,2.98-19.64l-17.83-2.27h0Z" style="fill:#ffd16e;"/><path d="m600.18,286.16c9.85-5.38,20.71-8.11,31.94-8.06,2.91.01,2.92-4.52,0-4.53-12.01-.05-23.68,2.93-34.22,8.68-2.56,1.4-.28,5.31,2.29,3.91" style="fill:#ffd16e;"/><path d="m630.44,501.42c5.92,9.53,9.32,20.21,9.91,31.42.15,2.9,4.68,2.92,4.53,0-.62-12-4.18-23.49-10.53-33.7-1.54-2.47-5.46-.2-3.91,2.29" style="fill:#ffd16e;"/><path d="m595.34,362.5c5.73-.12,12.03,1.78,15.96,6.16,2.14,2.39,3.38,6.02,1.4,8.92-1.86,2.72-7.54,2.19-6.5-1.9,1.46-5.74,10.69-3.68,14.64-2.51,5.37,1.59,10.14,4.62,14.06,8.58,1.48,1.5,3.58-1.01,2.11-2.5-6.01-6.09-14.24-10.1-22.84-10.57-3.86-.21-8.07.64-10.25,4.16-1.67,2.69-1.53,6.17,1.02,8.26,2.59,2.12,6.53,2.04,9.07-.09,2.71-2.27,3.48-6.25,2.56-9.56-2.42-8.69-13.41-12.39-21.47-12.22-2.11.05-1.87,3.31.23,3.26" style="fill:#ffd16e;"/></g></g><g style="clip-path:url(#clippath-5);"><g><path d="m114.36,380.19s-.48,5.12-7.48,8.14l7.41,6.69s6.28-3.86,7.6-8.14l-7.53-6.7h0Z" style="fill:#fc8066;"/><path d="m222.29,188.43s-5.96.88-11.36-6.23l-5.54,10.3s6.15,6.06,11.39,6.37l5.51-10.44h0Z" style="fill:#c4c461;"/><path d="m235.3,482.56c-14.25,6.05-27.19,14.65-38.33,25.4-1.77,1.71.93,4.41,2.7,2.7,10.92-10.54,23.59-18.88,37.55-24.81,2.26-.96.31-4.25-1.93-3.3" style="fill:#ffd16e;"/><path d="m85.03,496.84c7.21-3.4,15.75-5.14,23.66-3.52,6.1,1.25,14.39,7.33,10.29,14.54-1.05,1.84-3.53,3.52-5.7,2.38-1.74-.92-2.38-3.52-2.08-5.3.63-3.76,4.5-6.55,7.51-8.41,6.77-4.19,14.6-5.86,22.5-5.24,2.45.19,2.44-3.63,0-3.82-10.8-.85-24.79,2.62-31.52,11.88-2.46,3.38-3.3,7.88-.96,11.57,2.27,3.58,6.67,4.48,10.26,2.3,7.98-4.85,4.68-16.32-1.88-20.65-9.8-6.48-24.13-3.7-34.01.96-2.22,1.05-.28,4.34,1.93,3.3" style="fill:#ffd16e;"/></g></g><path d="m328.07,664.49s-35.34-96.74-68.18-82.97,49.15,75.42,61.45,111.59l6.74-28.62h-.01Z" style="fill:#9ea13d;"/><path d="m325.63,668.2s-91.26-119.53-128.28-87.44,96.59,77.48,128.19,119.47l.09-32.03Z" style="fill:#c4c461;"/><path d="m333.31,670.25s-48.27-67.17-125.42-55.22c-77.15,11.95-89.27,103.52-23.82,115.63,65.45,12.11,125.15-39.26,149.02-23.21,23.87,16.05.23-37.2.23-37.2" style="fill:#dee399;"/><path d="m166.63,689.28c-.12-.02-.24-.07-.35-.15-.32-.25-.37-.72-.12-1.04.11-.14,11.55-14.28,34.86-24.25,13.67-5.85,28.7-9.15,44.68-9.82,19.94-.83,41.42,2.46,63.83,9.8.39.13.6.54.47.93s-.54.6-.93.47c-22.22-7.28-43.5-10.55-63.25-9.73-15.79.65-30.64,3.91-44.14,9.67-22.99,9.82-34.25,23.71-34.37,23.85-.17.21-.44.31-.69.27" style="fill:#9ea13d;"/><path d="m509.55,723.85s63.03-154.68,104.36-136-65.2,94.29-82.12,139.9l-22.24-3.9Z" style="fill:#dee399;"/><path d="m531.39,717.25s17.2-76.79,89.18-95.1c71.99-18.31,116.74,57.32,63.97,92.32-52.77,35-124.18,12.31-139.08,35.26-14.91,22.95-14.07-32.47-14.07-32.47" style="fill:#c4c461;"/><path d="m684.37,671.75c-.21.13-.48.15-.7.02-.15-.08-15.19-8.04-38.97-8.06-13.97-.01-28.18,2.68-42.24,7.99-17.59,6.65-35,17.45-51.73,32.11-.29.26-.73.23-.99-.07-.26-.29-.23-.73.07-.99,16.88-14.78,34.45-25.68,52.22-32.38,14.23-5.37,28.62-8.08,42.77-8.06,24.12.04,39.4,8.15,39.55,8.23.34.18.47.61.28.95-.06.11-.15.2-.25.26" style="fill:#9ea13d;"/><g style="clip-path:url(#clippath-6);"><path d="m684.33,788.39c-8.48,6.91-22.64,12.05-36.4,12.51-10.69.36-22.36-.16-34.98-1.74-19.2-2.41-36.91-6.12-53.69-9.74-14.72-3.18-28.73-6.28-42.38-8.35-21.13-3.21-41.43-3.95-62.29,1.3-40.39,10.17-71.12,14.43-95.79,15.33-61.61,2.27-85.52-16.33-128.05-15.91-8.02.08-15.22-1.31-21.32-3.76-30.1-12.03-54.05-59.02,21.76-63.04,1.09-.06,2.13-.5,3.22-.72,20.34-4.27,46.94-3.84,118.35-3.34,6.93.05,14.28.1,22.08.14,18.22.11,38.94.19,62.59.2,16.37,0,31.83-.02,46.44-.06,5.68-.02,11.23-.04,16.66-.06,3.8-.02,7.55-.03,11.22-.05,3.15-.02,6.25-.03,9.31-.05,5.97-.03,11.78-.06,17.43-.09,4.4-.02,8.7-.04,12.9-.07,14.66-.08,28.73,3.59,40.55-.17,41.8-13.32,127.07,49.42,92.39,77.67" style="fill:#ebedf2;"/></g><path d="m348.5,561.14c12.7-17.35,22.37-32.1,22.37-32.1l6.52-69.41s-34.85,10.14-50.54,27.61c-3.18,3.54-48.27,64.6-36.68,128.83l58.34-54.93h0Z" style="fill:#fff;"/><path d="m289.41,589.98h0c-.52,0-.93-.42-.93-.94.09-16.45,4.33-36.54,11.92-56.58,7.17-18.93,16.56-35.64,25.76-45.84,16.51-18.31,46.43-25.15,46.73-25.22.28-.06.58,0,.8.19.22.18.35.46.34.75l-2.21,66.73c0,.17-.06.34-.15.48-.1.15-9.83,14.97-22.4,32.14-.3.42-.89.51-1.31.2-.42-.3-.51-.89-.2-1.31,11.71-16,20.95-29.95,22.2-31.84l2.16-65.23c-5.66,1.46-30.31,8.53-44.57,24.35-9.05,10.04-18.31,26.53-25.4,45.25-7.51,19.84-11.7,39.7-11.8,55.93,0,.51-.42.93-.93.93" style="fill:#30303d;"/><path d="m315.7,626.99s66.25,44.88,63.79,59.74c-.7,4.23-22.63.16-22.63.16l-41.16-59.9h0Z" style="fill:#ff9454;"/><path d="m348.13,513.02c-.14,0-.29-.03-.42-.1-.46-.23-.65-.79-.41-1.26.23-.46,5.76-11.27,14.62-18.33,8.21-6.54,20.25-12.14,20.37-12.19.47-.22,1.02-.01,1.24.46s.01,1.02-.46,1.24c-.12.06-11.95,5.56-19.99,11.96-8.54,6.8-14.06,17.6-14.11,17.71-.16.33-.49.51-.83.51" style="fill:#30303d;"/><path d="m420.78,549.76s.63,50.78-40.07,63.59c-5.42,1.7-13.59,6.73-14.68,12.3,0,0-3.33-1.67-17.64,118.15h-89.28c4.45-13.75-12.08-50.16-7.55-63.37,23.31-68.01,38.11-102.79,38.11-102.79l131.11-27.89h0Z" style="fill:#fff;"/><path d="m417.04,573.52h0Zm-68.55,173.28h-.11c-.51-.06-.88-.53-.81-1.04,2.78-22.69,5.32-42.28,7.75-59.88l.11-.8c.04-.32.09-.63.13-.95,1.17-8.42,2.3-16.29,3.38-23.4v-.03c4.15-27.45,6.01-34.65,6.17-35.25.88-4.38,5.46-7.86,8.11-9.55,1.06-.68,2.16-1.29,3.28-1.84.34-.17.68-.33,1.02-.48.22-.09.42-.18.61-.26.03-.01.05-.02.07-.03.58-.25,1.15-.46,1.7-.65.14-.05.29-.1.44-.15h0s.04-.02.08-.03c0,0-.02,0-.03.01.03-.01.06-.02.09-.03.16-.05.32-.1.48-.15.02,0,.05-.02.07-.03,2.69-.88,5.28-1.96,7.69-3.21,1.2-.62,2.39-1.3,3.54-2.03,2.83-1.77,5.48-3.85,7.88-6.17l.06-.06c7.18-6.92,12.54-16.19,15.93-27.53,0-.01,0-.03.01-.04,1.22-4.09,2.17-8.4,2.81-12.8.92-6.3.88-10.6.88-10.65,0-.52.41-.94.92-.94.51-.02.94.41.95.92,0,.18.04,4.48-.9,10.94-.66,4.51-1.62,8.91-2.88,13.1,0,.01,0,.03-.01.04-3.47,11.61-8.97,21.11-16.35,28.25l-.06.06c-2.51,2.43-5.29,4.6-8.25,6.46-1.19.75-2.43,1.46-3.68,2.11-2.48,1.29-5.14,2.4-7.9,3.31-.02,0-.05.02-.07.03-.19.06-.37.12-.55.18-.02,0-.03.01-.05.02-.02,0-.03.01-.05.02l-.05.02c-.13.04-.26.08-.39.13-.53.18-1.07.39-1.62.62-.02,0-.04.02-.07.03-.19.08-.37.16-.56.24-.31.14-.63.29-.95.45-1.06.52-2.1,1.1-3.1,1.74-4.1,2.61-6.75,5.66-7.29,8.37,0,.02,0,.05-.02.07-.02.07-1.9,7.08-6.13,35.04v.03c-1.07,7.11-2.21,14.98-3.38,23.4-.04.31-.09.63-.13.95l-.11.8c-2.43,17.6-4.97,37.17-7.75,59.85-.06.47-.46.82-.93.82" style="fill:#30303d;"/><path d="m254.5,684.8c-.1,0-.2-.02-.31-.05-.49-.17-.75-.7-.58-1.19,5.11-14.74,8.61-27.15,11.69-38.1,2.99-10.64,5.82-20.68,9.58-30.89,1.45-3.93,2.81-7.61,4.07-11.01,3.25-8.76,6.39-17.13,9.32-24.89v-.02c.33-.88.5-1.33.5-1.33.18-.48.72-.72,1.21-.54.48.18.72.72.54,1.21,0,0-.17.44-.49,1.3,0,.03-.02.06-.03.09-2.93,7.74-6.06,16.1-9.31,24.85-1.26,3.4-2.62,7.08-4.07,11.01-3.73,10.14-6.55,20.15-9.53,30.75-3.09,10.97-6.59,23.41-11.72,38.2-.13.39-.5.63-.88.63" style="fill:#30303d;"/><path d="m356.49,684.25h0c-.64-.22-1.28-.45-1.93-.7h0c-5.15-1.91-10.61-4.43-15.87-7.61-29.61-17.85-45.41-45.61-53.18-61.05-2.93-5.81-4.72-9.88-5.68-11.01-.5-.59-2.58,3.47-5.83,11.01-2.99,6.92-21.27,53.12-39.43,99.33-8.98,22.83-17.92,45.66-24.98,63.77,6.11,2.44,13.31,3.83,21.32,3.76,42.53-.42,66.43,18.18,128.05,15.91l16.04-86.63,4.47-24.17h0v-.08s.01-.05.01-.05c-1.44,2.33-11.2,1.6-22.99-2.48" style="fill:#30303d;"/><path d="m344.61,509.72h0m10.51,8.82c-.33,0-.66-.18-.82-.49-2.45-4.59-7.24-5.85-9.54-6.46-.92-.24-1.31-.34-1.58-.68-.33-.4-.27-.99.12-1.32.34-.28.81-.28,1.15-.03.14.05.48.14.79.22,2.36.62,7.88,2.07,10.72,7.38.24.45.07,1.02-.38,1.26-.14.07-.29.11-.44.11" style="fill:#30303d;"/><path d="m384.91,610.31l121.56-8.28c6.57-.45,11.48-6.61,10.96-13.75l-17.19-237.39c-.52-7.15-6.26-12.58-12.84-12.13l-121.56,8.28c-6.57.45-11.48,6.61-10.96,13.75l17.19,237.39c.52,7.15,6.26,12.58,12.84,12.13" style="fill:#30303d;"/><path d="m391.34,609.66l123.16-8.39c6.13-.42,10.7-6.16,10.22-12.83l-17.28-238.72c-.48-6.67-5.84-11.73-11.97-11.32l-123.16,8.39c-6.13.42-10.7,6.16-10.22,12.83l17.28,238.71c.48,6.67,5.84,11.73,11.97,11.32" style="fill:#fff;"/><path d="m371.51,365.05l15.76,217.7c.23,3.18,2.79,5.6,5.68,5.4l116.86-7.96c1.32-.09,2.54-.71,3.44-1.75,1.01-1.16,1.52-2.76,1.41-4.37l-15.76-217.7c-.23-3.18-2.78-5.6-5.68-5.4l-116.86,7.96c-1.32.09-2.54.71-3.44,1.75-1.01,1.16-1.52,2.76-1.41,4.37m21.11,223.89c-3.16,0-5.87-2.67-6.12-6.13l-15.76-217.7c-.13-1.82.45-3.61,1.59-4.93,1.04-1.19,2.45-1.91,3.97-2.01l116.86-7.96c3.32-.23,6.24,2.52,6.5,6.11l15.76,217.7c.13,1.82-.45,3.61-1.59,4.93-1.04,1.19-2.45,1.91-3.97,2.01l-116.86,7.96c-.13,0-.26.01-.38.01" style="fill:#231815;"/><g style="opacity:.2;"><g style="clip-path:url(#clippath-7);"><path d="m403.24,356.71l100.17,56.58-4.12-56.95c-.25-3.39-2.97-5.97-6.09-5.76l-89.95,6.13h0Z" style="fill:#78abc7;"/></g></g><g style="opacity:.2;"><g style="clip-path:url(#clippath-8);"><path d="m380.7,497.33l6.19,85.45c.25,3.39,2.97,5.97,6.09,5.76l116.86-7.96c3.12-.21,5.45-3.14,5.2-6.53l-.55-7.58-133.79-69.14h0Z" style="fill:#78abc7;"/></g></g><g style="opacity:.2;"><g style="clip-path:url(#clippath-9);"><path d="m371.13,365.07l1.86,25.66,135.4,91.34-3.33-46.03-125.86-77.68-2.86.19c-3.12.21-5.45,3.13-5.2,6.53" style="fill:#78abc7;"/></g></g><path d="m482.62,528.35l-62.84,4.45c-8.65.61-16.16-5.9-16.78-14.56-.61-8.65,5.9-16.16,14.56-16.78l62.84-4.45c8.65-.61,16.16,5.9,16.78,14.56.61,8.65-5.9,16.16-14.56,16.78" style="fill:#ff9454;"/><path d="m439.46,354.17c-.1-1.33-1.16-2.34-2.39-2.26-1.22.08-2.13,1.23-2.04,2.56.1,1.33,1.16,2.34,2.39,2.26,1.22-.08,2.13-1.23,2.04-2.56" style="fill:#231815;"/><path d="m393.94,392.85s-4.81,2.09-1.59-13.88l10.75,6.66-9.16,7.22Z" style="fill:#231815;"/><path d="m367.7,307.77l-14.56,4.49c2.02,8.6,5.76,21.75,11.56,33.85,12.61,26.3,33.73,45.55,61.08,55.65l10.22-27.65c-48.32-21.23-68.29-66.2-68.3-66.33" style="fill:#fff;"/><path d="m368.31,309.06c-.37-.76-15.92,2.83-14.88,5.07.23.49.41,1,.53,1.53,2.03,8.45,5.12,18.72,10.74,30.45,12.61,26.3,33.73,45.54,61.08,55.65l10.21-27.65c-43.47-19.1-64-57.51-67.68-65.04" style="fill:#fff;"/><path d="m364.4,346.25c4.16,8.69,9.26,16.62,15.2,23.71,7.22,8.61,15.69,15.96,25.26,21.94,4.37,2.74,8.98,5.18,13.8,7.32,2.28,1.02,4.62,1.97,7,2.85.03.01.06.02.09.02.06,0,.11,0,.16-.03.08-.04.14-.11.18-.19l3.43-9.28.26-.71,3.16-8.56,3.36-9.1c.06-.17-.02-.35-.18-.42-4.04-1.78-7.89-3.72-11.54-5.79-.23-.13-.46-.26-.69-.4-4.58-2.64-8.85-5.47-12.82-8.42-2.68-2-5.24-4.05-7.65-6.13-2.51-2.16-4.87-4.35-7.09-6.53-.9-.88-1.77-1.76-2.61-2.64-14.99-15.52-22.95-30.56-25.1-34.96-.09-.17-.18-.29-.28-.51l-.66.13c.14.2.23.47.33.68,1.84,3.76,7.89,15.23,18.9,28.16,1.96,2.3,4.08,4.65,6.35,7.01,1.17,1.22,2.39,2.43,3.65,3.65,2.76,2.66,5.73,5.31,8.91,7.91,1.57,1.28,3.19,2.55,4.87,3.8,4.06,3.01,8.42,5.91,13.11,8.59.23.14.46.27.7.4,3.51,1.98,7.2,3.85,11.06,5.56l-3.27,8.86-3.08,8.33-.27.72-3.37,9.13c-2.41-.89-4.77-1.86-7.07-2.91-4.68-2.1-9.15-4.49-13.4-7.15-9.61-6.02-18.09-13.44-25.3-22.12-5.77-6.95-10.73-14.69-14.8-23.18-4.68-9.78-8.09-19.43-10.71-30.38-.13-.56-.32-1.09-.56-1.59-.15-.32-.42-1.02-.67-1.56l-.76.23c.28.58.66,1.28.82,1.62.22.46.39.95.51,1.46,2.64,11,6.06,20.7,10.76,30.51" style="fill:#231815;"/><path d="m335.48,303.07c2.07.15,7.41.23,9.18-.23-.2-.44-.41-.91-.65-1.43-1.02-2.24-7.11-3.65-7.36-5.01-.55-2.99,6.99.02,12.19-.37,3.54-.27,7.88,1.72,9.52,2.74l5.88,4.48,3.46,4.53-6.27,4.41c-.35.43-3.72-1.01-4.32-.84-3.53,1-7.1,1.96-7.1,1.96-1.67.56-6.82-.02-7.73-.88-.39,0-.75-.09-1.2-.22-.64-.19-2.6-1.55-3.11-2.06-.25.02-2.5-7.08-2.5-7.08" style="fill:#fff;"/><path d="m351.39,313.19c1.62-.49,3.35-1.32,5.16-2.59.41-.29.7-.68.96-1.03.09-.12.18-.25.27-.36.1-.13.09-.31-.04-.42-.13-.1-.31-.09-.42.04-.1.12-.2.25-.29.38-.24.32-.49.66-.82.9-4.26,3-8.56,3.85-12.76,2.51-2.94-.93-4.79-2.65-5.02-2.88-1.65-2.83-3.23-6.15-3.01-6.7,0,0,.03,0,.07.02,4.1,1.13,7.5.41,9.99-.35.16-.05.25-.21.2-.37s-.21-.25-.37-.2c-2.42.73-5.7,1.44-9.66.35-.4-.11-.6.06-.69.17-.7.91,1.85,5.49,2.98,7.42.01.02.03.04.05.06.07.07,5.54,5.45,13.42,3.05" style="fill:#231815;"/><path d="m368.41,308.56c-1.72-3.08-9.52-13-19.88-12.96-2,0-4.37-.21-6.46-.54-2.74-.42-4.91-.75-5.71.08-.28.29-.38.68-.28,1.18.13.69,1.19,1.29,3.05,2.28,1.95,1.04,4.38,2.33,5.03,3.86.06.15.24.22.39.16.15-.07.22-.24.16-.39-.74-1.72-3.27-3.06-5.3-4.15-1.25-.66-2.66-1.42-2.74-1.86-.08-.44.08-.6.13-.66.59-.61,2.83-.27,5.2.1,2.13.33,4.56.88,6.6.54,4.46-.73,13.71,3.83,19.22,12.55l.61-.19h-.02Z" style="fill:#231815;"/><path d="m347.31,305.86c.06-.02.12-.06.16-.11,2.91-4.15,7.43-3.64,7.48-3.64.16.02.31-.09.33-.26.02-.16-.09-.31-.26-.33-.05,0-4.91-.57-8.04,3.88-.09.14-.06.32.07.42.08.05.17.07.26.04" style="fill:#231815;"/><path d="m436.14,318.91s-16.89-.23-19.58,12.2c-1.84,8.49.8,15.22.8,15.22,0,0-8.76.97-13.28,10.93s4.44,14.91,4.44,14.91c0,0-13.76,9.42-2.45,14.45s68.89-11.9,70.84-22.51c1.95-10.61-12.43-18.37-12.43-18.37,0,0,3.36-43.46-28.35-26.84" style="fill:#231815;"/><path d="m498.25,290.81l15.23.06c.57,8.82.82,22.49-1.21,35.74-4.4,28.83-19.01,53.39-42.24,71.02l-17.82-23.48c40.05-34.37,46.06-83.22,46.03-83.34" style="fill:#fff;"/><path d="m498.04,292.23c.14-.84,16.06-1.92,15.71.52-.08.54-.1,1.08-.06,1.62.52,8.68.55,19.4-1.41,32.25-4.4,28.83-19.01,53.39-42.24,71.02l-17.82-23.48c36.03-30.92,44.48-73.65,45.82-81.92" style="fill:#fff;"/><path d="m514.02,294.34c-.03-.52-.01-1.04.06-1.55.05-.37.22-1.15.31-1.79h-.79c-.08.59-.14,1.34-.19,1.69-.08.55-.1,1.12-.07,1.69.68,11.24.23,21.47-1.4,32.19-1.42,9.3-3.91,18.16-7.41,26.49-4.38,10.41-10.33,19.97-17.77,28.53-3.29,3.79-6.87,7.37-10.73,10.74-1.91,1.67-3.88,3.28-5.92,4.84l-5.88-7.76-.47-.61-5.37-7.08-5.7-7.52c3.2-2.76,6.18-5.62,8.97-8.54.19-.19.37-.39.55-.59,3.7-3.93,7.04-7.97,10.04-12.04,1.24-1.68,2.43-3.36,3.56-5.05,2.29-3.41,4.36-6.81,6.22-10.16.85-1.53,1.66-3.05,2.43-4.56,1.49-2.92,2.83-5.78,4.04-8.56,6.77-15.57,9.22-28.31,9.88-32.44.04-.23.05-.52.12-.75l-.67.07c-.03.24-.08.38-.11.57-.78,4.84-4.02,21.54-13.84,40.76-.55,1.09-1.13,2.18-1.73,3.29-1.49,2.74-3.11,5.52-4.88,8.31-1.71,2.69-3.55,5.4-5.54,8.09-2.94,3.98-6.2,7.94-9.81,11.79-.18.19-.37.39-.55.58-2.89,3.04-6,6.03-9.35,8.9-.14.12-.16.32-.05.46l5.87,7.73,5.52,7.27.46.6,5.98,7.88c.06.07.13.12.22.13.05,0,.11,0,.17-.02.03-.01.06-.03.08-.05,2.02-1.53,3.98-3.12,5.87-4.76,3.99-3.45,7.68-7.13,11.07-11.02,7.42-8.51,13.37-18.01,17.78-28.35,3.62-8.51,6.19-17.57,7.65-27.1,1.64-10.76,2.09-21.04,1.41-32.33" style="fill:#231815;"/><path d="m500.05,466.82c.92,6.82-22.96,15.68-53.33,19.79-30.38,4.11-55.75,1.91-56.67-4.91-.04-.33-.03-.67.04-1.01.27-.58.54-1.15.81-1.73,7.97-16.86,16.36-31.13,24.55-39.23h.01c.78.38,34.54,16.52,67.43-2.8,0,0,7.03,9.7,16.46,28.34.21.41.42.83.63,1.26.03.1.05.2.06.3" style="fill:#231815;"/><path d="m414.07,365.71s40.94,17.58,68.07-29.49c0,0-6.04,37.41-4.18,41.25,12.73,26.29,9.4,26.11,6.46,33.2,0,0,3.09,22.27-1.51,26.98-9.06,9.26-47.7,16.86-67.45,2.8,0,0-4.64-15.44-3.8-35.72,0,0-9.51-30.12,2.42-39.03" style="fill:#ffd16e;"/><path d="m398.23,348.36s22.41,21.85,39.6,22.05c1.09.01,2.18-.02,3.26-.09,26.75-1.65-29.49,42.83-29.49,42.83,0,0-4.48-10-18.82-19.63,0,0,2.13-.16,3.67-3.61,1.89-4.22,6.79-13.74,1.78-41.56" style="fill:#ffd16e;"/><path d="m482.14,336.22s17.22,7.97,17.68,33.82l-19.96,27.13-6.58-40.56,8.86-20.38h0Z" style="fill:#ffd16e;"/><path d="m475.24,415.01c2.05-.28,3.72-.85,4.99-1.45,3.02-1.42,4.49-3.25,4.55-3.33l-.73-.58s-1.43,1.76-4.27,3.09c-2.62,1.22-7.03,2.33-13.17.67l-.24.89c3.48.95,6.44,1.03,8.87.7" style="fill:#fff;"/><path d="m442.93,420.12c10.16-1.37,11.1-10.47,11.11-10.57l-.92-.08c-.03.37-.95,8.97-11.21,9.83l.08.92c.32-.03.64-.06.94-.1" style="fill:#fff;"/><path d="m460.38,360.55s5.41,21.82-4.44,27.34c-9.84,5.52-23-10.67-26.42-18.94,0,0,20.73-1.51,30.86-8.4" style="fill:#fff;"/><path d="m461.42,375.26c-.25,4.37-1.32,8.66-4.11,11.19-.17.16-.35.31-.54.45-.31.24-.65.47-1.01.67-2.14,1.2-4.58,1.4-7.25.58-.16-.05-.33-.1-.5-.16-2.75-.95-5.53-2.89-8.08-5.27-2.13-1.98-4.09-4.26-5.76-6.54-.19-.26-.38-.52-.56-.78-.5-.72-.98-1.43-1.41-2.13-.17-.27-.33-.54-.49-.8-.56-.95-1.05-1.86-1.45-2.72-.08-.16-.15-.32-.21-.47.63-.06,1.83-.17,3.4-.37,1.43-.18,3.17-.42,5.1-.75.22-.03.43-.07.66-.11,2.77-.48,5.88-1.13,8.97-1.98.94-.26,1.88-.54,2.8-.83.22-.07.44-.14.67-.22,3.12-1.04,6.07-2.32,8.49-3.87.08.36.19.9.32,1.59.04.22.08.46.13.72.49,2.81,1.08,7.35.82,11.81m-.15-12.25c-.05-.25-.09-.5-.14-.72-.22-1.14-.38-1.82-.39-1.84,0-.03-.02-.07-.04-.1-.04-.07-.11-.13-.18-.16-.11-.04-.24-.03-.34.04-2.4,1.63-5.42,2.96-8.61,4.04-.24.08-.47.16-.71.23-3.94,1.27-8.1,2.17-11.7,2.8-.25.04-.49.08-.73.12-5.07.85-8.84,1.13-8.93,1.14-.12.01-.23.08-.29.17-.03.06-.05.12-.05.18,0,.05,0,.1.03.15.07.17.14.34.22.51.37.83.82,1.71,1.33,2.62.15.26.31.53.47.8.67,1.12,1.44,2.28,2.26,3.42.18.26.37.51.56.77.76,1.01,1.56,2,2.38,2.94.77.88,1.68,1.84,2.68,2.8,2.42,2.31,5.43,4.6,8.68,5.73.15.05.3.1.46.15,1.64.51,3.2.66,4.67.46,1.13-.15,2.21-.52,3.23-1.09.33-.19.65-.39.95-.62.19-.13.37-.28.55-.43,2.73-2.37,4.28-6.53,4.56-12.23.05-.89.06-1.82.04-2.79-.07-3.57-.56-6.93-.96-9.13m-10.34,2.07c-.93.36-1.84.69-2.74.99.94-.26,1.88-.54,2.8-.83-.03-.04-.06-.1-.07-.15" style="fill:#231815;"/><path d="m445.66,370.78h0c3.46-.47,5.91-3.68,5.44-7.15l-.98-7.25c-.47-3.46-3.68-5.91-7.15-5.44-3.46.47-5.91,3.68-5.44,7.15l.98,7.25c.47,3.46,3.68,5.91,7.15,5.44" style="fill:#fff;"/><path d="m438.92,368.31c.2-.03.34-.21.32-.41l-1.52-11.25c-.34-2.5,1.42-4.82,3.93-5.15l2.78-.38c2.5-.34,4.82,1.42,5.15,3.93l1.36,10.03c.03.2.21.34.41.32.2-.03.34-.21.32-.41l-1.36-10.03c-.39-2.91-3.08-4.95-5.98-4.56l-2.78.38c-2.91.39-4.95,3.08-4.56,5.98l1.52,11.25c.03.2.21.34.41.32" style="fill:#231815;"/><path d="m432.87,350.64c5.62,8.4,15.12,11.9,21.22,7.81s5.4-15.6.87-22.62c-5.48-8.49-15.12-11.9-21.22-7.81s-6.49,14.21-.87,22.62" style="fill:#fff;"/><path d="m450.91,359.46c-.24.06-.48.11-.72.16-1.39.25-2.89.22-4.46-.09-2.34-.46-4.68-1.54-6.83-3.11-.41-.3-.81-.61-1.2-.93-.22-.18-.43-.37-.65-.56-1.44-1.29-2.75-2.81-3.88-4.5-.21-.31-.4-.62-.59-.93-4.87-8.02-4.34-17.35,1.36-21.18,1.25-.83,2.66-1.36,4.19-1.56,1.32-.18,2.72-.12,4.18.18,1.54.32,3.06.9,4.53,1.7,3.01,1.64,5.76,4.21,7.8,7.39,5.48,8.49,4.09,18.86-.77,22.11-.91.61-1.9,1.05-2.97,1.32m4.35-23.83c-2.18-3.38-5.15-6.11-8.38-7.8-1.44-.75-2.93-1.3-4.43-1.61-3.35-.69-6.44-.18-8.92,1.49-6.01,4.03-6.65,13.74-1.64,22.08.21.35.43.7.66,1.05,1.26,1.88,2.75,3.56,4.38,4.97.24.22.5.42.75.62,2.45,1.94,5.18,3.29,7.9,3.83,1.48.29,2.91.35,4.25.17.15-.02.3-.04.45-.07.24-.04.48-.1.72-.15,1.18-.29,2.28-.78,3.28-1.45,6.25-4.19,5.66-15.87.98-23.12" style="fill:#231815;"/><path d="m445.22,340.15c.08-.04.14-.11.16-.21.03-.16-.07-.31-.23-.35-.09-.02-2.23-.66-3.59,1.54-.09.14-.05.32.09.41s.29.03.41-.09c1.16-1.15,2.9-1.3,2.98-1.29.06.01.13,0,.18-.02" style="fill:#231815;"/><path d="m453.65,336.77c.08-.04.14-.11.16-.21.03-.16-.07-.31-.23-.35-.09-.02-2.23-.66-3.59,1.54-.09.14-.05.32.09.41s.29.03.41-.09c1.16-1.15,2.9-1.3,2.98-1.29.07.01.13,0,.19-.02" style="fill:#231815;"/><path d="m443.54,343.77c.11.7.61,1.2,1.11,1.12.5-.08.82-.71.71-1.4-.11-.7-.61-1.2-1.11-1.12-.5.08-.82.71-.71,1.4" style="fill:#231815;"/><path d="m451.67,341c.11.7.61,1.2,1.11,1.12.5-.08.82-.71.71-1.4-.11-.7-.61-1.2-1.11-1.12-.5.08-.82.71-.71,1.4" style="fill:#231815;"/><path d="m450.47,347.38h.04c1.47-.45,1.92-1.7,1.93-1.76.05-.14-.02-.29-.16-.34-.14-.05-.29.02-.34.16-.02.05-.39,1.06-1.59,1.43-.14.04-.22.19-.17.33.04.12.16.2.29.18" style="fill:#231815;"/><path d="m446.56,322.67s3.66,17.98-13.22,26.47c-16.88,8.48-3.28-24.24-3.28-24.24l16.5-2.23Z" style="fill:#231815;"/><path d="m447.92,351.78c.27.38.69.74,1.28,1,1.39.59,5.08.08,5.81-2.64.1-.37.15-.78.13-1.24-.09-1.71-1.3-1.47-2.53-.4-.76.67-1.77,1.24-3.42,1.25-1.72,0-1.97,1.04-1.27,2.03" style="fill:#231815;"/><path d="m447.92,351.78c.27.38.69.74,1.28,1,1.39.59,5.08.08,5.81-2.64-.97-.23-2.49-.19-3.73.83,0,0-2.6-.18-3.36.81" style="fill:#ff9454;"/><path d="m435.43,350.59c1.68.62,3.41.13,3.86-1.1s-.86-2.82-2.24-3.35c-1.67-.65-3.41-.13-3.86,1.1s.55,2.73,2.24,3.35" style="fill:#fff;"/><path d="m436.75,350.87l.05-.46c-1.53-.17-2.62-.78-3.05-1.7-.32-.67-.26-1.45.16-2.09.89-1.37,3.63.02,3.66.04l.21-.41c-.13-.07-3.14-1.59-4.26.12-.51.77-.58,1.72-.19,2.54.51,1.07,1.72,1.77,3.42,1.96" style="fill:#231815;"/><path d="m452.34,351.32s.06-.03.08-.06c.02-.05-.01-.1-.06-.11-.12-.04-3.09-.94-4.5.58-.03.04-.03.1,0,.13.04.03.1.03.13,0,1.34-1.44,4.28-.54,4.31-.53h.04" style="fill:#231815;"/><path d="m524.52,278.28c-1.94.74-3.84,1.03-5.66,1.1.07-.48.13-.99.2-1.56.32-2.44,5.74-5.56,5.58-6.94-.35-3.02-6.68,2.06-11.77,3.19-3.46.77-8.8,6.5-10.07,7.96l-3.43,5.88c-.88,3.61-.72,4.67-.12,4.83,6.08,1.6,14.23-1.88,14.23-1.88,1.11-.44,1.95.39,5.28-.27.37-.11,4.5-2.36,4.89-2.61.56-.36,3.51-1.31,3.84-1.95.24-.05-2.97-7.76-2.97-7.76" style="fill:#fff;"/><path d="m515.43,291.25c-1.7,0-3.59-.29-5.69-.98-.48-.16-.87-.45-1.22-.71-.12-.09-.25-.18-.37-.26-.14-.09-.17-.28-.08-.41.09-.14.28-.17.41-.08.13.09.26.18.39.28.32.24.66.49,1.05.62,4.95,1.63,9.3,1.19,12.94-1.31,2.54-1.75,3.81-3.93,3.97-4.22.76-3.19,1.3-6.83.93-7.29,0,0-.03.02-.06.04-3.6,2.28-7.05,2.57-9.66,2.57h0c-.16,0-.3-.13-.3-.3,0-.16.13-.3.3-.3,2.53,0,5.88-.28,9.34-2.48.35-.22.6-.11.71-.03.93.66-.17,5.79-.69,7.96,0,.02-.01.05-.03.07-.04.08-3.71,6.82-11.95,6.82" style="fill:#231815;"/><path d="m497.79,291.77c.75-3.45,5.33-15.21,15.24-18.18,1.92-.57,4.12-1.48,6.03-2.39,2.5-1.2,4.48-2.15,5.49-1.59.35.19.56.55.62,1.05.08.7-.76,1.58-2.25,3.07-1.56,1.56-3.51,3.5-3.69,5.15-.02.16-.17.28-.33.26-.16-.02-.28-.17-.26-.33.21-1.86,2.23-3.88,3.86-5.51,1-1,2.14-2.13,2.08-2.58-.05-.45-.25-.56-.31-.59-.74-.41-2.78.57-4.94,1.6-1.94.93-4.11,2.17-6.16,2.44-4.48.6-12,7.65-14.73,17.6h-.65Z" style="fill:#231815;"/><path d="m517.2,283.05c-.06,0-.13-.02-.18-.06-4-3.13-8.17-1.32-8.21-1.3-.15.07-.33,0-.39-.15-.07-.15,0-.33.15-.39.05-.02,4.53-1.98,8.82,1.38.13.1.15.29.05.42-.06.07-.15.11-.23.11" style="fill:#231815;"/><path d="m524.75,282.41s3.77-.91,6.54-5.68c2.78-4.77,4.9-2.97,2.79,1.53-.97,2.05-3.7,6.32-6.97,6.03-3.26-.28-2.37-1.88-2.37-1.88" style="fill:#fff;"/><path d="m524.97,282.66c-.04.12-.07.32.04.53.23.42.99.71,2.13.81,2.97.26,5.59-3.56,6.67-5.86,1.07-2.27.94-3.66.51-3.88-.38-.2-1.44.34-2.77,2.63-2.53,4.35-5.84,5.55-6.58,5.78m2.45,1.94c-.11,0-.22,0-.33-.01-1.4-.12-2.28-.5-2.61-1.13-.32-.6,0-1.17.01-1.19.04-.07.11-.12.19-.14.04,0,3.68-.95,6.36-5.54,1.32-2.27,2.65-3.34,3.56-2.86.93.49.83,2.36-.25,4.66-1.11,2.36-3.78,6.22-6.93,6.22" style="fill:#231815;"/><path d="m523.75,285.46s4.72-2.75,5.06-8.26,3.7-4.64,3.83.32c.06,2.27-1.4,7.33-4.44,8.54-3.04,1.21-4.45-.61-4.45-.61" style="fill:#fff;"/><path d="m523.74,285.46h0Zm.47.05c.49.41,1.73,1.13,3.87.28,2.86-1.14,4.31-6.05,4.26-8.26-.06-2.37-.9-3.8-1.68-3.81-.67,0-1.41,1.07-1.56,3.5-.3,4.82-3.79,7.55-4.89,8.29m1.98,1.27c-1.78,0-2.64-1.08-2.69-1.14-.05-.07-.07-.15-.06-.24.02-.08.07-.16.14-.2.05-.03,4.59-2.74,4.91-8.02.18-2.99,1.22-4.06,2.14-4.06h.02c1.04.02,2.19,1.4,2.26,4.39.06,2.41-1.47,7.57-4.63,8.83-.81.32-1.5.44-2.1.44" style="fill:#231815;"/><path d="m520.36,287.11s5.24-2.49,4.49-7.96,2.72-5.28,3.82-.43c.5,2.21.13,7.76-3.17,9.06-3.31,1.3-5.14-.66-5.14-.66" style="fill:#fff;"/><path d="m520.36,287.11h0Zm.52.05c.61.45,2.15,1.26,4.51.33,3.21-1.26,3.44-6.74,2.99-8.72-.52-2.31-1.63-3.55-2.4-3.41-.66.12-1.17,1.32-.84,3.74.65,4.72-3.04,7.32-4.27,8.06m2.42,1.35c-2,0-3.09-1.14-3.15-1.21-.06-.07-.09-.17-.07-.26s.08-.17.16-.21c.21-.1,5.03-2.47,4.32-7.65-.41-2.99.42-4.24,1.32-4.4,1.01-.19,2.42.94,3.08,3.86.25,1.12.3,3.1-.16,5.01-.38,1.58-1.25,3.63-3.19,4.39-.87.34-1.64.47-2.31.47" style="fill:#231815;"/><path d="m518.07,286.09c1.3-.25,2.82-.78,3.59-2.88,1.73-4.7,4.07-4.52,3.98-1.4-.1,3.33-2.05,6.98-5.1,8.2l-2.47-3.91h0Z" style="fill:#fff;"/><path d="m520.54,290.29c-.12,0-.23-.07-.28-.19-.06-.15.01-.33.17-.39,3.11-1.24,4.82-4.93,4.91-7.93.03-1.08-.25-1.84-.72-1.93-.63-.12-1.74.9-2.68,3.45-.82,2.24-2.47,2.82-3.81,3.07-.16.03-.32-.08-.35-.24-.03-.16.08-.32.24-.35,1.26-.24,2.65-.74,3.37-2.69.95-2.58,2.23-4.04,3.35-3.83.8.15,1.25,1.1,1.2,2.53-.1,3.2-1.94,7.13-5.29,8.47-.04.01-.07.02-.11.02" style="fill:#231815;"/><path d="m524.65,282.41s3.77-.91,6.54-5.68c2.78-4.77,4.9-2.97,2.79,1.53-.97,2.05-3.7,6.32-6.97,6.03-3.26-.28-2.37-1.88-2.37-1.88" style="fill:#fff;"/><path d="m524.87,282.66c-.04.12-.07.32.04.53.23.42.99.71,2.13.81,2.97.26,5.59-3.56,6.67-5.86,1.07-2.27.94-3.66.51-3.88-.38-.2-1.44.34-2.77,2.63-2.53,4.35-5.84,5.55-6.58,5.78m2.45,1.94c-.11,0-.22,0-.33-.01-1.4-.12-2.28-.5-2.61-1.13-.32-.6,0-1.17.01-1.19.04-.07.11-.12.19-.14.04,0,3.68-.95,6.36-5.54,1.32-2.27,2.65-3.34,3.56-2.86.93.49.83,2.36-.25,4.66-1.11,2.36-3.78,6.22-6.93,6.22" style="fill:#231815;"/><path d="m523.65,285.46s4.72-2.75,5.06-8.26,3.7-4.64,3.83.32c.06,2.27-1.4,7.33-4.44,8.54-3.04,1.21-4.45-.61-4.45-.61" style="fill:#fff;"/><path d="m523.65,285.46h0Zm.47.05c.49.41,1.73,1.13,3.87.28,2.86-1.14,4.31-6.05,4.26-8.26-.06-2.37-.9-3.8-1.68-3.81-.67,0-1.41,1.07-1.56,3.5-.3,4.82-3.79,7.55-4.89,8.29m1.98,1.27c-1.78,0-2.64-1.08-2.69-1.14-.05-.07-.07-.15-.06-.24.02-.08.07-.16.14-.2.05-.03,4.59-2.74,4.91-8.02.18-2.99,1.22-4.06,2.14-4.06h.02c1.04.02,2.19,1.4,2.26,4.39.06,2.41-1.47,7.57-4.63,8.83-.81.32-1.5.44-2.1.44" style="fill:#231815;"/><path d="m520.26,287.11s5.24-2.49,4.49-7.96,2.72-5.28,3.82-.43c.5,2.21.13,7.76-3.17,9.06-3.31,1.3-5.14-.66-5.14-.66" style="fill:#fff;"/><path d="m520.26,287.11h0Zm.52.05c.61.45,2.15,1.26,4.51.33,3.21-1.26,3.44-6.74,2.99-8.72-.52-2.31-1.63-3.55-2.39-3.41-.66.12-1.17,1.32-.84,3.74.64,4.72-3.04,7.32-4.27,8.06m2.42,1.35c-2,0-3.09-1.14-3.15-1.21-.06-.07-.09-.17-.07-.26s.08-.17.16-.21c.21-.1,5.03-2.47,4.32-7.65-.41-2.99.42-4.24,1.32-4.4,1.01-.19,2.42.94,3.08,3.86.25,1.12.3,3.1-.16,5.01-.38,1.58-1.25,3.63-3.19,4.39-.87.34-1.64.47-2.31.47" style="fill:#231815;"/><path d="m517.97,286.09c1.3-.25,2.82-.78,3.59-2.88,1.73-4.7,4.07-4.52,3.98-1.4-.1,3.33-2.05,6.98-5.1,8.2l-2.47-3.91h0Z" style="fill:#fff;"/><path d="m520.44,290.29c-.12,0-.23-.07-.28-.19-.06-.15.01-.33.17-.39,3.11-1.24,4.82-4.93,4.91-7.93.03-1.08-.25-1.84-.72-1.93-.63-.12-1.74.9-2.68,3.45-.82,2.24-2.47,2.82-3.81,3.07-.16.03-.32-.08-.35-.24-.03-.16.08-.32.24-.35,1.26-.24,2.65-.74,3.37-2.69.95-2.58,2.23-4.04,3.35-3.83.8.15,1.25,1.1,1.2,2.53-.1,3.2-1.94,7.13-5.29,8.47-.04.01-.07.02-.11.02" style="fill:#231815;"/><path d="m337.43,306.97s-3.87.23-7.91-3.53c-4.05-3.75-5.56-1.41-2.22,2.27,1.52,1.68,5.38,4.97,8.42,3.74,3.04-1.22,1.72-2.49,1.72-2.49" style="fill:#fff;"/><path d="m329.31,303.66c-1.95-1.81-3.11-2.02-3.42-1.71-.34.34-.06,1.7,1.62,3.57,1.71,1.88,5.33,4.78,8.09,3.67,1.07-.43,1.71-.93,1.8-1.4.05-.23-.04-.41-.11-.52-.78,0-4.29-.19-7.98-3.61m-2.24,2.25c-1.71-1.88-2.35-3.65-1.6-4.39.73-.72,2.32-.09,4.24,1.7,3.9,3.61,7.66,3.45,7.7,3.45.08,0,.16.03.22.08.02.02.48.47.36,1.14-.13.7-.86,1.32-2.17,1.84-.1.04-.21.08-.31.11-3.01.92-6.69-2-8.44-3.93" style="fill:#231815;"/><path d="m339.28,309.6s-5.32-1.26-7.25-6.43c-1.93-5.17-4.89-3.36-3.57,1.43.61,2.19,3.47,6.61,6.74,6.88,3.27.27,4.08-1.88,4.08-1.88" style="fill:#fff;"/><path d="m339.27,309.6h0Zm-7.52-6.33c-.85-2.28-1.86-3.09-2.51-2.89-.74.24-1.13,1.85-.5,4.14.59,2.13,3.41,6.41,6.48,6.66,2.29.19,3.27-.86,3.62-1.39-1.27-.39-5.4-1.99-7.09-6.51m3.42,8.5c-3.39-.28-6.36-4.77-7-7.1-.8-2.88-.1-4.54.89-4.86h.02c.88-.27,2.18.45,3.23,3.26,1.85,4.95,6.98,6.23,7.04,6.24.08.02.15.07.19.15s.05.16.02.24c-.03.07-.54,1.36-2.24,1.88-.57.17-1.27.26-2.14.19" style="fill:#231815;"/><path d="m343,310.19s-5.74-.86-6.61-6.31c-.88-5.45-4.14-4.26-3.78.7.16,2.26,2.13,7.47,5.67,7.74,3.54.28,4.72-2.13,4.72-2.13" style="fill:#fff;"/><path d="m342.99,310.2h0Zm-6.9-6.26c-.39-2.41-1.23-3.41-1.89-3.33-.77.09-1.47,1.59-1.3,3.96.15,2.02,1.97,7.2,5.4,7.47,2.53.2,3.76-1.02,4.22-1.63-1.39-.34-5.67-1.77-6.43-6.47m2.16,8.69c-2.08-.16-3.51-1.87-4.34-3.27-1-1.69-1.53-3.6-1.61-4.75-.22-2.98.8-4.48,1.82-4.59.92-.11,2.07.84,2.55,3.83.83,5.17,6.14,6.03,6.36,6.06.09.01.18.07.22.16.04.08.05.18,0,.27-.04.08-.75,1.49-2.66,2.07-.64.19-1.42.3-2.35.22" style="fill:#231815;"/><path d="m344.89,308.55c-1.32.14-2.92.07-4.27-1.71-3.02-3.99-5.21-3.14-4.21-.19,1.06,3.16,4,6.08,7.26,6.36l1.22-4.46h0Z" style="fill:#fff;"/><path d="m343.75,313.29c.11-.03.2-.14.21-.26.01-.16-.11-.31-.27-.32-3.33-.28-6.05-3.31-7.01-6.16-.35-1.03-.3-1.83.13-2.06.57-.3,1.93.36,3.57,2.52,1.44,1.9,3.19,1.98,4.54,1.83.16-.02.28-.17.26-.33-.02-.16-.17-.28-.33-.26-1.28.14-2.75.06-4-1.6-1.66-2.19-3.31-3.22-4.32-2.69-.72.38-.87,1.42-.41,2.77,1.02,3.03,3.93,6.26,7.52,6.56.04,0,.08,0,.11-.01" style="fill:#231815;"/><path d="m322.05,610.43s-26.11,16.27-27.89,5.37c-6.12-37.39,19.34-60.97,35.09-76.57,10.22-10.11,70.8-51.52,75.72-37.59,2.99,8.46-13.28,24.19-25.8,38.5-8.11,9.27-13.92,18.6-14.39,22.78-.99,8.72.6,18.44-2.65,24.3-12.28,22.14-40.08,23.2-40.08,23.2" style="fill:#fff;"/><path d="m322.05,611.36c-.49,0-.9-.38-.93-.87-.04-.51.35-.96.87-1,.23-.02,22.9-1.78,34.92-15.91,5.74-6.74,8.18-15.27,7.27-25.33-1.21-13.42,10.52-25.13,21.87-36.46,10.47-10.45,20.36-20.32,18.02-29.93-.24-1-.84-1.61-1.88-1.93-5.03-1.52-18.38,4.15-37.61,15.97-16.6,10.21-31.6,21.31-36.04,25.4-.38.35-.97.33-1.32-.05s-.33-.97.05-1.32c8.78-8.08,62.19-45.79,75.45-41.78,1.66.5,2.75,1.63,3.15,3.27,2.6,10.63-7.66,20.86-18.51,31.7-11.04,11.02-22.46,22.42-21.33,34.97.96,10.59-1.64,19.58-7.72,26.72-12.54,14.73-35.24,16.49-36.2,16.55h-.07" style="fill:#30303d;"/><path d="m528.29,772.66c-4.43-14.58-9.25-28.52-14.09-39.18-.11-.23-.21-.45-.31-.68-9.05-19.63-16.08-20.94-19.91-33.01-.71-2.26-1.33-7.17-1.85-13.68-.47-5.81-.87-12.88-1.2-20.48-.22-4.96-.41-10.14-.58-15.33-.74-22.46-1.04-45.15-1.11-51.23-.02-1.02-.02-1.57-.02-1.57.98-15.31,15.9-15.49,19.97-15.1,2.74.26,5.77,3.53,7.45,5.62l.02.03c.8.99,1.29,1.72,1.29,1.72,1.6-3.29,13.72-5.99,17.78-3.86,4.07,2.13,9.68,12.41,9.68,12.41,1.16-4.26,8.16-7.29,14.26-5.97,6.1,1.31,23.52,34.89,27.87,44.92,2.53,5.82,2.7,20.58,2.73,36.36.03,11.39-.02,23.31.71,32.81.45,5.92,3.57,16.21,7.93,28.2h0c12.36,33.97-68.24,45.81-70.6,38.04" style="fill:#fff;"/><path d="m529.12,772.4c.04.12.33.74,2.49,1.2,6.66,1.42,20.31-.49,30.36-3.12,8.59-2.25,24.23-7.41,32.35-16.74,4.95-5.69,6.22-12.01,3.76-18.79,0-.01,0-.02-.01-.04-4.88-13.42-7.57-22.99-7.98-28.43-.67-8.72-.69-19.52-.7-29.96v-2.91c-.04-16.44-.27-30.49-2.67-36.02-2.32-5.36-7.91-16.41-13.23-25.64-9.37-16.24-12.92-18.54-14.02-18.78-5.51-1.19-12.18,1.51-13.23,5.35-.09.34-.39.59-.74.64-.35.04-.7-.14-.87-.45-1.53-2.79-6.18-10.4-9.32-12.05-2.11-1.11-7.32-.8-11.86.69-2.96.97-4.38,2.07-4.73,2.78-.14.28-.41.47-.72.49s-.61-.12-.78-.38c0,0-.48-.71-1.24-1.66-.01-.01-.02-.03-.03-.04-2.56-3.18-5.05-5.11-6.84-5.28-1.47-.14-9.09-.62-14.27,3.79-2.85,2.43-4.44,5.95-4.74,10.46,0,.13,0,.66.02,1.54.05,4.44.34,27.74,1.11,51.22.18,5.48.38,10.63.58,15.32.37,8.25.77,15.13,1.2,20.45.56,6.9,1.17,11.44,1.82,13.49,1.81,5.7,4.34,8.93,7.55,13.01,3.39,4.32,7.62,9.7,12.32,19.9l.31.68c4.39,9.68,9.14,22.9,14.13,39.3m8.27,3.42c-2.42,0-4.51-.17-6.14-.52-2.21-.47-3.45-1.25-3.79-2.4-4.96-16.32-9.69-29.47-14.05-39.08l-.31-.68c-4.62-10.01-8.77-15.3-12.11-19.55-3.19-4.06-5.94-7.56-7.84-13.56-.7-2.21-1.32-6.74-1.89-13.88-.43-5.34-.84-12.25-1.21-20.51-.21-4.7-.4-9.86-.58-15.34-.77-23.49-1.06-46.81-1.11-51.25-.02-1.02-.02-1.58-.02-1.58v-.06c.32-5.02,2.12-8.96,5.35-11.71,5.72-4.88,13.98-4.36,15.57-4.2,2.94.28,6,3.39,8.05,5.94.01.01.02.03.03.04.23.29.44.56.62.79,1.22-1.19,3.26-2.04,4.94-2.6,4.38-1.44,10.32-2.1,13.22-.58,3.32,1.74,7.42,8.26,9.18,11.26,2.38-3.83,8.79-6.14,14.53-4.9,7.04,1.52,25.29,38.07,28.48,45.43,2.54,5.84,2.77,19.48,2.81,36.71v2.91c.02,10.41.04,21.18.7,29.83.4,5.28,3.05,14.68,7.87,27.94,0,.01,0,.02.01.04,2.7,7.43,1.33,14.35-4.07,20.56-8.43,9.69-24.43,14.99-33.22,17.28-8.95,2.34-18.26,3.66-25.03,3.66" style="fill:#30303d;"/><path d="m533.97,616.54c-.16,0-.33-.04-.47-.14-2.09-1.35-3.1-3.24-3.9-4.75l-.15-.29c-7.62-14.22-13.48-22.79-13.54-22.87-.27-.4-.17-.94.23-1.21.4-.27.94-.17,1.21.23.06.09,5.97,8.73,13.64,23.04l.16.29c.75,1.41,1.6,3,3.31,4.1.4.26.52.8.26,1.21-.17.26-.45.4-.73.4" style="fill:#30303d;"/><path d="m560.88,622.85c-.11,0-.22-.02-.33-.06-2.67-1.09-4.64-3.82-5.31-5.12-7.09-13.7-10.53-18.84-10.57-18.89-.27-.4-.16-.94.24-1.21.4-.27.94-.16,1.21.23.14.21,3.52,5.25,10.67,19.06.66,1.27,2.38,3.47,4.42,4.3.45.18.66.69.48,1.14-.14.34-.46.54-.81.54" style="fill:#30303d;"/><path d="m598.38,719.44s-.4-.05-1.15-.1c-.78-.04-1.95-.09-3.47-.06-9.38.15-32.13,2.83-59.43,22.36-3.7,2.65-6.89,5.85-9.58,9.19-.87,1.09-1.69,2.18-2.47,3.28-3.39,4.82-5.77,9.61-7.22,13.14l1.46,13.81c13.66,2.07,27.66,5.17,42.38,8.35,16.78,3.62,34.49,7.34,53.69,9.74,12.62,1.58,24.28,2.1,34.98,1.74-21.56-35.07-49.2-81.45-49.2-81.45" style="fill:#30303d;"/></g></g><path d="m594.4,728.1c.75,0,.44-.31,1.31-.31.42,0,1,.2,1,.44s-.43.24-.58.24c-.36,0-.88-.05-1.55-.05h-.97c-1.3,0-2.52.03-3.25.07-1.07.08-1.16.29-1.32.29-.06,0-.13-.04-.24-.09-.23-.16-.57-.36-.81-.51-.05-.05-.07-.08-.07-.1,0-.04.05-.06.1-.06s.13.02.19.04c.33.07.63.14,1.75.17l3.3-.1c.43-1.25.64-2.61.64-2.73,0-.29-.24-.45-.65-.65-.02-.09.1-.15.31-.15.14,0,.82.27.96.34.12.07.16.14.16.21,0,.12-.14.25-.21.45-.22.85-.57,1.74-.9,2.53l.83-.02h0Zm-.41-4.49h.07c.63-.09.29-.31,1.18-.31.56.02.85.17.86.37-.01.2-.16.24-.64.24-.22,0-.52-.01-.92-.02-.94,0-1.97.02-3.81.12-.81.06-.91.24-1.08.24-.19,0-.94-.45-1.11-.58-.02-.05-.03-.08-.03-.1,0-.04.02-.06.08-.06.03,0,.09.01.16.03.36.1.93.22,1.65.19l3.59-.12Zm-2.9,3.8c-.02.39-.14.59-.26.59-.1,0-.21-.15-.25-.43-.12-.8-.19-1.66-.87-2.35-.05-.05-.06-.09-.06-.12s.02-.06.08-.06c.04,0,.07,0,.14.02,1.15.66,1.22.89,1.22,2.34h0Z" style="fill:#231815;"/><g style="clip-path:url(#clippath-10);"><g><path d="m507.92,620.58s-3.71-.06-5.65-2.98c-8.17-12.31-23.57-37.05-34.51-52.07-7.34-10.07-11.26-15.26-15.35-13.94-5.94,1.91-8.63,14.13,1.75,37.5,11.62,26.19,34.64,84.7,38.2,96.47l15.57-64.97h-.01Z" style="fill:#fff;"/><path d="m491.29,686.35c-1.62-5.35-7.75-20.41-14.84-37.84-8.47-20.83-18.08-44.44-23.13-59.14-.51-1.48-1.01-2.91-1.5-4.28-2.5-7.09-4.65-13.21-4.99-19.46-.43-7.85,1.34-13.19,4.71-14.29,4.08-1.33,9.71,3.47,16.72,14.26,7.41,11.41,17.98,27.27,26.48,40.01,3.07,4.61,5.84,8.75,8.02,12.05,1.67,2.52,4.91,2.59,4.94,2.59l-.03,1.74c-.17,0-4.19-.1-6.37-3.37-2.19-3.3-4.95-7.44-8.02-12.05-8.5-12.75-19.08-28.61-26.49-40.03-8.56-13.17-12.89-14.15-14.71-13.55-2.5.82-3.88,5.74-3.51,12.54.33,6,2.34,11.73,4.9,18.97.49,1.38.99,2.81,1.5,4.3,5.04,14.66,14.63,38.25,23.1,59.05,7.11,17.47,13.25,32.56,14.89,37.99l-1.67.51h0Z" style="fill:#30303d;"/><path d="m494,666.55s-10.7-2.82-17.36-7.87c-7.45-5.66-12.57-10-16.31-13.31-16.12-14.26-41.2-8.79-9.95,23.96,29.78,31.21,35.55,59.25,70.05,64.89l-26.43-67.67h0Z" style="fill:#fff;"/><path d="m520.43,735.12s-.1,0-.15-.01c-23.65-3.86-34.12-18.26-47.39-36.48-6.34-8.71-13.53-18.58-23.17-28.68-7.09-7.43-11.76-13.93-13.88-19.33-2.41-6.12-.98-9.42.65-11.11,4.55-4.72,15.96-2.3,24.43,5.18,3.16,2.79,8.28,7.21,16.25,13.27,6.44,4.89,16.94,7.69,17.04,7.72.48.13.77.62.64,1.1s-.62.77-1.1.64c-.44-.12-10.95-2.92-17.67-8.03-8.02-6.1-13.18-10.54-16.36-13.35-7.64-6.76-18.1-9.28-21.94-5.28-1.58,1.64-5.31,8.52,13.24,27.95,9.72,10.19,16.94,20.11,23.32,28.87,6.7,9.2,12.48,17.15,19.54,23.35,7.67,6.74,16.15,10.69,26.69,12.41.49.08.82.54.74,1.03-.07.44-.45.75-.89.75" style="fill:#30303d;"/><path d="m405.87,128.24s15.15-65.92,33.98-66.74c18.83-.82,14.74,17.61,40.13,19.24,25.39,1.64,25.39,20.47,11.87,28.25-13.51,7.78-52,17.98-55.27,26.8-3.28,8.82-27.84,3.91-30.71-7.56" style="fill:#ffd16e;"/><path d="m434.46,153.13s-39.21-79.75-82.3-89.32c-43.1-9.58-19.15,11.97-46.29,35.92-27.14,23.94-2.52,38.31,41.44,34.32s87.16,19.09,87.16,19.09" style="fill:#ffd16e;"/><path d="m434.17,153.65c-.13-.07-13.41-7.3-31.69-15.32-16.86-7.39-41.54-16.97-63.39-20.67-21.64-3.66-36.88-2.99-40.79,1.8-1.14,1.4-1.3,3.11-.48,5.23l-1.12.43c-.97-2.52-.75-4.67.67-6.41,4.24-5.2,19.52-6.02,41.92-2.23,12.13,2.05,33.02,7.32,63.68,20.76,18.33,8.03,31.64,15.28,31.77,15.36l-.57,1.05Z" style="fill:#231815;"/></g></g><polygon points="580.58 269.92 442.93 288.53 299.67 307.9 279.02 155.17 422.28 135.8 559.93 117.19 580.58 269.92" style="fill:#ff9454;"/><rect x="288.7" y="144.77" width="144.56" height="154.12" transform="translate(-26.47 50.37) rotate(-7.7)" style="fill:#ff8547;"/><polygon points="274.92 155.37 279.22 187.15 567.95 145.84 563.95 116.3 274.92 155.37" style="fill:#fc8066;"/><polygon points="420.54 166.93 415.75 136.33 274.92 155.37 279.22 187.15 420.54 166.93" style="fill:#ed5e47;"/><polygon points="513.86 278.94 490.81 126.19 510.23 123.56 533.6 276.27 513.86 278.94" style="fill:#ffc469;"/><polygon points="358.5 299.93 339.9 146.59 361.43 143.68 378.61 297.23 358.5 299.93" style="fill:#ffb545;"/><g style="clip-path:url(#clippath-11);"><g><path d="m406.64,137.54s-68.68-18.66-72.58,66.09c-3.89,84.75-3.12,155.31-95.84,192.58l13.7,10.86-7.94,21.8s67.69-22.18,93.51-69.92c55.69-102.96,3.69-202.86,69.14-221.4" style="fill:#ffd16e;"/><path d="m415.41,136.27s80.08-50.79,131.37,93.7l-16.21-8.41-6.1,15.72s-23.09-96.89-109.06-101.01" style="fill:#ffd16e;"/></g></g><g><path d="m443.31,517.43l-7.68.54.56,8.02-2.91.2-.56-8.02-7.46.52-.16-2.3,12.58-.88c.32-2.57.23-4.53.11-6.24l-11.06.77-.16-2.3,13.86-.97.13,1.8c.13,1.86.27,3.9-.03,6.74l2.62-.18.16,2.3Z" style="fill:#fff;"/><path d="m471.15,513.17l.16,2.28-18.04,1.26-.16-2.28,7.57-.53-.12-1.73-5.38.38-.5-7.11,13.7-.96.16,2.26-10.86.76.18,2.6,11.04-.77.16,2.26-5.64.39.12,1.73,7.61-.53h0Zm-15.81,4.74l13.94-.98.47,6.76-2.86.2-.32-4.51-11.08.78-.16-2.25h.01Z" style="fill:#fff;"/></g></g></g></g></svg>