<?xml version="1.0" encoding="UTF-8"?><svg xmlns="http://www.w3.org/2000/svg" xmlns:xlink="http://www.w3.org/1999/xlink" viewBox="0 0 802.51 818.45"><defs><clipPath id="clippath"><rect x="4.25" width="798.26" height="817.3" style="fill:none;"/></clipPath><clipPath id="clippath-1"><rect x="4.25" width="798.26" height="817.3" style="fill:none;"/></clipPath><clipPath id="clippath-2"><rect x="4.25" width="798.26" height="817.3" style="fill:none;"/></clipPath><clipPath id="clippath-3"><rect x="580.43" y="42.81" width="204.18" height="495.61" style="fill:none;"/></clipPath><clipPath id="clippath-4"><rect y="163.62" width="790.09" height="438.46" style="fill:none;"/></clipPath><clipPath id="clippath-5"><rect x="222.18" y="700" width="540.16" height="104.61" style="fill:none;"/></clipPath><clipPath id="clippath-6"><rect x="444.98" y="341.43" width="128.19" height="75.19" style="fill:none;"/></clipPath><clipPath id="clippath-7"><rect x="422.43" y="488.29" width="162.4" height="103.71" style="fill:none;"/></clipPath><clipPath id="clippath-8"><rect x="412.83" y="349.21" width="165.32" height="136.23" style="fill:none;"/></clipPath><clipPath id="clippath-9"><rect x="4.25" width="798.26" height="817.3" style="fill:none;"/></clipPath><clipPath id="clippath-10"><rect x="4.25" width="798.26" height="817.3" style="fill:none;"/></clipPath></defs><g style="isolation:isolate;"><g id="Layer_1"><rect x="2.51" y=".65" width="800" height="817.8" style="fill:#f8dcad;"/><g style="clip-path:url(#clippath);"><path d="m89.27,353.44l-10.78,34.18c11.2,7.82,16.56,22.27,12.23,35.98-4.32,13.71-17,22.48-30.66,22.46l-10.78,34.18,362.78,115.77,39.98-126.8-362.78-115.77Z" style="fill:#da4c4b;"/></g><polygon points="406.78 585.92 116.52 493.02 151.67 381.53 441.93 474.43 406.78 585.92" style="fill:#fff;"/><g style="clip-path:url(#clippath-1);"><path d="m103.67,476.64c.36-1.14.31-2.37-.14-3.55l2.36-.86c.55,1.71.6,3.49.06,5.2-1.4,4.44-5.54,6.88-10.13,5.43-4.36-1.37-6.54-5.95-5.16-10.32.5-1.59,1.43-2.83,2.67-3.9l1.64,1.89c-.91.69-1.65,1.62-2,2.74-.93,2.96.68,5.87,3.73,6.83,3.24,1.02,5.99-.34,6.97-3.45" style="fill:#fff;"/><path d="m98.09,457.02c-.89,2.83.8,5.65,3.8,6.59s6-.39,6.9-3.22c.9-2.85-.8-5.67-3.8-6.61-3-.95-6,.39-6.9,3.24m13.01,4.1c-1.37,4.36-5.85,6.6-10.08,5.26-4.23-1.33-6.61-5.73-5.24-10.09,1.38-4.38,5.85-6.62,10.08-5.28,4.23,1.33,6.61,5.73,5.23,10.11" style="fill:#fff;"/><path d="m111.92,433.37c4.65,1.47,6.66,4.03,5.35,8.2-1.28,4.06-4.39,5.01-9.05,3.54l-7.85-2.47.83-2.62,8.29,2.61c3,.95,4.85.16,5.48-1.83.63-2.01-.43-3.72-3.44-4.66l-8.29-2.61.83-2.62,7.85,2.47Z" style="fill:#fff;"/><path d="m113.84,423.73l.47-1.48c.57-1.8.39-3.32-1.25-3.84-1.46-.46-2.69.36-3.2,1.97l-.6,1.9,4.59,1.45Zm-6.21-4.12c.78-2.47,2.91-5.03,6.23-3.99,3.34,1.05,3.63,4.35,2.84,6.85l-.62,1.97,5.73,1.81-.83,2.62-14.81-4.67,1.45-4.59Z" style="fill:#fff;"/><path d="m115.31,402.38c-.89,2.83.8,5.65,3.8,6.59,3,.95,6-.39,6.9-3.22.9-2.86-.8-5.67-3.8-6.61-3-.95-6,.39-6.9,3.24m13.01,4.1c-1.37,4.36-5.85,6.6-10.08,5.26-4.23-1.33-6.61-5.73-5.24-10.09,1.38-4.38,5.85-6.62,10.08-5.28,4.23,1.33,6.61,5.73,5.23,10.11" style="fill:#fff;"/></g><polygon points="135.55 382.66 123.24 386.82 133.25 389.98 132.42 392.6 117.62 387.93 118.34 385.63 130.69 381.43 120.66 378.27 121.49 375.64 136.3 380.31 135.55 382.66" style="fill:#fff;"/><g style="clip-path:url(#clippath-2);"><g style="mix-blend-mode:multiply;"><g style="clip-path:url(#clippath-3);"><path d="m749.27,325.47s-.57,6.07-8.88,9.66l8.79,7.94s7.45-4.58,9.02-9.66l-8.93-7.95Z" style="fill:#ed7b64;"/><path d="m732.49,179.11s-7.07,1.05-13.48-7.39l-6.57,12.23s7.3,7.2,13.52,7.56l6.54-12.39Z" style="fill:#bebe61;"/><path d="m691.1,417.1s-2.38,6.74-12.84,8.47l7.74,11.53s9.77-3.09,13-8.42l-7.9-11.57Z" style="fill:#ed7b64;"/><path d="m676.42,63s4.45,8.02-2.8,19.54l17.66,2.39s5.36-12.02,2.99-19.65l-17.84-2.27Z" style="fill:#f7cb6e;"/><path d="m609.63,403.12s4.45,8.02-2.8,19.54l17.66,2.39s5.36-12.02,2.99-19.65l-17.84-2.27Z" style="fill:#f7cb6e;"/><path d="m656.04,287.84c9.86-5.38,20.73-8.11,31.96-8.07,2.92.01,2.92-4.52,0-4.53-12.02-.05-23.7,2.93-34.25,8.69-2.56,1.4-.28,5.31,2.29,3.91" style="fill:#f7cb6e;"/><path d="m686.32,503.25c5.93,9.53,9.33,20.22,9.91,31.44.15,2.9,4.68,2.92,4.53,0-.62-12.01-4.18-23.51-10.53-33.73-1.54-2.47-5.46-.2-3.91,2.29" style="fill:#f7cb6e;"/><path d="m651.2,364.24c5.74-.12,12.04,1.78,15.97,6.17,2.14,2.39,3.38,6.03,1.4,8.92-1.86,2.72-7.55,2.19-6.51-1.9,1.46-5.74,10.69-3.68,14.65-2.51,5.37,1.59,10.15,4.62,14.07,8.59,1.48,1.5,3.59-1.01,2.11-2.5-6.01-6.09-14.25-10.11-22.85-10.57-3.86-.21-8.07.64-10.26,4.16-1.67,2.69-1.53,6.17,1.03,8.26,2.59,2.12,6.53,2.04,9.08-.09,2.71-2.28,3.48-6.25,2.56-9.56-2.42-8.69-13.42-12.4-21.48-12.22-2.11.05-1.87,3.31.23,3.26" style="fill:#f7cb6e;"/></g></g><g style="mix-blend-mode:multiply;"><g style="clip-path:url(#clippath-4);"><path d="m756.15,573.96s-.48,5.12-7.48,8.15l7.41,6.7s6.28-3.86,7.6-8.14l-7.53-6.7Z" style="fill:#ed7b64;"/><path d="m33.89,585.69s-.48,5.12-7.48,8.15l7.41,6.7s6.28-3.86,7.61-8.14l-7.53-6.7Z" style="fill:#ed7b64;"/><path d="m277.88,190.05s-5.96.88-11.37-6.23l-5.54,10.31s6.15,6.07,11.4,6.37l5.51-10.45Z" style="fill:#bebe61;"/><path d="m244.02,341s3.75,6.77-2.37,16.47l14.89,2.01s4.52-10.13,2.52-16.57l-15.04-1.91Z" style="fill:#f7cb6e;"/><path d="m165.87,564.31c-14.26,6.06-27.2,14.66-38.35,25.42-1.77,1.71.93,4.41,2.7,2.7,10.93-10.55,23.6-18.89,37.58-24.82,2.26-.96.31-4.25-1.93-3.3" style="fill:#f7cb6e;"/><path d="m148.55,299.24c7.22-3.41,15.76-5.14,23.68-3.52,6.1,1.25,14.4,7.33,10.3,14.55-1.05,1.84-3.53,3.52-5.7,2.38-1.74-.92-2.38-3.52-2.08-5.31.64-3.76,4.5-6.55,7.51-8.41,6.77-4.2,14.61-5.86,22.51-5.24,2.45.19,2.44-3.63,0-3.82-10.81-.85-24.81,2.62-31.54,11.89-2.46,3.38-3.3,7.89-.96,11.58,2.27,3.58,6.67,4.49,10.27,2.3,7.98-4.85,4.68-16.33-1.88-20.66-9.81-6.48-24.15-3.7-34.03.96-2.22,1.05-.29,4.35,1.93,3.3" style="fill:#f7cb6e;"/></g></g><path d="m383.74,666.44s-35.36-96.81-68.23-83.03c-32.87,13.78,49.18,75.47,61.49,111.67l6.74-28.64Z" style="fill:#999c3f;"/><path d="m381.3,670.15s-91.33-119.61-128.37-87.5c-37.04,32.12,96.66,77.53,128.28,119.55l.09-32.05Z" style="fill:#bebe61;"/><path d="m388.98,672.21s-48.3-67.22-125.51-55.26c-77.21,11.96-89.34,103.59-23.84,115.71,65.5,12.12,125.24-39.29,149.12-23.22,23.89,16.06.23-37.22.23-37.22" style="fill:#d8dc96;"/><path d="m222.19,691.25c-.12-.02-.24-.07-.35-.15-.32-.25-.37-.72-.12-1.04.11-.14,11.56-14.29,34.88-24.27,13.68-5.85,28.72-9.16,44.71-9.83,19.96-.83,41.45,2.47,63.88,9.81.39.13.6.54.47.93-.13.39-.54.6-.93.47-22.24-7.28-43.53-10.56-63.3-9.74-15.8.65-30.66,3.91-44.17,9.68-23.01,9.83-34.28,23.73-34.39,23.87-.17.21-.44.31-.69.27" style="fill:#999c3f;"/><path d="m565.34,725.84s63.07-154.79,104.43-136.09c41.36,18.69-65.25,94.36-82.18,139.99l-22.25-3.9Z" style="fill:#d8dc96;"/><path d="m587.2,719.23s17.21-76.85,89.25-95.17c72.04-18.32,116.82,57.36,64.01,92.38-52.81,35.03-124.26,12.32-139.18,35.28-14.92,22.97-14.08-32.5-14.08-32.5" style="fill:#bebe61;"/><path d="m740.29,673.7c-.21.13-.48.15-.71.02-.15-.08-15.19-8.05-39-8.07-13.98-.01-28.2,2.68-42.27,8-17.6,6.65-35.02,17.46-51.77,32.13-.29.26-.74.23-.99-.07-.26-.29-.23-.73.07-.99,16.89-14.79,34.47-25.69,52.25-32.41,14.24-5.38,28.64-8.09,42.8-8.07,24.13.04,39.43,8.15,39.58,8.24.34.18.47.61.28.95-.06.11-.15.2-.25.26" style="fill:#999c3f;"/><g style="mix-blend-mode:multiply;"><g style="clip-path:url(#clippath-5);"><path d="m740.25,790.43c-8.49,6.91-22.65,12.05-36.42,12.51-10.7.36-22.37-.16-35-1.74-19.22-2.41-36.94-6.13-53.73-9.75-14.74-3.18-28.75-6.28-42.42-8.35-21.14-3.21-41.46-3.95-62.33,1.3-40.42,10.18-71.17,14.44-95.86,15.35-61.66,2.28-85.58-16.34-128.14-15.92-8.02.08-15.23-1.31-21.34-3.76-30.12-12.04-54.09-59.06,21.77-63.09,1.09-.06,2.13-.5,3.23-.73,20.35-4.27,46.97-3.84,118.43-3.34,6.93.05,14.28.1,22.1.14,18.24.11,38.96.19,62.63.2,16.38.01,31.85-.02,46.47-.06,5.69-.02,11.24-.04,16.68-.06,3.81-.02,7.55-.03,11.23-.05,3.15-.02,6.26-.03,9.32-.05,5.98-.03,11.79-.06,17.44-.09,4.4-.02,8.71-.05,12.91-.07,14.67-.07,28.75,3.6,40.58-.17,41.83-13.33,127.16,49.46,92.45,77.73" style="fill:#eaecf1;"/></g></g><path d="m404.19,563.02c12.71-17.36,22.39-32.12,22.39-32.12l6.52-69.46s-34.88,10.15-50.58,27.63c-3.18,3.54-48.3,64.65-36.7,128.92l58.38-54.96Z" style="fill:#fff;"/><path d="m345.05,591.88h0c-.52,0-.93-.42-.93-.94.09-16.46,4.33-36.57,11.93-56.62,7.18-18.94,16.57-35.67,25.77-45.88,16.52-18.33,46.46-25.17,46.76-25.24.28-.06.58,0,.8.19.22.18.35.46.34.75l-2.21,66.78c0,.17-.06.34-.15.48-.1.15-9.84,14.98-22.42,32.17-.3.42-.89.51-1.31.2-.42-.3-.51-.89-.2-1.31,11.72-16.01,20.96-29.97,22.22-31.87l2.16-65.28c-5.66,1.46-30.33,8.54-44.6,24.37-9.05,10.04-18.32,26.55-25.42,45.29-7.52,19.85-11.71,39.73-11.8,55.97,0,.52-.42.93-.93.93" style="fill:#30303d;"/><path d="m371.36,628.92s66.3,44.91,63.83,59.78c-.7,4.24-22.65.16-22.65.16l-41.19-59.95Z" style="fill:#f08e56;"/><path d="m403.82,514.86c-.14,0-.29-.03-.42-.1-.46-.23-.65-.8-.41-1.26.23-.46,5.77-11.28,14.63-18.34,8.22-6.55,20.26-12.14,20.38-12.2.47-.22,1.03-.01,1.24.46.22.47.01,1.02-.46,1.24-.12.05-11.96,5.56-20,11.96-8.54,6.81-14.07,17.61-14.12,17.72-.16.32-.49.51-.84.51" style="fill:#30303d;"/><path d="m476.51,551.63s.63,50.82-40.1,63.64c-5.42,1.71-13.6,6.74-14.69,12.31,0,0-3.34-1.68-17.65,118.23h-89.34c4.45-13.76-12.08-50.2-7.55-63.41,23.33-68.06,38.13-102.86,38.13-102.86l131.2-27.91Z" style="fill:#fff;"/><path d="m472.77,575.41h0,0Zm-68.59,173.41s-.08,0-.11,0c-.51-.06-.88-.53-.81-1.04,2.78-22.7,5.32-42.3,7.75-59.92l.11-.81c.05-.32.09-.63.13-.95,1.17-8.43,2.31-16.3,3.38-23.42,0,0,0-.02,0-.03,4.15-27.47,6.01-34.67,6.17-35.28.88-4.38,5.46-7.87,8.11-9.56,1.06-.68,2.16-1.3,3.28-1.84.34-.17.68-.33,1.02-.48.22-.09.41-.18.61-.26.03-.01.05-.02.07-.03.58-.25,1.15-.46,1.71-.65.14-.05.29-.1.44-.15h.01s.04-.02.08-.03c0,0-.02,0-.03.01.03-.01.06-.02.09-.03.16-.05.32-.1.48-.15.02,0,.05-.02.07-.03,2.69-.88,5.28-1.96,7.7-3.22,1.2-.62,2.39-1.3,3.54-2.03,2.83-1.78,5.48-3.85,7.89-6.17.02-.02.04-.04.06-.06,7.19-6.93,12.55-16.2,15.94-27.55,0-.01,0-.03.01-.04,1.22-4.09,2.17-8.4,2.81-12.81.92-6.3.88-10.61.88-10.65,0-.52.41-.94.92-.95.51-.02.94.41.95.92,0,.18.04,4.49-.9,10.95-.66,4.51-1.63,8.92-2.88,13.11,0,.02,0,.03-.01.04-3.47,11.62-8.98,21.13-16.36,28.27-.02.02-.04.04-.06.06-2.52,2.43-5.29,4.61-8.25,6.47-1.19.75-2.43,1.46-3.68,2.11-2.48,1.29-5.14,2.4-7.91,3.31-.02,0-.05.02-.07.03-.19.06-.37.12-.55.18-.02,0-.03.01-.05.02-.02,0-.04.01-.05.02l-.05.02c-.13.04-.26.08-.39.13-.53.18-1.07.39-1.62.62-.02,0-.04.02-.07.02-.19.08-.37.16-.56.24-.31.14-.63.29-.95.45-1.06.52-2.1,1.1-3.1,1.74-4.1,2.61-6.76,5.66-7.29,8.37,0,.02-.01.05-.02.07-.02.07-1.91,7.09-6.13,35.07,0,0,0,.02,0,.03-1.07,7.11-2.21,14.99-3.38,23.42-.04.31-.09.63-.13.96l-.11.8c-2.43,17.61-4.97,37.2-7.75,59.89-.06.47-.46.82-.93.82" style="fill:#30303d;"/><path d="m310.12,686.76c-.1,0-.21-.02-.31-.05-.49-.17-.75-.7-.58-1.19,5.12-14.75,8.61-27.17,11.69-38.12,3-10.64,5.83-20.7,9.59-30.91,1.45-3.93,2.81-7.61,4.07-11.02,3.25-8.77,6.39-17.15,9.33-24.91,0,0,0-.02.01-.02.33-.88.5-1.33.5-1.33.18-.48.72-.73,1.21-.54.48.18.72.73.54,1.21,0,0-.17.44-.49,1.3,0,.03-.02.06-.03.09-2.93,7.75-6.07,16.11-9.32,24.86-1.26,3.4-2.62,7.08-4.07,11.01-3.73,10.14-6.55,20.16-9.54,30.77-3.09,10.98-6.59,23.42-11.73,38.23-.14.39-.5.63-.88.63" style="fill:#30303d;"/><path d="m412.17,686.22h0s0,0,0,0c-.64-.22-1.28-.45-1.93-.7h0c-5.15-1.91-10.61-4.44-15.88-7.61-29.63-17.86-45.44-45.64-53.22-61.09-2.93-5.81-4.72-9.88-5.68-11.02-.5-.59-2.58,3.47-5.84,11.02-2.99,6.92-21.28,53.15-39.46,99.41-8.98,22.84-17.93,45.7-25,63.81,6.11,2.45,13.32,3.84,21.34,3.76,42.56-.42,66.48,18.2,128.14,15.92l16.05-86.69,4.48-24.18h0s.01-.08.01-.08v-.05c-1.44,2.33-11.21,1.6-23-2.48" style="fill:#30303d;"/><path d="m400.29,511.56h0,0m10.52,8.83c-.33,0-.66-.18-.82-.49-2.46-4.59-7.25-5.85-9.55-6.46-.92-.24-1.31-.34-1.59-.68-.33-.4-.27-.99.12-1.32.34-.28.81-.28,1.15-.03.14.05.48.14.79.22,2.36.62,7.89,2.08,10.72,7.39.24.46.07,1.02-.38,1.27-.14.07-.29.11-.44.11" style="fill:#30303d;"/><path d="m440.62,612.22l121.64-8.29c6.58-.45,11.49-6.61,10.97-13.76l-17.2-237.55c-.52-7.15-6.27-12.59-12.85-12.14l-121.64,8.29c-6.58.45-11.49,6.61-10.97,13.76l17.2,237.55c.52,7.15,6.27,12.59,12.85,12.14" style="fill:#30303d;"/><path d="m447.06,611.57l123.24-8.4c6.13-.42,10.71-6.17,10.23-12.84l-17.29-238.88c-.48-6.67-5.85-11.74-11.98-11.32l-123.24,8.4c-6.13.42-10.71,6.17-10.23,12.84l17.29,238.88c.48,6.67,5.85,11.74,11.98,11.32" style="fill:#fff;"/><path d="m427.21,366.79l15.77,217.86c.23,3.18,2.79,5.6,5.69,5.41l116.94-7.97c1.32-.09,2.54-.71,3.44-1.75,1.01-1.16,1.53-2.76,1.41-4.37l-15.77-217.86c-.23-3.18-2.78-5.61-5.69-5.41l-116.94,7.97c-1.32.09-2.54.71-3.44,1.75-1.01,1.16-1.53,2.76-1.41,4.37m21.13,224.05c-3.17,0-5.87-2.67-6.12-6.13l-15.77-217.86c-.13-1.82.45-3.61,1.59-4.93,1.04-1.19,2.45-1.91,3.97-2.01l116.94-7.97c3.33-.23,6.24,2.52,6.51,6.12l15.77,217.86c.13,1.82-.45,3.61-1.59,4.93-1.04,1.19-2.45,1.91-3.97,2.01l-116.94,7.97c-.13,0-.26.01-.38.01" style="fill:#231916;"/><g style="opacity:.2;"><g style="clip-path:url(#clippath-6);"><path d="m458.96,358.45l100.23,56.62-4.13-56.99c-.25-3.4-2.97-5.98-6.1-5.76l-90.01,6.13Z" style="fill:#75a4bf;"/></g></g><g style="opacity:.2;"><g style="clip-path:url(#clippath-7);"><path d="m436.41,499.16l6.19,85.51c.25,3.39,2.98,5.98,6.1,5.76l116.94-7.97c3.12-.21,5.45-3.14,5.21-6.53l-.55-7.58-133.88-69.19Z" style="fill:#75a4bf;"/></g></g><g style="opacity:.2;"><g style="clip-path:url(#clippath-8);"><path d="m426.82,366.81l1.86,25.67,135.49,91.4-3.33-46.07-125.95-77.74-2.86.19c-3.12.21-5.45,3.14-5.21,6.53" style="fill:#75a4bf;"/></g></g><path d="m538.4,530.2l-62.89,4.45c-8.66.61-16.17-5.91-16.79-14.57-.61-8.66,5.91-16.17,14.57-16.79l62.89-4.45c8.66-.61,16.17,5.91,16.79,14.57.61,8.66-5.91,16.17-14.57,16.79" style="fill:#cb3d3a;"/><path d="m495.21,355.9c-.1-1.33-1.16-2.34-2.39-2.26-1.22.08-2.14,1.23-2.04,2.56.1,1.33,1.16,2.34,2.39,2.26,1.22-.08,2.14-1.23,2.04-2.56" style="fill:#231916;"/><path d="m449.66,394.6s-4.81,2.09-1.59-13.89l10.75,6.66-9.16,7.22Z" style="fill:#231916;"/><path d="m423.39,309.47s-14.57,4.49-14.57,4.49c2.03,8.61,5.77,21.77,11.57,33.87,12.61,26.32,33.75,45.58,61.12,55.69l10.22-27.67c-48.35-21.24-68.33-66.25-68.34-66.38" style="fill:#fff;"/><path d="m424.01,310.76c-.37-.76-15.94,2.84-14.89,5.07.23.49.41,1,.53,1.53,2.03,8.46,5.12,18.73,10.74,30.47,12.62,26.32,33.75,45.58,61.12,55.69l10.22-27.67c-43.5-19.11-64.04-57.55-67.73-65.08" style="fill:#fff;"/><path d="m420.09,347.98c4.17,8.7,9.27,16.63,15.22,23.72,7.23,8.61,15.7,15.97,25.28,21.96,4.38,2.74,8.98,5.18,13.81,7.33,2.29,1.02,4.62,1.97,7,2.85.03.01.06.02.09.02.06,0,.11,0,.16-.03.08-.04.14-.11.18-.19l3.43-9.29.26-.71,3.16-8.57,3.37-9.11c.06-.17-.02-.35-.18-.43-4.05-1.78-7.9-3.72-11.55-5.8-.23-.13-.46-.26-.69-.39-4.58-2.64-8.86-5.48-12.83-8.43-2.69-2-5.24-4.05-7.66-6.13-2.51-2.16-4.87-4.35-7.1-6.54-.9-.88-1.77-1.76-2.61-2.64-15-15.53-22.97-30.58-25.12-34.99-.09-.17-.18-.29-.28-.51l-.66.13c.14.2.23.47.33.68,1.84,3.76,7.9,15.24,18.91,28.18,1.96,2.3,4.08,4.65,6.36,7.02,1.18,1.22,2.39,2.43,3.65,3.65,2.76,2.67,5.73,5.32,8.91,7.91,1.57,1.28,3.2,2.55,4.88,3.8,4.06,3.01,8.43,5.91,13.12,8.6.23.14.46.27.7.4,3.51,1.98,7.2,3.85,11.07,5.56l-3.27,8.86-3.08,8.34-.27.72-3.37,9.14c-2.41-.9-4.77-1.87-7.08-2.91-4.68-2.1-9.16-4.49-13.41-7.16-9.61-6.02-18.1-13.44-25.32-22.13-5.78-6.95-10.74-14.71-14.81-23.2-4.69-9.78-8.09-19.44-10.72-30.4-.13-.55-.32-1.09-.56-1.59-.15-.32-.42-1.03-.67-1.56l-.76.23c.27.59.66,1.28.82,1.62.22.46.39.95.51,1.46,2.64,11,6.06,20.71,10.77,30.54" style="fill:#231916;"/><path d="m391.15,304.76c2.07.15,7.41.23,9.18-.23-.2-.44-.41-.91-.64-1.43-1.02-2.24-7.12-3.65-7.37-5.02-.55-3,7,.02,12.2-.37,3.54-.27,7.89,1.72,9.53,2.74l5.88,4.48,3.46,4.53-6.27,4.41c-.35.43-3.72-1.01-4.33-.84-3.53,1-7.1,1.96-7.1,1.96-1.67.56-6.83-.02-7.74-.88-.39,0-.75-.09-1.2-.22-.64-.18-2.61-1.55-3.11-2.06-.25.02-2.5-7.08-2.5-7.08" style="fill:#fff;"/><path d="m407.08,314.9c1.63-.5,3.35-1.32,5.16-2.59.41-.29.7-.68.96-1.03.09-.13.18-.25.27-.36.1-.13.09-.31-.04-.42-.13-.1-.32-.09-.42.04-.1.12-.2.25-.29.38-.24.32-.49.66-.82.9-4.27,3-8.56,3.85-12.77,2.51-2.94-.93-4.79-2.66-5.03-2.88-1.65-2.83-3.24-6.15-3.01-6.7,0,0,.03,0,.07.02,4.1,1.13,7.5.41,10-.35.16-.05.25-.21.2-.37-.05-.16-.21-.25-.37-.2-2.42.74-5.71,1.44-9.67.35-.4-.11-.6.06-.69.18-.7.91,1.85,5.49,2.98,7.42.01.02.03.04.05.06.07.07,5.54,5.45,13.43,3.05" style="fill:#231916;"/><path d="m424.11,310.26c-1.73-3.09-9.53-13.01-19.89-12.96-2,0-4.37-.21-6.47-.54-2.74-.42-4.91-.75-5.72.08-.28.29-.38.68-.29,1.18.13.7,1.19,1.29,3.05,2.28,1.95,1.04,4.38,2.33,5.03,3.86.07.15.24.22.39.16.15-.07.22-.24.16-.39-.74-1.72-3.27-3.07-5.3-4.15-1.25-.67-2.67-1.42-2.75-1.87-.08-.44.07-.61.13-.66.59-.61,2.83-.27,5.2.1,2.13.33,4.56.88,6.6.54,4.47-.73,13.72,3.83,19.23,12.56l.62-.19Z" style="fill:#231916;"/><path d="m402.99,307.56c.06-.02.12-.06.16-.11,2.92-4.16,7.44-3.64,7.48-3.64.16.02.31-.09.33-.26.02-.16-.09-.31-.26-.33-.05,0-4.91-.57-8.04,3.89-.09.13-.06.32.07.41.08.05.17.07.26.04" style="fill:#231916;"/><path d="m491.88,320.61s-16.9-.23-19.59,12.2c-1.84,8.49.8,15.23.8,15.23,0,0-8.76.97-13.29,10.94-4.53,9.97,4.44,14.92,4.44,14.92,0,0-13.77,9.43-2.45,14.46,11.32,5.04,68.94-11.91,70.89-22.52,1.95-10.62-12.44-18.39-12.44-18.39,0,0,3.37-43.49-28.37-26.86" style="fill:#231916;"/><path d="m554.04,292.5l15.24.06c.57,8.82.82,22.51-1.21,35.77-4.41,28.85-19.02,53.43-42.26,71.07l-17.83-23.5c40.08-34.4,46.09-83.27,46.06-83.4" style="fill:#fff;"/><path d="m553.83,293.91c.14-.84,16.07-1.93,15.72.52-.08.54-.1,1.07-.06,1.62.52,8.69.55,19.41-1.41,32.28-4.41,28.85-19.02,53.43-42.27,71.07l-17.83-23.5c36.05-30.94,44.51-73.7,45.85-81.98" style="fill:#fff;"/><path d="m569.82,296.03c-.03-.52-.01-1.04.06-1.55.05-.37.22-1.15.31-1.79h-.79c-.08.59-.14,1.34-.19,1.69-.08.55-.1,1.12-.07,1.69.68,11.25.23,21.48-1.41,32.21-1.42,9.31-3.91,18.18-7.42,26.51-4.38,10.41-10.34,19.98-17.78,28.55-3.29,3.79-6.87,7.38-10.74,10.75-1.91,1.67-3.88,3.28-5.93,4.84l-5.89-7.76-.47-.61-5.38-7.08-5.71-7.53c3.2-2.76,6.19-5.62,8.97-8.54.19-.19.37-.39.55-.59,3.71-3.93,7.05-7.98,10.05-12.04,1.24-1.68,2.43-3.37,3.56-5.05,2.29-3.41,4.36-6.81,6.22-10.16.85-1.53,1.66-3.05,2.43-4.56,1.49-2.92,2.83-5.79,4.04-8.56,6.77-15.58,9.23-28.33,9.89-32.46.04-.23.05-.52.12-.75l-.67.07c-.03.24-.08.38-.11.57-.78,4.84-4.02,21.56-13.85,40.78-.55,1.09-1.13,2.19-1.73,3.29-1.49,2.74-3.12,5.53-4.89,8.32-1.71,2.69-3.55,5.4-5.54,8.1-2.94,3.98-6.2,7.94-9.82,11.8-.18.19-.37.39-.55.58-2.89,3.05-6.01,6.03-9.36,8.91-.14.12-.16.32-.05.46l5.87,7.74,5.52,7.27.46.6,5.99,7.89c.05.07.13.12.22.13.06,0,.11,0,.17-.02.03-.01.06-.03.08-.05,2.03-1.53,3.98-3.12,5.87-4.76,3.99-3.46,7.69-7.14,11.08-11.03,7.42-8.51,13.38-18.02,17.79-28.37,3.62-8.51,6.2-17.59,7.65-27.12,1.64-10.77,2.09-21.05,1.42-32.35" style="fill:#231916;"/><path d="m555.84,468.64c.92,6.83-22.97,15.69-53.37,19.8-30.4,4.11-55.79,1.91-56.71-4.92-.05-.33-.03-.67.04-1.01.27-.58.54-1.16.81-1.73,7.98-16.88,16.37-31.16,24.57-39.26,0,0,0,0,.01,0,.78.38,34.57,16.52,67.48-2.81,0,0,7.04,9.71,16.47,28.36.21.41.42.83.63,1.26.02.1.05.2.06.3" style="fill:#231916;"/><path d="m469.8,367.45s40.97,17.6,68.11-29.51c0,0-6.05,37.44-4.18,41.28,12.73,26.31,9.41,26.13,6.46,33.23,0,0,3.09,22.29-1.51,27-9.06,9.27-47.73,16.88-67.5,2.8,0,0-4.64-15.45-3.8-35.75,0,0-9.51-30.14,2.42-39.06" style="fill:#f7cb6e;"/><path d="m453.95,350.09s22.43,21.87,39.63,22.06c1.09.01,2.18-.02,3.26-.09,26.77-1.65-29.51,42.86-29.51,42.86,0,0-4.48-10.01-18.83-19.64,0,0,2.13-.16,3.68-3.61,1.89-4.22,6.79-13.75,1.78-41.59" style="fill:#f7cb6e;"/><path d="m537.91,337.94s17.23,7.98,17.69,33.84l-19.98,27.15-6.58-40.59,8.87-20.4Z" style="fill:#f7cb6e;"/><path d="m531.01,416.79c2.05-.28,3.72-.85,4.99-1.45,3.02-1.42,4.49-3.26,4.55-3.33l-.73-.58s-1.43,1.76-4.27,3.09c-2.62,1.23-7.04,2.34-13.18.67l-.24.89c3.49.95,6.45,1.03,8.87.7" style="fill:#fff;"/><path d="m498.68,421.9c10.17-1.37,11.11-10.48,11.12-10.57l-.92-.08c-.03.37-.95,8.97-11.21,9.84l.08.92c.32-.03.64-.06.95-.1" style="fill:#fff;"/><path d="m516.15,362.28s5.41,21.84-4.44,27.36c-9.85,5.52-23.02-10.68-26.44-18.95,0,0,20.74-1.51,30.88-8.41" style="fill:#fff;"/><path d="m517.18,377.01c-.25,4.37-1.32,8.66-4.11,11.19-.17.16-.35.31-.54.45-.32.25-.65.47-1.01.67-2.14,1.2-4.58,1.4-7.26.58-.16-.05-.33-.1-.5-.16-2.75-.95-5.53-2.89-8.08-5.27-2.13-1.98-4.1-4.27-5.76-6.55-.19-.26-.38-.52-.56-.78-.5-.72-.98-1.43-1.41-2.14-.17-.27-.33-.54-.49-.8-.56-.95-1.05-1.87-1.45-2.72-.08-.16-.15-.32-.21-.47.63-.06,1.83-.18,3.4-.37,1.43-.18,3.17-.42,5.1-.75.22-.03.44-.07.66-.11,2.77-.48,5.88-1.13,8.98-1.98.94-.26,1.88-.54,2.81-.83.22-.07.44-.14.67-.22,3.12-1.04,6.08-2.32,8.49-3.88.08.36.2.91.32,1.59.04.22.08.46.13.72.49,2.82,1.08,7.36.82,11.82m-.15-12.26c-.05-.25-.09-.5-.14-.72-.22-1.14-.39-1.82-.39-1.84,0-.04-.02-.07-.04-.1-.04-.07-.11-.13-.18-.16-.11-.04-.24-.03-.34.04-2.4,1.63-5.42,2.96-8.62,4.04-.24.08-.48.16-.71.23-3.94,1.27-8.11,2.18-11.71,2.8-.25.04-.49.08-.73.12-5.08.85-8.85,1.14-8.93,1.14-.12.01-.23.08-.29.18-.04.06-.05.12-.05.18,0,.05,0,.1.03.15.07.17.14.34.22.51.37.83.82,1.71,1.33,2.62.15.26.31.53.47.8.67,1.12,1.43,2.28,2.26,3.42.18.26.37.52.56.77.76,1.01,1.56,2,2.38,2.94.78.88,1.68,1.85,2.68,2.8,2.42,2.31,5.44,4.61,8.69,5.74.15.05.3.1.46.15,1.64.51,3.2.66,4.67.46,1.13-.15,2.21-.52,3.23-1.09.33-.19.65-.39.95-.62.19-.13.37-.28.55-.43,2.73-2.37,4.29-6.54,4.56-12.24.05-.89.06-1.82.04-2.79-.07-3.57-.56-6.94-.96-9.13m-10.35,2.07c-.93.36-1.84.69-2.74.99.94-.26,1.88-.54,2.81-.83-.03-.04-.06-.09-.07-.15" style="fill:#231916;"/><path d="m501.41,372.52h0c3.46-.47,5.92-3.69,5.45-7.15l-.98-7.25c-.47-3.46-3.69-5.92-7.15-5.45-3.46.47-5.92,3.69-5.45,7.15l.98,7.25c.47,3.46,3.69,5.92,7.15,5.45" style="fill:#fff;"/><path d="m494.66,370.05c.2-.03.34-.21.32-.41l-1.52-11.26c-.34-2.51,1.43-4.82,3.93-5.16l2.78-.38c2.51-.34,4.82,1.42,5.16,3.93l1.36,10.03c.03.2.21.34.41.32.2-.03.34-.21.32-.42l-1.36-10.03c-.39-2.91-3.08-4.95-5.99-4.56l-2.78.38c-2.91.39-4.95,3.08-4.56,5.99l1.52,11.25c.03.2.21.34.41.32" style="fill:#231916;"/><path d="m488.61,352.37c5.62,8.41,15.13,11.91,21.23,7.82,6.11-4.09,5.41-15.61.87-22.63-5.49-8.5-15.13-11.91-21.23-7.82-6.11,4.09-6.5,14.22-.87,22.63" style="fill:#fff;"/><path d="m506.67,361.2c-.24.06-.48.11-.72.16-1.39.25-2.89.22-4.46-.09-2.34-.46-4.68-1.55-6.84-3.11-.41-.3-.81-.61-1.2-.93-.22-.18-.43-.37-.65-.57-1.44-1.29-2.75-2.81-3.88-4.5-.2-.31-.4-.62-.59-.93-4.88-8.03-4.34-17.36,1.36-21.19,1.25-.83,2.66-1.36,4.19-1.56,1.32-.18,2.72-.12,4.19.18,1.54.32,3.07.9,4.54,1.7,3.01,1.64,5.76,4.22,7.81,7.39,5.48,8.5,4.09,18.87-.77,22.13-.91.61-1.9,1.05-2.97,1.32m4.36-23.85c-2.19-3.39-5.15-6.11-8.39-7.81-1.44-.75-2.93-1.3-4.43-1.61-3.35-.69-6.44-.18-8.93,1.49-6.01,4.03-6.65,13.75-1.64,22.09.21.35.43.7.66,1.05,1.26,1.88,2.75,3.56,4.38,4.97.24.22.49.42.75.62,2.45,1.95,5.18,3.29,7.91,3.83,1.48.29,2.91.35,4.25.16.15-.02.3-.04.45-.07.24-.04.48-.1.72-.15,1.18-.29,2.28-.78,3.28-1.45,6.26-4.19,5.66-15.88.98-23.14" style="fill:#231916;"/><path d="m500.97,341.87c.08-.04.14-.11.16-.21.03-.16-.07-.32-.23-.35-.09-.02-2.23-.66-3.59,1.55-.09.14-.05.32.09.41.14.09.29.03.41-.09,1.16-1.15,2.9-1.3,2.98-1.29.07.01.13,0,.18-.02" style="fill:#231916;"/><path d="m509.4,338.49c.08-.04.14-.11.16-.21.03-.16-.07-.32-.23-.35-.09-.02-2.23-.66-3.59,1.55-.09.14-.05.32.09.41.14.09.29.03.41-.09,1.16-1.15,2.9-1.3,2.98-1.29.07.01.13,0,.18-.02" style="fill:#231916;"/><path d="m499.29,345.5c.11.7.61,1.2,1.11,1.12.5-.08.82-.71.71-1.4-.11-.7-.61-1.2-1.11-1.12-.5.08-.82.71-.71,1.4" style="fill:#231916;"/><path d="m507.43,342.72c.11.7.61,1.2,1.11,1.12.5-.08.82-.71.71-1.4-.11-.7-.61-1.2-1.11-1.12-.5.08-.82.71-.71,1.4" style="fill:#231916;"/><path d="m506.23,349.11s.03,0,.04,0c1.47-.45,1.92-1.71,1.94-1.76.05-.14-.02-.29-.16-.34-.14-.05-.29.02-.34.16-.02.05-.39,1.06-1.59,1.43-.14.04-.22.19-.17.33.04.12.16.2.29.18" style="fill:#231916;"/><path d="m502.32,324.38s3.66,18-13.23,26.49c-16.89,8.49-3.28-24.25-3.28-24.25l16.51-2.23Z" style="fill:#231916;"/><path d="m503.67,353.51c.27.38.69.74,1.28,1,1.39.59,5.08.08,5.81-2.65.1-.37.15-.78.13-1.24-.09-1.71-1.3-1.47-2.53-.4-.76.66-1.77,1.24-3.42,1.25-1.72,0-1.98,1.04-1.27,2.03" style="fill:#231916;"/><path d="m503.67,353.51c.27.38.69.74,1.28,1,1.39.59,5.08.08,5.81-2.65-.97-.23-2.5-.19-3.74.83,0,0-2.6-.18-3.36.81" style="fill:#f08e56;"/><path d="m491.17,352.32c1.69.62,3.42.13,3.86-1.1.45-1.23-.86-2.82-2.24-3.35-1.68-.65-3.42-.13-3.86,1.1-.45,1.23.56,2.73,2.24,3.35" style="fill:#fff;"/><path d="m492.49,352.6l.05-.46c-1.54-.17-2.62-.78-3.06-1.7-.32-.67-.26-1.45.16-2.09.89-1.37,3.63.02,3.66.04l.21-.41c-.13-.07-3.14-1.59-4.26.12-.51.77-.58,1.73-.19,2.55.51,1.07,1.72,1.77,3.43,1.96" style="fill:#231916;"/><path d="m508.1,353.05s.07-.03.08-.06c.01-.05-.01-.1-.06-.11-.13-.04-3.09-.94-4.51.58-.03.04-.03.1,0,.13.04.04.1.03.13,0,1.34-1.44,4.29-.54,4.32-.53.01,0,.03,0,.04,0" style="fill:#231916;"/><path d="m580.33,279.96c-1.94.74-3.84,1.03-5.67,1.1.07-.48.13-.99.2-1.56.32-2.44,5.75-5.56,5.59-6.95-.35-3.03-6.69,2.06-11.78,3.2-3.46.77-8.8,6.51-10.08,7.97l-3.43,5.88c-.88,3.61-.73,4.67-.12,4.83,6.08,1.6,14.24-1.88,14.24-1.88,1.12-.44,1.95.39,5.28-.27.37-.11,4.51-2.36,4.9-2.61.56-.36,3.51-1.31,3.84-1.95.24-.05-2.97-7.77-2.97-7.77" style="fill:#fff;"/><path d="m571.23,292.94c-1.7,0-3.59-.29-5.69-.98-.48-.16-.87-.45-1.22-.71-.12-.09-.25-.18-.37-.26-.14-.09-.17-.28-.08-.41.09-.14.28-.17.41-.08.13.09.26.18.39.28.32.24.66.49,1.05.62,4.96,1.63,9.31,1.19,12.95-1.31,2.54-1.75,3.81-3.94,3.97-4.22.76-3.19,1.3-6.83.93-7.29,0,0-.03.02-.06.04-3.6,2.28-7.06,2.57-9.67,2.57-.16,0-.3-.13-.3-.3s.13-.3.3-.3c2.53,0,5.88-.28,9.35-2.48.35-.22.6-.12.71-.03.93.67-.18,5.8-.69,7.97,0,.02-.01.05-.03.07-.04.08-3.71,6.83-11.96,6.83" style="fill:#231916;"/><path d="m553.58,293.46c.75-3.45,5.33-15.22,15.26-18.19,1.92-.57,4.12-1.48,6.03-2.39,2.5-1.2,4.48-2.15,5.49-1.59.35.19.56.55.62,1.05.08.7-.76,1.58-2.26,3.07-1.56,1.56-3.51,3.51-3.69,5.16-.02.16-.17.28-.33.26-.16-.02-.28-.16-.26-.33.21-1.86,2.24-3.89,3.87-5.51,1-1,2.14-2.13,2.08-2.58-.05-.45-.25-.56-.31-.59-.75-.41-2.79.57-4.95,1.61-1.94.93-4.11,2.17-6.16,2.44-4.49.6-12.01,7.66-14.74,17.61h-.64Z" style="fill:#231916;"/><path d="m573,284.73c-.06,0-.13-.02-.18-.06-4-3.13-8.17-1.32-8.22-1.3-.15.07-.33,0-.39-.15s0-.33.15-.39c.05-.02,4.53-1.98,8.83,1.38.13.1.15.29.05.42-.06.08-.15.11-.23.11" style="fill:#231916;"/><path d="m580.55,284.09s3.77-.91,6.55-5.68,4.91-2.97,2.79,1.53c-.97,2.05-3.7,6.32-6.97,6.04-3.27-.28-2.37-1.88-2.37-1.88" style="fill:#fff;"/><path d="m580.77,284.34c-.04.12-.07.32.04.53.23.42.99.71,2.13.81,2.97.26,5.59-3.57,6.67-5.87,1.07-2.27.94-3.66.51-3.89-.38-.2-1.44.34-2.78,2.63-2.53,4.35-5.84,5.56-6.59,5.78m2.45,1.95c-.11,0-.22,0-.33-.01-1.4-.12-2.28-.5-2.61-1.13-.32-.6,0-1.17.01-1.19.04-.07.11-.12.19-.14.04,0,3.69-.95,6.36-5.54,1.32-2.27,2.66-3.34,3.57-2.86.93.49.83,2.37-.25,4.67-1.11,2.36-3.78,6.22-6.93,6.22" style="fill:#231916;"/><path d="m579.55,287.14s4.72-2.75,5.06-8.27c.34-5.51,3.71-4.65,3.83.32.06,2.27-1.4,7.34-4.45,8.55-3.05,1.21-4.45-.61-4.45-.61" style="fill:#fff;"/><path d="m579.55,287.14h0,0Zm.47.05c.49.41,1.73,1.13,3.87.28,2.86-1.14,4.32-6.06,4.26-8.27-.06-2.37-.9-3.8-1.68-3.81-.67,0-1.41,1.07-1.56,3.5-.3,4.82-3.79,7.56-4.89,8.3m1.99,1.28c-1.78,0-2.65-1.08-2.69-1.14-.05-.07-.07-.16-.06-.24.02-.08.07-.16.14-.2.05-.03,4.59-2.75,4.92-8.03.18-3,1.22-4.06,2.14-4.06,0,0,.02,0,.02,0,1.04.02,2.19,1.4,2.26,4.4.06,2.41-1.48,7.58-4.63,8.83-.81.32-1.51.44-2.1.44" style="fill:#231916;"/><path d="m576.16,288.8s5.24-2.5,4.49-7.97c-.75-5.47,2.72-5.28,3.82-.43.5,2.21.13,7.77-3.18,9.07-3.31,1.3-5.14-.66-5.14-.66" style="fill:#fff;"/><path d="m576.16,288.8h0,0Zm.52.05c.61.45,2.15,1.26,4.51.33,3.21-1.26,3.44-6.75,2.99-8.72-.52-2.31-1.63-3.55-2.4-3.41-.66.12-1.17,1.32-.84,3.74.65,4.72-3.04,7.33-4.27,8.06m2.42,1.36c-2,0-3.09-1.14-3.15-1.21-.06-.07-.09-.17-.07-.26.02-.09.08-.17.16-.21.21-.1,5.03-2.47,4.33-7.66-.41-3,.42-4.24,1.32-4.41,1.01-.19,2.42.95,3.08,3.87.25,1.12.3,3.1-.16,5.01-.38,1.58-1.25,3.63-3.2,4.4-.87.34-1.64.47-2.31.47" style="fill:#231916;"/><path d="m573.87,287.77c1.3-.25,2.82-.78,3.59-2.89,1.73-4.7,4.07-4.52,3.98-1.4-.1,3.33-2.05,6.99-5.1,8.2l-2.47-3.91Z" style="fill:#fff;"/><path d="m576.34,291.98c-.12,0-.23-.07-.28-.19-.06-.15.01-.33.17-.39,3.11-1.24,4.83-4.93,4.92-7.94.03-1.08-.25-1.84-.72-1.93-.64-.12-1.74.91-2.68,3.45-.83,2.24-2.47,2.82-3.82,3.08-.16.03-.32-.08-.35-.24-.03-.16.07-.32.24-.35,1.26-.24,2.65-.75,3.37-2.7.95-2.58,2.23-4.04,3.35-3.83.8.15,1.25,1.1,1.2,2.53-.1,3.2-1.94,7.14-5.29,8.47-.04.02-.07.02-.11.02" style="fill:#231916;"/><path d="m580.45,284.09s3.77-.91,6.55-5.68,4.91-2.97,2.79,1.53c-.97,2.05-3.7,6.32-6.97,6.04-3.27-.28-2.37-1.88-2.37-1.88" style="fill:#fff;"/><path d="m580.67,284.34c-.04.12-.07.32.04.53.23.42.99.71,2.13.81,2.97.26,5.59-3.57,6.67-5.87,1.07-2.27.94-3.66.51-3.89-.38-.2-1.44.34-2.78,2.63-2.53,4.35-5.84,5.56-6.59,5.78m2.45,1.95c-.11,0-.22,0-.33-.01-1.4-.12-2.28-.5-2.61-1.13-.32-.6,0-1.17.01-1.19.04-.07.11-.12.19-.14.04,0,3.69-.95,6.36-5.54,1.32-2.27,2.66-3.34,3.57-2.86.93.49.83,2.37-.25,4.67-1.11,2.36-3.78,6.22-6.93,6.22" style="fill:#231916;"/><path d="m579.45,287.14s4.72-2.75,5.06-8.27c.34-5.51,3.71-4.65,3.83.32.06,2.27-1.4,7.34-4.45,8.55-3.05,1.21-4.45-.61-4.45-.61" style="fill:#fff;"/><path d="m579.45,287.14h0,0Zm.47.05c.49.41,1.73,1.13,3.87.28,2.86-1.14,4.32-6.06,4.26-8.27-.06-2.37-.9-3.8-1.68-3.81-.67,0-1.41,1.07-1.56,3.5-.3,4.82-3.79,7.56-4.89,8.3m1.99,1.28c-1.78,0-2.65-1.08-2.69-1.14-.05-.07-.07-.16-.06-.24.02-.08.07-.16.14-.2.05-.03,4.59-2.75,4.92-8.03.18-3,1.22-4.06,2.14-4.06,0,0,.02,0,.02,0,1.04.02,2.19,1.4,2.26,4.4.06,2.41-1.48,7.58-4.63,8.83-.81.32-1.51.44-2.1.44" style="fill:#231916;"/><path d="m576.06,288.8s5.24-2.5,4.49-7.97c-.75-5.47,2.72-5.28,3.82-.43.5,2.21.13,7.77-3.18,9.07-3.31,1.3-5.14-.66-5.14-.66" style="fill:#fff;"/><path d="m576.06,288.8h0,0Zm.52.05c.61.45,2.15,1.26,4.51.33,3.21-1.26,3.44-6.75,2.99-8.72-.52-2.31-1.63-3.55-2.4-3.41-.66.12-1.17,1.32-.84,3.74.65,4.72-3.04,7.33-4.27,8.06m2.42,1.36c-2,0-3.09-1.14-3.15-1.21-.07-.07-.09-.17-.07-.26.02-.09.08-.17.16-.21.21-.1,5.03-2.47,4.33-7.66-.41-3,.42-4.24,1.32-4.41,1.01-.19,2.42.95,3.08,3.87.25,1.12.3,3.1-.16,5.01-.38,1.58-1.25,3.63-3.2,4.4-.87.34-1.64.47-2.31.47" style="fill:#231916;"/><path d="m573.77,287.77c1.3-.25,2.82-.78,3.59-2.89,1.73-4.7,4.07-4.52,3.98-1.4-.1,3.33-2.05,6.99-5.1,8.2l-2.47-3.91Z" style="fill:#fff;"/><path d="m576.24,291.98c-.12,0-.23-.07-.28-.19-.06-.15.01-.33.17-.39,3.11-1.24,4.83-4.93,4.92-7.94.03-1.08-.25-1.84-.72-1.93-.64-.12-1.74.91-2.68,3.45-.83,2.24-2.47,2.82-3.82,3.08-.16.03-.32-.08-.35-.24-.03-.16.07-.32.24-.35,1.26-.24,2.65-.75,3.37-2.7.95-2.58,2.23-4.04,3.35-3.83.8.15,1.25,1.1,1.21,2.53-.1,3.2-1.94,7.14-5.29,8.47-.04.02-.07.02-.11.02" style="fill:#231916;"/><path d="m393.11,308.67s-3.87.23-7.92-3.53c-4.05-3.76-5.56-1.41-2.22,2.27,1.52,1.68,5.38,4.97,8.43,3.75,3.04-1.22,1.72-2.49,1.72-2.49" style="fill:#fff;"/><path d="m384.98,305.36c-1.95-1.81-3.12-2.02-3.42-1.71-.34.34-.06,1.71,1.62,3.57,1.71,1.89,5.33,4.78,8.09,3.67,1.07-.43,1.71-.92,1.8-1.4.05-.23-.05-.41-.11-.52-.78,0-4.3-.19-7.98-3.61m-2.24,2.26c-1.71-1.89-2.35-3.65-1.6-4.39.73-.72,2.32-.09,4.24,1.7,3.9,3.62,7.66,3.45,7.7,3.45.08,0,.16.02.22.08.02.02.49.47.36,1.14-.14.7-.86,1.32-2.17,1.84-.1.04-.21.08-.31.11-3.01.92-6.7-2-8.44-3.93" style="fill:#231916;"/><path d="m394.95,311.3s-5.32-1.26-7.25-6.43c-1.93-5.17-4.9-3.37-3.57,1.43.61,2.19,3.48,6.61,6.74,6.88,3.27.27,4.08-1.88,4.08-1.88" style="fill:#fff;"/><path d="m394.95,311.3h0s0,0,0,0Zm-7.53-6.33c-.85-2.29-1.87-3.09-2.51-2.9-.74.24-1.13,1.85-.5,4.14.59,2.13,3.41,6.41,6.48,6.67,2.29.19,3.27-.86,3.62-1.39-1.27-.39-5.41-1.99-7.09-6.52m3.42,8.5c-3.39-.28-6.36-4.78-7.01-7.1-.8-2.89-.1-4.55.89-4.86,0,0,.01,0,.02,0,.88-.27,2.18.45,3.23,3.26,1.85,4.96,6.99,6.24,7.04,6.25.08.02.15.07.19.15.04.07.05.16.02.24-.03.07-.54,1.36-2.24,1.88-.57.17-1.28.26-2.14.19" style="fill:#231916;"/><path d="m398.68,311.9s-5.74-.86-6.62-6.31c-.88-5.45-4.14-4.26-3.78.7.16,2.27,2.13,7.47,5.68,7.75,3.55.28,4.72-2.13,4.72-2.13" style="fill:#fff;"/><path d="m398.67,311.9h0s0,0,0,0Zm-6.91-6.27c-.39-2.41-1.23-3.41-1.89-3.33-.77.09-1.47,1.6-1.3,3.96.15,2.02,1.97,7.2,5.4,7.47,2.53.2,3.76-1.02,4.22-1.63-1.39-.34-5.67-1.77-6.43-6.47m2.16,8.69c-2.09-.16-3.51-1.87-4.34-3.27-1-1.69-1.53-3.6-1.61-4.75-.22-2.99.8-4.48,1.82-4.6.92-.11,2.07.84,2.55,3.83.83,5.17,6.14,6.03,6.37,6.07.09.01.18.07.22.16.04.08.05.18,0,.27-.04.08-.75,1.49-2.67,2.07-.64.2-1.42.3-2.35.23" style="fill:#231916;"/><path d="m400.57,310.25c-1.32.14-2.92.07-4.28-1.72-3.03-4-5.21-3.14-4.21-.19,1.06,3.16,4,6.09,7.27,6.36l1.22-4.46Z" style="fill:#fff;"/><path d="m399.43,314.99c.11-.03.2-.14.21-.26.01-.16-.11-.31-.27-.32-3.33-.28-6.05-3.31-7.01-6.16-.34-1.03-.3-1.83.13-2.06.57-.3,1.93.36,3.57,2.52,1.44,1.91,3.19,1.98,4.55,1.83.16-.02.28-.16.26-.33-.02-.16-.16-.28-.33-.26-1.28.14-2.75.06-4.01-1.6-1.66-2.19-3.31-3.22-4.32-2.69-.72.38-.87,1.42-.41,2.78,1.02,3.03,3.94,6.26,7.53,6.56.04,0,.08,0,.11-.01" style="fill:#231916;"/><path d="m377.71,612.34s-26.13,16.28-27.91,5.38c-6.13-37.42,19.35-61.01,35.12-76.62,10.22-10.12,70.85-51.55,75.78-37.61,2.99,8.46-13.29,24.2-25.82,38.53-8.11,9.28-13.93,18.61-14.4,22.8-.99,8.72.6,18.46-2.65,24.32-12.29,22.16-40.1,23.21-40.1,23.21" style="fill:#fff;"/><path d="m377.71,613.28c-.49,0-.9-.38-.93-.87-.04-.51.35-.96.87-1,.23-.02,22.91-1.78,34.94-15.92,5.74-6.75,8.19-15.28,7.28-25.35-1.21-13.43,10.53-25.15,21.89-36.48,10.48-10.46,20.38-20.34,18.03-29.95-.25-1-.84-1.62-1.88-1.93-5.03-1.52-18.4,4.15-37.63,15.98-16.61,10.21-31.62,21.32-36.06,25.42-.38.35-.97.32-1.32-.06-.35-.38-.32-.97.05-1.32,8.79-8.09,62.23-45.82,75.5-41.81,1.66.5,2.75,1.64,3.15,3.28,2.6,10.64-7.66,20.88-18.53,31.72-11.05,11.03-22.48,22.43-21.34,34.99.96,10.6-1.64,19.59-7.72,26.74-12.55,14.74-35.27,16.5-36.23,16.56-.02,0-.05,0-.07,0" style="fill:#30303d;"/><path d="m584.09,774.68c-4.44-14.59-9.26-28.54-14.1-39.21-.11-.23-.21-.45-.31-.68-9.05-19.64-16.1-20.96-19.93-33.03-.72-2.26-1.33-7.17-1.86-13.69-.47-5.81-.87-12.89-1.21-20.5-.22-4.96-.41-10.15-.58-15.34-.74-22.47-1.04-45.19-1.11-51.27-.02-1.03-.02-1.58-.02-1.58.98-15.32,15.91-15.5,19.98-15.11,2.74.26,5.78,3.53,7.46,5.63,0,0,0,0,.02.02.8,1,1.29,1.72,1.29,1.72,1.6-3.29,13.73-6,17.79-3.86,4.07,2.14,9.69,12.41,9.69,12.41,1.17-4.26,8.16-7.29,14.27-5.98,6.11,1.31,23.53,34.92,27.89,44.95,2.53,5.83,2.7,20.59,2.74,36.39.02,11.4-.02,23.33.71,32.83.45,5.92,3.57,16.22,7.93,28.22h0c12.37,33.99-68.29,45.84-70.65,38.07" style="fill:#fff;"/><path d="m584.93,774.43c.04.12.33.74,2.49,1.2,6.66,1.42,20.33-.49,30.38-3.12,8.6-2.25,24.24-7.42,32.37-16.76,4.96-5.69,6.22-12.02,3.77-18.8,0-.01-.01-.02-.01-.04-4.89-13.43-7.57-23-7.99-28.45-.67-8.73-.69-19.53-.7-29.98v-2.91c-.04-16.45-.27-30.51-2.67-36.04-2.32-5.36-7.91-16.42-13.24-25.66-9.37-16.25-12.93-18.55-14.03-18.79-5.51-1.19-12.19,1.52-13.24,5.35-.09.34-.39.59-.74.64-.35.04-.7-.14-.87-.45-1.53-2.8-6.18-10.41-9.33-12.06-2.11-1.11-7.32-.8-11.87.69-2.96.98-4.39,2.07-4.73,2.78-.14.28-.41.47-.72.49-.31.02-.61-.13-.79-.38,0,0-.48-.71-1.24-1.66-.01-.01-.02-.03-.03-.04-2.56-3.19-5.05-5.11-6.85-5.29-1.47-.14-9.09-.62-14.28,3.8-2.85,2.43-4.44,5.95-4.74,10.47,0,.13,0,.66.02,1.54.05,4.44.34,27.76,1.11,51.25.18,5.48.38,10.64.58,15.33.37,8.25.77,15.14,1.2,20.46.56,6.91,1.17,11.45,1.82,13.5,1.81,5.71,4.35,8.93,7.56,13.02,3.4,4.32,7.62,9.7,12.33,19.91l.31.68c4.4,9.69,9.15,22.92,14.14,39.32m8.27,3.42c-2.42,0-4.51-.17-6.14-.52-2.21-.47-3.45-1.25-3.8-2.4-4.97-16.33-9.7-29.49-14.06-39.1l-.31-.68c-4.62-10.02-8.78-15.31-12.12-19.56-3.19-4.06-5.94-7.56-7.85-13.57-.7-2.21-1.32-6.75-1.89-13.89-.43-5.35-.84-12.25-1.21-20.53-.21-4.7-.4-9.87-.58-15.35-.77-23.51-1.06-46.85-1.11-51.29-.01-1.03-.02-1.58-.02-1.58,0-.02,0-.04,0-.07.32-5.02,2.12-8.97,5.35-11.72,5.73-4.88,13.99-4.36,15.58-4.21,2.94.28,6,3.39,8.06,5.95,0,.01.02.03.03.04.23.29.44.56.62.79,1.22-1.19,3.26-2.05,4.95-2.6,4.38-1.44,10.33-2.1,13.23-.58,3.32,1.74,7.43,8.27,9.19,11.26,2.38-3.83,8.8-6.14,14.54-4.91,7.05,1.52,25.31,38.1,28.5,45.46,2.54,5.84,2.77,19.5,2.81,36.73v2.92c.02,10.42.04,21.19.7,29.85.4,5.29,3.05,14.69,7.87,27.96,0,.01,0,.02.01.04,2.71,7.44,1.33,14.36-4.08,20.58-8.44,9.69-24.45,15-33.25,17.3-8.95,2.34-18.27,3.66-25.05,3.66" style="fill:#30303d;"/><path d="m589.79,618.46c-.16,0-.33-.05-.47-.14-2.1-1.35-3.1-3.24-3.91-4.76l-.15-.29c-7.62-14.23-13.49-22.8-13.55-22.89-.27-.4-.17-.94.23-1.21.4-.27.94-.17,1.21.22.06.09,5.98,8.73,13.65,23.05l.16.29c.75,1.41,1.6,3.01,3.31,4.11.4.26.52.8.26,1.21-.17.26-.45.4-.73.4" style="fill:#30303d;"/><path d="m616.71,624.77c-.11,0-.22-.02-.33-.07-2.67-1.09-4.64-3.83-5.31-5.12-7.1-13.71-10.54-18.85-10.57-18.9-.27-.4-.16-.94.23-1.21.4-.27.94-.16,1.21.24.14.21,3.52,5.25,10.68,19.08.66,1.27,2.38,3.47,4.42,4.31.45.18.66.69.48,1.14-.14.34-.46.54-.81.54" style="fill:#30303d;"/><path d="m654.24,721.43s-.4-.05-1.15-.1c-.78-.05-1.95-.09-3.47-.06-9.39.16-32.15,2.83-59.47,22.38-3.7,2.65-6.9,5.86-9.59,9.19-.87,1.09-1.7,2.19-2.47,3.28-3.39,4.82-5.77,9.61-7.22,13.15l1.46,13.82c13.67,2.07,27.68,5.17,42.41,8.36,16.79,3.62,34.51,7.34,53.73,9.75,12.63,1.58,24.3,2.1,35,1.74-21.58-35.1-49.23-81.51-49.23-81.51" style="fill:#30303d;"/></g><g style="clip-path:url(#clippath-9);"><path d="m563.71,622.5s-3.71-.06-5.66-2.98c-8.18-12.32-23.59-37.07-34.54-52.11-7.34-10.08-11.27-15.27-15.36-13.95-5.94,1.91-8.63,14.14,1.75,37.52,11.63,26.2,34.66,84.76,38.23,96.54l15.58-65.02Z" style="fill:#fff;"/><path d="m547.07,688.32c-1.62-5.36-7.75-20.42-14.85-37.86-8.48-20.84-18.09-44.47-23.15-59.19-.51-1.48-1.01-2.91-1.5-4.28-2.5-7.09-4.66-13.21-5-19.47-.43-7.85,1.34-13.2,4.72-14.3,4.09-1.33,9.71,3.47,16.73,14.27,7.41,11.42,18,27.29,26.5,40.04,3.07,4.61,5.84,8.76,8.03,12.06,1.67,2.52,4.91,2.6,4.94,2.6l-.03,1.75c-.17,0-4.2-.1-6.37-3.38-2.19-3.3-4.96-7.45-8.03-12.05-8.51-12.76-19.09-28.63-26.51-40.06-8.56-13.19-12.9-14.16-14.72-13.56-2.51.82-3.88,5.74-3.51,12.54.33,6.01,2.34,11.73,4.9,18.99.49,1.38.99,2.81,1.5,4.3,5.04,14.67,14.64,38.27,23.12,59.1,7.11,17.48,13.26,32.58,14.9,38.02l-1.67.51Z" style="fill:#30303d;"/><path d="m549.78,668.51s-10.71-2.82-17.37-7.88c-7.46-5.67-12.57-10.01-16.32-13.32-16.13-14.27-41.23-8.8-9.96,23.98,29.8,31.23,35.58,59.3,70.1,64.94l-26.45-67.72Z" style="fill:#fff;"/><path d="m576.24,737.12s-.1,0-.15-.01c-23.66-3.87-34.15-18.27-47.42-36.5-6.34-8.72-13.54-18.59-23.18-28.7-7.09-7.43-11.76-13.94-13.89-19.34-2.41-6.13-.98-9.43.65-11.12,4.55-4.73,15.98-2.3,24.44,5.19,3.16,2.79,8.28,7.21,16.27,13.28,6.44,4.9,16.95,7.7,17.06,7.73.48.13.77.62.64,1.1-.13.48-.62.77-1.1.64-.44-.12-10.96-2.92-17.68-8.03-8.03-6.1-13.19-10.55-16.37-13.36-7.64-6.76-18.11-9.28-21.96-5.29-1.58,1.64-5.31,8.52,13.24,27.97,9.73,10.2,16.96,20.13,23.34,28.89,6.7,9.21,12.49,17.16,19.55,23.37,7.68,6.75,16.16,10.69,26.71,12.42.49.08.82.54.74,1.03-.07.44-.46.75-.89.75" style="fill:#30303d;"/><path d="m461.6,129.82s15.16-65.97,34.01-66.79c18.85-.82,14.75,17.62,40.15,19.26,25.4,1.64,25.4,20.49,11.88,28.27-13.52,7.79-52.04,17.99-55.31,26.82-3.28,8.83-27.86,3.91-30.73-7.56" style="fill:#f7cb6e;"/><path d="m490.2,154.72s-39.23-79.8-82.36-89.39c-43.13-9.58-19.17,11.98-46.32,35.94-27.15,23.96-2.53,38.34,41.46,34.34,43.99-3.99,87.22,19.1,87.22,19.1" style="fill:#f7cb6e;"/><path d="m489.91,155.24c-.13-.07-13.42-7.31-31.71-15.33-16.87-7.39-41.57-16.98-63.44-20.68-21.65-3.66-36.91-2.99-40.82,1.81-1.14,1.4-1.3,3.11-.48,5.23l-1.12.43c-.98-2.52-.75-4.68.67-6.42,4.25-5.21,19.54-6.02,41.95-2.23,12.14,2.05,33.05,7.32,63.73,20.77,18.34,8.04,31.66,15.3,31.8,15.37l-.57,1.05Z" style="fill:#231916;"/></g><polygon points="636.42 271.59 498.68 290.22 355.32 309.6 334.66 156.76 478.02 137.38 615.76 118.76 636.42 271.59" style="fill:#f08e56;"/><rect x="344.34" y="146.37" width="144.66" height="154.23" transform="translate(-26.18 57.84) rotate(-7.7)" style="fill:#ee8049;"/><polygon points="330.55 156.96 334.85 188.76 623.78 147.43 619.79 117.86 330.55 156.96" style="fill:#ed7b64;"/><polygon points="476.27 168.53 471.47 137.91 330.55 156.96 334.85 188.76 476.27 168.53" style="fill:#df5d47;"/><polygon points="569.66 280.62 546.59 127.76 566.03 125.13 589.41 277.95 569.66 280.62" style="fill:#f6bf69;"/><polygon points="414.19 301.63 395.57 148.17 417.12 145.26 434.31 298.92 414.19 301.63" style="fill:#f5af48;"/><g style="clip-path:url(#clippath-10);"><path d="m462.37,139.12s-68.73-18.67-72.63,66.14c-3.89,84.81-3.12,155.42-95.91,192.71l13.71,10.87-7.94,21.81s67.73-22.2,93.58-69.97c55.73-103.03,3.69-203,69.19-221.56" style="fill:#f7cb6e;"/><path d="m471.14,137.85s80.14-50.83,131.46,93.77l-16.22-8.42-6.1,15.73s-23.11-96.96-109.14-101.08" style="fill:#f7cb6e;"/></g><g><path d="m498.91,519.3l-7.68.54.56,8.02-2.91.2-.56-8.02-7.46.52-.16-2.3,12.58-.88c.32-2.57.23-4.53.11-6.24l-11.06.77-.16-2.3,13.86-.97.13,1.8c.13,1.87.27,3.9-.03,6.74l2.62-.18.16,2.3Z" style="fill:#fff;"/><path d="m526.77,515.04l.16,2.28-18.05,1.26-.16-2.28,7.57-.53-.12-1.73-5.38.38-.5-7.12,13.71-.96.16,2.26-10.87.76.18,2.6,11.04-.77.16,2.26-5.64.39.12,1.73,7.61-.53Zm-15.82,4.75l13.95-.98.47,6.77-2.86.2-.32-4.51-11.08.78-.16-2.26Z" style="fill:#fff;"/></g><g><path d="m219.55,448.18l-9.47-2.99-3.18,10.1-3.58-1.13,3.18-10.1-9.21-2.9.91-2.89,15.52,4.89c1.62-3,2.45-5.44,3.13-7.6l-13.65-4.3.91-2.89,17.1,5.39-.71,2.27c-.74,2.35-1.55,4.92-3.27,8.24l3.24,1.02-.91,2.89Z" style="fill:#da4c4b;"/><path d="m244.55,452.88l-.9,2.87-22.27-7.02.9-2.87,9.34,2.95.69-2.18-6.64-2.09,2.82-8.96,16.92,5.33-.9,2.84-13.41-4.23-1.03,3.28,13.62,4.29-.9,2.84-6.96-2.19-.69,2.18,9.39,2.96Zm-21.27-1.69l17.21,5.43-2.69,8.52-3.53-1.11,1.79-5.68-13.68-4.31.9-2.84Z" style="fill:#da4c4b;"/><path d="m260.44,456.31c-1.75,5.54-5.6,8.14-9.32,6.97s-5.38-5.51-3.64-11.05c1.74-5.51,5.58-8.08,9.3-6.91s5.39,5.48,3.65,11Zm-9.55-3.01c-1.18,3.74-.55,6.13,1.27,6.7,1.82.57,3.71-1.02,4.89-4.76,1.17-3.71.54-6.1-1.28-6.68-1.82-.57-3.71,1.02-4.88,4.74Zm19.71-5.58l-7.95,25.23-3.53-1.11,7.95-25.22,3.53,1.11Z" style="fill:#da4c4b;"/><path d="m280.25,466.9l-9.77-3.08,4.02-12.75,3.32,1.05-1.21,3.85,3.19,1,1.21-3.85,3.26,1.03-1.58,5.02,2.09.66,2.06-6.52,3.29,1.04-5.62,17.83-3.29-1.04,2.65-8.41-2.09-.66-1.52,4.83Zm8.74,10.65l-.9,2.87-17.21-5.43,2.58-8.19,3.53,1.11-1.68,5.32,13.68,4.31Zm-10.06-17.82l-3.19-1-1.03,3.28,3.19,1,1.03-3.28Zm10.35,14.76l-3.35-1.05,5.98-18.97,3.35,1.05-5.98,18.97Z" style="fill:#da4c4b;"/><path d="m314.56,482.85l-.92,2.92-22.32-7.04.92-2.92,22.32,7.04Zm-1.27-4.27l-17.32-5.46,4.41-13.98,17.13,5.4-.91,2.89-13.54-4.27-.83,2.65,12.98,4.09-.88,2.78-12.98-4.09-.89,2.81,13.73,4.33-.9,2.84Z" style="fill:#da4c4b;"/></g><g><path d="m160.22,453.11c-2.44,7.73-6.46,13.6-16.79,15.54l-1.07-3.34c4.47-.84,7.59-2.41,9.87-4.72l-7.24-1.56.5-3.17,8.72,2.21c.58-.99,1.11-2.02,1.59-3.19l-7.79-2.46.9-2.87,11.29,3.56Zm8.84.15l-7.93,25.14-3.53-1.11,3.97-12.59-4.6-1.45.92-2.92,4.6,1.45,3.04-9.64,3.53,1.11Z" style="fill:#da4c4b;"/><path d="m179.78,474.31c1.06.27,2.11.49,3.17.67l-.6,2.66c-5.48-.74-11.18-2.42-15.61-3.78l.56-3.07c.88.28,1.82.57,2.78.88l3.55-11.25-2.14-.68.91-2.89,13.83,4.36-.91,2.89-2.11-.67-3.43,10.87Zm-6.25-1.64c.91.29,1.84.52,2.78.79l3.49-11.08-2.76-.87-3.52,11.17Zm19.53-11.82l-7.93,25.14-3.56-1.12,7.93-25.14,3.56,1.12Z" style="fill:#da4c4b;"/><path d="m214.24,470.35c-2.43,7.7-6.95,13.18-17.06,14.73l-.95-3.42c7.26-1.1,11.23-4.17,13.5-9.58l-8.22-2.59.9-2.87,11.83,3.73Zm8.16-.31l-7.93,25.14-3.56-1.12,7.93-25.14,3.56,1.12Z" style="fill:#da4c4b;"/><path d="m242.18,497.53l-.92,2.92-22.32-7.04.92-2.92,22.32,7.04Zm-12.74-19.69l-3.34-1.05.9-2.87,18.73,5.91-.9,2.87-3.34-1.05-2.38,7.54,3.26,1.03-.9,2.87-18.52-5.84.9-2.87,3.21,1.01,2.38-7.54Zm8.54,2.69l-5.03-1.59-2.38,7.54,5.03,1.59,2.38-7.54Z" style="fill:#da4c4b;"/><path d="m249.65,496.88c3.67,1.13,6.69,1.93,10.22,2.47l-.58,2.97c-4.04-.62-7.53-1.59-11.95-2.99l-2.14-.67,5.48-17.39,12.47,3.93-.92,2.92-8.94-2.82-1.29,4.1,7.92,2.5-.89,2.81-7.92-2.5-1.47,4.67Zm20.91-11.63l-7.94,25.17-3.56-1.12,7.94-25.17,3.56,1.12Z" style="fill:#da4c4b;"/><path d="m273.36,510.21l14,4.41-.91,2.89-17.53-5.53,2.36-7.48,3.53,1.11-1.45,4.59Zm18.92-3.94l-.9,2.84-22.19-7,.9-2.84,8.22,2.59.96-3.06,3.53,1.11-.96,3.06,10.44,3.29Zm-3.74-9.13c.21-.59.41-1.22.6-1.82l-13.73-4.33.9-2.87,17.23,5.43-.75,2.38c-.78,2.48-1.58,5-3.3,8.05l-3.4-1.34c.57-1.05,1.04-1.98,1.45-2.91l-13.98-3.72.54-3.1,14.44,4.22Z" style="fill:#da4c4b;"/><path d="m322.05,514.24l-.9,2.84-22.27-7.02.9-2.84,22.27,7.02Zm-5.42,8.04c-.94,2.98-4.71,3.65-10.04,1.97-5.33-1.68-8-4.38-7.07-7.36.93-2.95,4.68-3.66,10.01-1.98,5.33,1.68,8.02,4.42,7.09,7.37Zm-14.7-18.53c4.79,1.06,7.72.15,8.82-1.39l-6.56-2.07.9-2.87,18.23,5.75-.9,2.87-6.58-2.08c.02,1.9,1.9,4.32,6.46,6.21l-2.12,2.42c-4.49-1.9-6.99-4.61-7.52-7.41-2.07,1.99-5.64,2.78-10.44,1.75l-.29-3.18Zm11.11,17.4c.41-1.31-1.09-2.42-4.38-3.45-3.29-1.04-5.16-1-5.57.31s1.08,2.44,4.38,3.48c3.29,1.04,5.17.97,5.58-.34Z" style="fill:#da4c4b;"/><path d="m336.16,521.64c-2.39-1.74-3.68-4.1-4.05-6.65-1.87,2.2-4.47,3.63-7.64,3.71l-.9-3.41c4.35-.16,7.15-2.79,8.24-5.89l-4.84-1.53.91-2.89,13.25,4.18-.91,2.89-4.79-1.51c-.8,2.9-.01,6.39,3.34,8.83l-2.6,2.27Zm5.66,8.45c-.96,3.06-4.73,3.82-9.95,2.17-5.25-1.65-7.9-4.44-6.93-7.5.96-3.06,4.74-3.82,9.98-2.17,5.22,1.64,7.87,4.43,6.91,7.49Zm-3.53-1.11c.45-1.42-1.02-2.63-4.23-3.65-3.24-1.02-5.14-.87-5.59.55-.45,1.42,1.02,2.63,4.26,3.66,3.21,1.01,5.11.86,5.56-.56Zm4.39-14.31l1.91-6.06,3.53,1.11-4.72,14.96-3.53-1.11,1.88-5.98-3.69-1.16.92-2.92,3.69,1.16Z" style="fill:#da4c4b;"/></g></g></g></svg>