<?xml version="1.0" encoding="utf-8"?>
<!-- Generator: Adobe Illustrator 27.1.0, SVG Export Plug-In . SVG Version: 6.00 Build 0)  -->
<svg version="1.1" id="Layer_1" xmlns="http://www.w3.org/2000/svg" xmlns:xlink="http://www.w3.org/1999/xlink" x="0px" y="0px"
	 viewBox="0 0 800 817.8" style="enable-background:new 0 0 800 817.8;" xml:space="preserve">
<style type="text/css">
	.st0{fill:#F8DCAD;}
	.st1{clip-path:url(#SVGID_00000010271593938842843600000000018373842812537745_);fill:#DA4C4B;}
	.st2{fill:#FFFFFF;}
	.st3{clip-path:url(#SVGID_00000127013733895510335900000010381806204755300016_);fill:#FFFFFF;}
	.st4{clip-path:url(#SVGID_00000023281700956724881750000011432380977858806929_);}
	.st5{clip-path:url(#SVGID_00000157266595722109446810000003538712878098050480_);fill:#ED7B64;}
	.st6{clip-path:url(#SVGID_00000157266595722109446810000003538712878098050480_);fill:#BEBE61;}
	.st7{clip-path:url(#SVGID_00000157266595722109446810000003538712878098050480_);fill:#F7CB6E;}
	.st8{clip-path:url(#SVGID_00000145760428532480258720000010955501431242307998_);fill:#ED7B64;}
	.st9{clip-path:url(#SVGID_00000145760428532480258720000010955501431242307998_);fill:#BEBE61;}
	.st10{clip-path:url(#SVGID_00000145760428532480258720000010955501431242307998_);fill:#F7CB6E;}
	.st11{clip-path:url(#SVGID_00000023281700956724881750000011432380977858806929_);fill:#999C3F;}
	.st12{clip-path:url(#SVGID_00000023281700956724881750000011432380977858806929_);fill:#BEBE61;}
	.st13{clip-path:url(#SVGID_00000023281700956724881750000011432380977858806929_);fill:#D8DC96;}
	.st14{clip-path:url(#SVGID_00000155852412709801737510000009306021960028464574_);fill:#EAECF1;}
	.st15{clip-path:url(#SVGID_00000023281700956724881750000011432380977858806929_);fill:#FFFFFF;}
	.st16{clip-path:url(#SVGID_00000023281700956724881750000011432380977858806929_);fill:#30303D;}
	.st17{clip-path:url(#SVGID_00000023281700956724881750000011432380977858806929_);fill:#F08E56;}
	.st18{clip-path:url(#SVGID_00000023281700956724881750000011432380977858806929_);fill:#231916;}
	.st19{opacity:0.2;clip-path:url(#SVGID_00000023281700956724881750000011432380977858806929_);}
	.st20{clip-path:url(#SVGID_00000109721728868626436850000009671340374199253656_);fill:#75A4BF;}
	.st21{clip-path:url(#SVGID_00000151517516720389786480000009907407146926793903_);fill:#75A4BF;}
	.st22{clip-path:url(#SVGID_00000085964292262121313770000015143526144077045175_);fill:#75A4BF;}
	.st23{clip-path:url(#SVGID_00000023281700956724881750000011432380977858806929_);fill:#DA4C4B;}
	.st24{clip-path:url(#SVGID_00000023281700956724881750000011432380977858806929_);fill:#F7CB6E;}
	.st25{fill:#231916;}
	.st26{font-family:'AdobeMyungjoStd-Medium-KSCpc-EUC-H';}
	.st27{font-size:11.623px;}
	.st28{clip-path:url(#SVGID_00000171706891931439039650000014699873705662207112_);fill:#FFFFFF;}
	.st29{clip-path:url(#SVGID_00000171706891931439039650000014699873705662207112_);fill:#30303D;}
	.st30{clip-path:url(#SVGID_00000171706891931439039650000014699873705662207112_);fill:#F7CB6E;}
	.st31{clip-path:url(#SVGID_00000171706891931439039650000014699873705662207112_);fill:#231916;}
	.st32{fill:#F08E56;}
	.st33{fill:#EE8049;}
	.st34{fill:#ED7B64;}
	.st35{fill:#DF5D47;}
	.st36{fill:#F6BF69;}
	.st37{fill:#F5AF48;}
	.st38{clip-path:url(#SVGID_00000042732935310562232090000001292978204671964830_);fill:#F7CB6E;}
	.st39{fill:#DA4C4B;}
</style>
<g>
	<rect class="st0" width="800" height="819.1"/>
	<g>
		<defs>
			<rect id="SVGID_1_" width="800" height="819.1"/>
		</defs>
		<clipPath id="SVGID_00000052076187950582407270000016546923162769906327_">
			<use xlink:href="#SVGID_1_"  style="overflow:visible;"/>
		</clipPath>
		<path style="clip-path:url(#SVGID_00000052076187950582407270000016546923162769906327_);fill:#DA4C4B;" d="M85.2,354.2
			l-10.8,34.3c11.2,7.8,16.6,22.3,12.3,36.1c-4.3,13.7-17,22.5-30.7,22.5l-10.8,34.3l363.6,116l40.1-127.1L85.2,354.2z"/>
	</g>
	<polygon class="st2" points="403.4,587.2 112.5,494.1 147.7,382.4 438.6,475.5 	"/>
	<g>
		<defs>
			<rect id="SVGID_00000062150208499500158140000003870899465332731313_" width="800" height="819.1"/>
		</defs>
		<clipPath id="SVGID_00000183941718296008792060000017567563344538838912_">
			<use xlink:href="#SVGID_00000062150208499500158140000003870899465332731313_"  style="overflow:visible;"/>
		</clipPath>
		<path style="clip-path:url(#SVGID_00000183941718296008792060000017567563344538838912_);fill:#FFFFFF;" d="M99.6,477.7
			c0.4-1.1,0.3-2.4-0.1-3.6l2.4-0.9c0.6,1.7,0.6,3.5,0.1,5.2c-1.4,4.5-5.6,6.9-10.2,5.4c-4.4-1.4-6.6-6-5.2-10.3
			c0.5-1.6,1.4-2.8,2.7-3.9l1.6,1.9c-0.9,0.7-1.7,1.6-2,2.7c-0.9,3,0.7,5.9,3.7,6.8C95.9,482.2,98.7,480.8,99.6,477.7"/>
		<path style="clip-path:url(#SVGID_00000183941718296008792060000017567563344538838912_);fill:#FFFFFF;" d="M94,458
			c-0.9,2.8,0.8,5.7,3.8,6.6c3,0.9,6-0.4,6.9-3.2c0.9-2.9-0.8-5.7-3.8-6.6C98,453.8,94.9,455.2,94,458 M107.1,462.1
			c-1.4,4.4-5.9,6.6-10.1,5.3c-4.2-1.3-6.6-5.7-5.2-10.1c1.4-4.4,5.9-6.6,10.1-5.3C106.1,453.3,108.5,457.7,107.1,462.1"/>
		<path style="clip-path:url(#SVGID_00000183941718296008792060000017567563344538838912_);fill:#FFFFFF;" d="M107.9,434.3
			c4.7,1.5,6.7,4,5.4,8.2c-1.3,4.1-4.4,5-9.1,3.6l-7.9-2.5l0.8-2.6l8.3,2.6c3,0.9,4.9,0.2,5.5-1.8c0.6-2-0.4-3.7-3.4-4.7l-8.3-2.6
			l0.8-2.6L107.9,434.3z"/>
		<path style="clip-path:url(#SVGID_00000183941718296008792060000017567563344538838912_);fill:#FFFFFF;" d="M109.8,424.6l0.5-1.5
			c0.6-1.8,0.4-3.3-1.3-3.8c-1.5-0.5-2.7,0.4-3.2,2l-0.6,1.9L109.8,424.6z M103.6,420.5c0.8-2.5,2.9-5,6.2-4
			c3.3,1.1,3.6,4.4,2.8,6.9l-0.6,2l5.7,1.8l-0.8,2.6l-14.8-4.7L103.6,420.5z"/>
		<path style="clip-path:url(#SVGID_00000183941718296008792060000017567563344538838912_);fill:#FFFFFF;" d="M111.3,403.3
			c-0.9,2.8,0.8,5.7,3.8,6.6c3,0.9,6-0.4,6.9-3.2c0.9-2.9-0.8-5.7-3.8-6.6C115.2,399.1,112.2,400.4,111.3,403.3 M124.3,407.4
			c-1.4,4.4-5.9,6.6-10.1,5.3c-4.2-1.3-6.6-5.7-5.2-10.1c1.4-4.4,5.9-6.6,10.1-5.3C123.3,398.6,125.7,403,124.3,407.4"/>
	</g>
	<polygon class="st2" points="131.6,383.5 119.3,387.7 129.3,390.8 128.5,393.5 113.6,388.8 114.3,386.5 126.7,382.3 116.7,379.1 
		117.5,376.5 132.3,381.1 	"/>
	<g>
		<defs>
			<rect id="SVGID_00000171720936705642512740000002594386609206130331_" width="800" height="819.1"/>
		</defs>
		<clipPath id="SVGID_00000041981366646158591350000006501297241143040174_">
			<use xlink:href="#SVGID_00000171720936705642512740000002594386609206130331_"  style="overflow:visible;"/>
		</clipPath>
		<g style="clip-path:url(#SVGID_00000041981366646158591350000006501297241143040174_);">
			<g>
				<defs>
					<rect id="SVGID_00000000191699462894148270000003631008085694478734_" x="577.4" y="42.9" width="204.6" height="496.7"/>
				</defs>
				<clipPath id="SVGID_00000076577533385840921730000000949289812638220936_">
					<use xlink:href="#SVGID_00000000191699462894148270000003631008085694478734_"  style="overflow:visible;"/>
				</clipPath>
				<path style="clip-path:url(#SVGID_00000076577533385840921730000000949289812638220936_);fill:#ED7B64;" d="M746.6,326.2
					c0,0-0.6,6.1-8.9,9.7l8.8,8c0,0,7.5-4.6,9-9.7L746.6,326.2z"/>
				<path style="clip-path:url(#SVGID_00000076577533385840921730000000949289812638220936_);fill:#BEBE61;" d="M729.8,179.5
					c0,0-7.1,1.1-13.5-7.4l-6.6,12.3c0,0,7.3,7.2,13.5,7.6L729.8,179.5z"/>
				<path style="clip-path:url(#SVGID_00000076577533385840921730000000949289812638220936_);fill:#ED7B64;" d="M688.4,418
					c0,0-2.4,6.8-12.9,8.5l7.8,11.6c0,0,9.8-3.1,13-8.4L688.4,418z"/>
				<path style="clip-path:url(#SVGID_00000076577533385840921730000000949289812638220936_);fill:#F7CB6E;" d="M673.6,63.1
					c0,0,4.5,8-2.8,19.6l17.7,2.4c0,0,5.4-12,3-19.7L673.6,63.1z"/>
				<path style="clip-path:url(#SVGID_00000076577533385840921730000000949289812638220936_);fill:#F7CB6E;" d="M606.7,404
					c0,0,4.5,8-2.8,19.6l17.7,2.4c0,0,5.4-12,3-19.7L606.7,404z"/>
				<path style="clip-path:url(#SVGID_00000076577533385840921730000000949289812638220936_);fill:#F7CB6E;" d="M653.2,288.5
					c9.9-5.4,20.8-8.1,32-8.1c2.9,0,2.9-4.5,0-4.5c-12,0-23.7,2.9-34.3,8.7C648.3,285.9,650.6,289.9,653.2,288.5"/>
				<path style="clip-path:url(#SVGID_00000076577533385840921730000000949289812638220936_);fill:#F7CB6E;" d="M683.6,504.3
					c5.9,9.6,9.4,20.3,9.9,31.5c0.2,2.9,4.7,2.9,4.5,0c-0.6-12-4.2-23.6-10.6-33.8C685.9,499.6,682,501.9,683.6,504.3"/>
				<path style="clip-path:url(#SVGID_00000076577533385840921730000000949289812638220936_);fill:#F7CB6E;" d="M648.4,365
					c5.8-0.1,12.1,1.8,16,6.2c2.1,2.4,3.4,6,1.4,8.9c-1.9,2.7-7.6,2.2-6.5-1.9c1.5-5.8,10.7-3.7,14.7-2.5c5.4,1.6,10.2,4.6,14.1,8.6
					c1.5,1.5,3.6-1,2.1-2.5c-6-6.1-14.3-10.1-22.9-10.6c-3.9-0.2-8.1,0.6-10.3,4.2c-1.7,2.7-1.5,6.2,1,8.3c2.6,2.1,6.5,2,9.1-0.1
					c2.7-2.3,3.5-6.3,2.6-9.6c-2.4-8.7-13.4-12.4-21.5-12.3C646,361.8,646.3,365.1,648.4,365"/>
			</g>
		</g>
		<g style="clip-path:url(#SVGID_00000041981366646158591350000006501297241143040174_);">
			<g>
				<defs>
					<rect id="SVGID_00000121974317505865701240000010445461367227602848_" x="-4.3" y="164" width="791.8" height="439.4"/>
				</defs>
				<clipPath id="SVGID_00000140014300115240886090000010933858876530819211_">
					<use xlink:href="#SVGID_00000121974317505865701240000010445461367227602848_"  style="overflow:visible;"/>
				</clipPath>
				<path style="clip-path:url(#SVGID_00000140014300115240886090000010933858876530819211_);fill:#ED7B64;" d="M753.5,575.2
					c0,0-0.5,5.1-7.5,8.2l7.4,6.7c0,0,6.3-3.9,7.6-8.2L753.5,575.2z"/>
				<path style="clip-path:url(#SVGID_00000140014300115240886090000010933858876530819211_);fill:#ED7B64;" d="M29.7,587
					c0,0-0.5,5.1-7.5,8.2l7.4,6.7c0,0,6.3-3.9,7.6-8.2L29.7,587z"/>
				<path style="clip-path:url(#SVGID_00000140014300115240886090000010933858876530819211_);fill:#BEBE61;" d="M274.2,190.5
					c0,0-6,0.9-11.4-6.2l-5.6,10.3c0,0,6.2,6.1,11.4,6.4L274.2,190.5z"/>
				<path style="clip-path:url(#SVGID_00000140014300115240886090000010933858876530819211_);fill:#F7CB6E;" d="M240.3,341.7
					c0,0,3.8,6.8-2.4,16.5l14.9,2c0,0,4.5-10.2,2.5-16.6L240.3,341.7z"/>
				<path style="clip-path:url(#SVGID_00000140014300115240886090000010933858876530819211_);fill:#F7CB6E;" d="M162,565.5
					c-14.3,6.1-27.3,14.7-38.4,25.5c-1.8,1.7,0.9,4.4,2.7,2.7c11-10.6,23.7-18.9,37.7-24.9C166.2,567.9,164.2,564.6,162,565.5"/>
				<path style="clip-path:url(#SVGID_00000140014300115240886090000010933858876530819211_);fill:#F7CB6E;" d="M144.6,299.9
					c7.2-3.4,15.8-5.2,23.7-3.5c6.1,1.3,14.4,7.3,10.3,14.6c-1.1,1.8-3.5,3.5-5.7,2.4c-1.7-0.9-2.4-3.5-2.1-5.3
					c0.6-3.8,4.5-6.6,7.5-8.4c6.8-4.2,14.6-5.9,22.6-5.3c2.5,0.2,2.4-3.6,0-3.8c-10.8-0.9-24.9,2.6-31.6,11.9
					c-2.5,3.4-3.3,7.9-1,11.6c2.3,3.6,6.7,4.5,10.3,2.3c8-4.9,4.7-16.4-1.9-20.7c-9.8-6.5-24.2-3.7-34.1,1
					C140.5,297.6,142.4,300.9,144.6,299.9"/>
			</g>
		</g>
		<path style="clip-path:url(#SVGID_00000041981366646158591350000006501297241143040174_);fill:#999C3F;" d="M380.3,667.9
			c0,0-35.4-97-68.4-83.2c-32.9,13.8,49.3,75.6,61.6,111.9L380.3,667.9z"/>
		<path style="clip-path:url(#SVGID_00000041981366646158591350000006501297241143040174_);fill:#BEBE61;" d="M377.9,671.6
			c0,0-91.5-119.9-128.6-87.7c-37.1,32.2,96.9,77.7,128.6,119.8L377.9,671.6z"/>
		<path style="clip-path:url(#SVGID_00000041981366646158591350000006501297241143040174_);fill:#D8DC96;" d="M385.6,673.7
			c0,0-48.4-67.4-125.8-55.4c-77.4,12-89.5,103.8-23.9,116c65.6,12.1,125.5-39.4,149.4-23.3C409.3,727.1,385.6,673.7,385.6,673.7"/>
		<path style="clip-path:url(#SVGID_00000041981366646158591350000006501297241143040174_);fill:#999C3F;" d="M218.4,692.8
			c-0.1,0-0.2-0.1-0.3-0.2c-0.3-0.3-0.4-0.7-0.1-1c0.1-0.1,11.6-14.3,35-24.3c13.7-5.9,28.8-9.2,44.8-9.9c20-0.8,41.5,2.5,64,9.8
			c0.4,0.1,0.6,0.5,0.5,0.9c-0.1,0.4-0.5,0.6-0.9,0.5c-22.3-7.3-43.6-10.6-63.4-9.8c-15.8,0.7-30.7,3.9-44.3,9.7
			c-23.1,9.8-34.4,23.8-34.5,23.9C218.9,692.7,218.7,692.8,218.4,692.8"/>
		<path style="clip-path:url(#SVGID_00000041981366646158591350000006501297241143040174_);fill:#D8DC96;" d="M562.3,727.4
			c0,0,63.2-155.1,104.7-136.4c41.4,18.7-65.4,94.6-82.4,140.3L562.3,727.4z"/>
		<path style="clip-path:url(#SVGID_00000041981366646158591350000006501297241143040174_);fill:#BEBE61;" d="M584.2,720.8
			c0,0,17.2-77,89.4-95.4c72.2-18.4,117.1,57.5,64.2,92.6c-52.9,35.1-124.5,12.3-139.5,35.4C583.4,776.4,584.2,720.8,584.2,720.8"/>
		<path style="clip-path:url(#SVGID_00000041981366646158591350000006501297241143040174_);fill:#999C3F;" d="M737.6,675.2
			c-0.2,0.1-0.5,0.1-0.7,0c-0.1-0.1-15.2-8.1-39.1-8.1c-14,0-28.3,2.7-42.4,8c-17.6,6.7-35.1,17.5-51.9,32.2c-0.3,0.3-0.7,0.2-1-0.1
			c-0.3-0.3-0.2-0.7,0.1-1c16.9-14.8,34.5-25.7,52.4-32.5c14.3-5.4,28.7-8.1,42.9-8.1c24.2,0,39.5,8.2,39.7,8.3
			c0.3,0.2,0.5,0.6,0.3,1C737.8,675,737.7,675.1,737.6,675.2"/>
		<g style="clip-path:url(#SVGID_00000041981366646158591350000006501297241143040174_);">
			<g>
				<defs>
					<rect id="SVGID_00000002349331444097198170000005565803948881065381_" x="218.4" y="701.5" width="541.3" height="104.8"/>
				</defs>
				<clipPath id="SVGID_00000078019857638352918430000008076359762309708448_">
					<use xlink:href="#SVGID_00000002349331444097198170000005565803948881065381_"  style="overflow:visible;"/>
				</clipPath>
				<path style="clip-path:url(#SVGID_00000078019857638352918430000008076359762309708448_);fill:#EAECF1;" d="M737.6,792.1
					c-8.5,6.9-22.7,12.1-36.5,12.5c-10.7,0.4-22.4-0.2-35.1-1.7c-19.3-2.4-37-6.1-53.8-9.8c-14.8-3.2-28.8-6.3-42.5-8.4
					c-21.2-3.2-41.6-4-62.5,1.3c-40.5,10.2-71.3,14.5-96.1,15.4c-61.8,2.3-85.8-16.4-128.4-16c-8,0.1-15.3-1.3-21.4-3.8
					c-30.2-12.1-54.2-59.2,21.8-63.2c1.1-0.1,2.1-0.5,3.2-0.7c20.4-4.3,47.1-3.8,118.7-3.4c6.9,0.1,14.3,0.1,22.1,0.1
					c18.3,0.1,39,0.2,62.8,0.2c16.4,0,31.9,0,46.6-0.1c5.7,0,11.3,0,16.7-0.1c3.8,0,7.6,0,11.3,0c3.2,0,6.3,0,9.3,0
					c6,0,11.8-0.1,17.5-0.1c4.4,0,8.7,0,12.9-0.1c14.7-0.1,28.8,3.6,40.7-0.2C686.9,700.9,772.4,763.8,737.6,792.1"/>
			</g>
		</g>
		<path style="clip-path:url(#SVGID_00000041981366646158591350000006501297241143040174_);fill:#FFFFFF;" d="M400.8,564.2
			c12.7-17.4,22.4-32.2,22.4-32.2l6.5-69.6c0,0-35,10.2-50.7,27.7c-3.2,3.5-48.4,64.8-36.8,129.2L400.8,564.2z"/>
		<path style="clip-path:url(#SVGID_00000041981366646158591350000006501297241143040174_);fill:#30303D;" d="M341.5,593.2
			L341.5,593.2c-0.5,0-0.9-0.4-0.9-0.9c0.1-16.5,4.3-36.6,12-56.7c7.2-19,16.6-35.7,25.8-46c16.6-18.4,46.6-25.2,46.9-25.3
			c0.3-0.1,0.6,0,0.8,0.2s0.3,0.5,0.3,0.8l-2.2,66.9c0,0.2-0.1,0.3-0.2,0.5c-0.1,0.1-9.9,15-22.5,32.2c-0.3,0.4-0.9,0.5-1.3,0.2
			c-0.4-0.3-0.5-0.9-0.2-1.3c11.7-16,21-30,22.3-31.9l2.2-65.4c-5.7,1.5-30.4,8.6-44.7,24.4c-9.1,10.1-18.4,26.6-25.5,45.4
			c-7.5,19.9-11.7,39.8-11.8,56.1C342.5,592.8,342.1,593.2,341.5,593.2"/>
		<path style="clip-path:url(#SVGID_00000041981366646158591350000006501297241143040174_);fill:#F08E56;" d="M367.9,630.3
			c0,0,66.4,45,64,59.9c-0.7,4.2-22.7,0.2-22.7,0.2L367.9,630.3z"/>
		<path style="clip-path:url(#SVGID_00000041981366646158591350000006501297241143040174_);fill:#30303D;" d="M400.4,516
			c-0.1,0-0.3,0-0.4-0.1c-0.5-0.2-0.6-0.8-0.4-1.3c0.2-0.5,5.8-11.3,14.7-18.4c8.2-6.6,20.3-12.2,20.4-12.2c0.5-0.2,1,0,1.2,0.5
			c0.2,0.5,0,1-0.5,1.2c-0.1,0.1-12,5.6-20,12c-8.6,6.8-14.1,17.7-14.2,17.8C401.1,515.8,400.8,516,400.4,516"/>
		<path style="clip-path:url(#SVGID_00000041981366646158591350000006501297241143040174_);fill:#FFFFFF;" d="M473.3,552.8
			c0,0,0.6,50.9-40.2,63.8c-5.4,1.7-13.6,6.8-14.7,12.3c0,0-3.3-1.7-17.7,118.5h-89.5c4.5-13.8-12.1-50.3-7.6-63.6
			c23.4-68.2,38.2-103.1,38.2-103.1L473.3,552.8z"/>
		<path style="clip-path:url(#SVGID_00000041981366646158591350000006501297241143040174_);fill:#30303D;" d="M469.5,576.7
			L469.5,576.7L469.5,576.7z M400.8,750.4c0,0-0.1,0-0.1,0c-0.5-0.1-0.9-0.5-0.8-1c2.8-22.8,5.3-42.4,7.8-60.1l0.1-0.8
			c0-0.3,0.1-0.6,0.1-1c1.2-8.4,2.3-16.3,3.4-23.5c0,0,0,0,0,0c4.2-27.5,6-34.7,6.2-35.4c0.9-4.4,5.5-7.9,8.1-9.6
			c1.1-0.7,2.2-1.3,3.3-1.8c0.3-0.2,0.7-0.3,1-0.5c0.2-0.1,0.4-0.2,0.6-0.3c0,0,0,0,0.1,0c0.6-0.2,1.2-0.5,1.7-0.7
			c0.1,0,0.3-0.1,0.4-0.1l0,0c0,0,0,0,0.1,0c0,0,0,0,0,0c0,0,0.1,0,0.1,0c0.2,0,0.3-0.1,0.5-0.2c0,0,0,0,0.1,0
			c2.7-0.9,5.3-2,7.7-3.2c1.2-0.6,2.4-1.3,3.6-2c2.8-1.8,5.5-3.9,7.9-6.2c0,0,0,0,0.1-0.1c7.2-6.9,12.6-16.2,16-27.6c0,0,0,0,0,0
			c1.2-4.1,2.2-8.4,2.8-12.8c0.9-6.3,0.9-10.6,0.9-10.7c0-0.5,0.4-0.9,0.9-0.9c0.5,0,0.9,0.4,0.9,0.9c0,0.2,0,4.5-0.9,11
			c-0.7,4.5-1.6,8.9-2.9,13.1c0,0,0,0,0,0c-3.5,11.6-9,21.2-16.4,28.3c0,0,0,0-0.1,0.1c-2.5,2.4-5.3,4.6-8.3,6.5
			c-1.2,0.8-2.4,1.5-3.7,2.1c-2.5,1.3-5.2,2.4-7.9,3.3c0,0,0,0-0.1,0c-0.2,0.1-0.4,0.1-0.5,0.2c0,0,0,0-0.1,0c0,0,0,0-0.1,0l-0.1,0
			c-0.1,0-0.3,0.1-0.4,0.1c-0.5,0.2-1.1,0.4-1.6,0.6c0,0,0,0-0.1,0c-0.2,0.1-0.4,0.2-0.6,0.2c-0.3,0.1-0.6,0.3-1,0.4
			c-1.1,0.5-2.1,1.1-3.1,1.7c-4.1,2.6-6.8,5.7-7.3,8.4c0,0,0,0,0,0.1c0,0.1-1.9,7.1-6.1,35.1c0,0,0,0,0,0c-1.1,7.1-2.2,15-3.4,23.5
			c0,0.3-0.1,0.6-0.1,1l-0.1,0.8c-2.4,17.6-5,37.3-7.8,60C401.7,750.1,401.3,750.4,400.8,750.4"/>
		<path style="clip-path:url(#SVGID_00000041981366646158591350000006501297241143040174_);fill:#30303D;" d="M306.5,688.3
			c-0.1,0-0.2,0-0.3-0.1c-0.5-0.2-0.7-0.7-0.6-1.2c5.1-14.8,8.6-27.2,11.7-38.2c3-10.7,5.8-20.7,9.6-31c1.5-3.9,2.8-7.6,4.1-11
			c3.3-8.8,6.4-17.2,9.4-25c0,0,0,0,0,0c0.3-0.9,0.5-1.3,0.5-1.3c0.2-0.5,0.7-0.7,1.2-0.5c0.5,0.2,0.7,0.7,0.5,1.2
			c0,0-0.2,0.4-0.5,1.3c0,0,0,0.1,0,0.1c-2.9,7.8-6.1,16.1-9.3,24.9c-1.3,3.4-2.6,7.1-4.1,11c-3.7,10.2-6.6,20.2-9.6,30.8
			c-3.1,11-6.6,23.5-11.8,38.3C307.3,688,306.9,688.3,306.5,688.3"/>
		<path style="clip-path:url(#SVGID_00000041981366646158591350000006501297241143040174_);fill:#30303D;" d="M408.8,687.7
			L408.8,687.7L408.8,687.7c-0.6-0.2-1.3-0.5-1.9-0.7h0c-5.2-1.9-10.6-4.4-15.9-7.6c-29.7-17.9-45.5-45.7-53.3-61.2
			c-2.9-5.8-4.7-9.9-5.7-11c-0.5-0.6-2.6,3.5-5.8,11c-3,6.9-21.3,53.3-39.5,99.6c-9,22.9-18,45.8-25.1,64c6.1,2.5,13.3,3.8,21.4,3.8
			c42.7-0.4,66.6,18.2,128.4,16l16.1-86.9l4.5-24.2v0l0-0.1l0-0.1C430.4,692.5,420.6,691.8,408.8,687.7"/>
		<path style="clip-path:url(#SVGID_00000041981366646158591350000006501297241143040174_);fill:#30303D;" d="M396.9,512.7
			C396.9,512.7,396.9,512.7,396.9,512.7S396.9,512.7,396.9,512.7 M407.5,521.5c-0.3,0-0.7-0.2-0.8-0.5c-2.5-4.6-7.3-5.9-9.6-6.5
			c-0.9-0.2-1.3-0.3-1.6-0.7c-0.3-0.4-0.3-1,0.1-1.3c0.3-0.3,0.8-0.3,1.2,0c0.1,0.1,0.5,0.1,0.8,0.2c2.4,0.6,7.9,2.1,10.7,7.4
			c0.2,0.5,0.1,1-0.4,1.3C407.8,521.5,407.6,521.5,407.5,521.5"/>
		<path style="clip-path:url(#SVGID_00000041981366646158591350000006501297241143040174_);fill:#30303D;" d="M437.3,613.6
			l121.9-8.3c6.6-0.4,11.5-6.6,11-13.8L553,353.4c-0.5-7.2-6.3-12.6-12.9-12.2l-121.9,8.3c-6.6,0.4-11.5,6.6-11,13.8l17.2,238.1
			C425,608.6,430.7,614,437.3,613.6"/>
		<path style="clip-path:url(#SVGID_00000041981366646158591350000006501297241143040174_);fill:#FFFFFF;" d="M443.8,612.9
			l123.5-8.4c6.1-0.4,10.7-6.2,10.3-12.9l-17.3-239.4c-0.5-6.7-5.9-11.8-12-11.3l-123.5,8.4c-6.1,0.4-10.7,6.2-10.3,12.9l17.3,239.4
			C432.2,608.2,437.6,613.3,443.8,612.9"/>
		<path style="clip-path:url(#SVGID_00000041981366646158591350000006501297241143040174_);fill:#231916;" d="M423.9,367.6
			l15.8,218.3c0.2,3.2,2.8,5.6,5.7,5.4l117.2-8c1.3-0.1,2.5-0.7,3.4-1.8c1-1.2,1.5-2.8,1.4-4.4l-15.8-218.3
			c-0.2-3.2-2.8-5.6-5.7-5.4l-117.2,8c-1.3,0.1-2.5,0.7-3.4,1.8C424.3,364.4,423.8,366,423.9,367.6 M445.1,592.1
			c-3.2,0-5.9-2.7-6.1-6.1l-15.8-218.3c-0.1-1.8,0.5-3.6,1.6-4.9c1-1.2,2.5-1.9,4-2l117.2-8c3.3-0.2,6.3,2.5,6.5,6.1l15.8,218.3
			c0.1,1.8-0.5,3.6-1.6,4.9c-1,1.2-2.5,1.9-4,2l-117.2,8C445.3,592.1,445.2,592.1,445.1,592.1"/>
		<g style="opacity:0.2;clip-path:url(#SVGID_00000041981366646158591350000006501297241143040174_);">
			<g>
				<defs>
					<rect id="SVGID_00000012461469414664975480000012306843218629746581_" x="441.7" y="342.2" width="128.5" height="75.4"/>
				</defs>
				<clipPath id="SVGID_00000101063172505453525420000016828319933281374624_">
					<use xlink:href="#SVGID_00000012461469414664975480000012306843218629746581_"  style="overflow:visible;"/>
				</clipPath>
				<path style="clip-path:url(#SVGID_00000101063172505453525420000016828319933281374624_);fill:#75A4BF;" d="M455.7,359.2
					L556.1,416l-4.1-57.1c-0.2-3.4-3-6-6.1-5.8L455.7,359.2z"/>
			</g>
		</g>
		<g style="opacity:0.2;clip-path:url(#SVGID_00000041981366646158591350000006501297241143040174_);">
			<g>
				<defs>
					<rect id="SVGID_00000101102581391986999160000004195623353861654922_" x="419.1" y="489.4" width="162.8" height="103.9"/>
				</defs>
				<clipPath id="SVGID_00000070104331079714692410000000784008732055929242_">
					<use xlink:href="#SVGID_00000101102581391986999160000004195623353861654922_"  style="overflow:visible;"/>
				</clipPath>
				<path style="clip-path:url(#SVGID_00000070104331079714692410000000784008732055929242_);fill:#75A4BF;" d="M433.1,500.2
					l6.2,85.7c0.2,3.4,3,6,6.1,5.8l117.2-8c3.1-0.2,5.5-3.1,5.2-6.5l-0.6-7.6L433.1,500.2z"/>
			</g>
		</g>
		<g style="opacity:0.2;clip-path:url(#SVGID_00000041981366646158591350000006501297241143040174_);">
			<g>
				<defs>
					<rect id="SVGID_00000066502629662626682290000007042748144926623914_" x="409.5" y="350" width="165.7" height="136.5"/>
				</defs>
				<clipPath id="SVGID_00000075871427261143960340000013273200550642245528_">
					<use xlink:href="#SVGID_00000066502629662626682290000007042748144926623914_"  style="overflow:visible;"/>
				</clipPath>
				<path style="clip-path:url(#SVGID_00000075871427261143960340000013273200550642245528_);fill:#75A4BF;" d="M423.5,367.6
					l1.9,25.7l135.8,91.6l-3.3-46.2l-126.2-77.9l-2.9,0.2C425.6,361.3,423.2,364.2,423.5,367.6"/>
			</g>
		</g>
		<path style="clip-path:url(#SVGID_00000041981366646158591350000006501297241143040174_);fill:#DA4C4B;" d="M535.3,531.4l-63,4.5
			c-8.7,0.6-16.2-5.9-16.8-14.6c-0.6-8.7,5.9-16.2,14.6-16.8l63-4.5c8.7-0.6,16.2,5.9,16.8,14.6C550.5,523.2,544,530.7,535.3,531.4"
			/>
		<path style="clip-path:url(#SVGID_00000041981366646158591350000006501297241143040174_);fill:#231916;" d="M492,356.7
			c-0.1-1.3-1.2-2.3-2.4-2.3c-1.2,0.1-2.1,1.2-2,2.6c0.1,1.3,1.2,2.3,2.4,2.3C491.2,359.2,492.1,358,492,356.7"/>
		<path style="clip-path:url(#SVGID_00000041981366646158591350000006501297241143040174_);fill:#231916;" d="M446.4,395.5
			c0,0-4.8,2.1-1.6-13.9l10.8,6.7L446.4,395.5z"/>
		<path style="clip-path:url(#SVGID_00000041981366646158591350000006501297241143040174_);fill:#FFFFFF;" d="M420.1,310.1
			c0,0-14.6,4.5-14.6,4.5c2,8.6,5.8,21.8,11.6,33.9c12.6,26.4,33.8,45.7,61.3,55.8l10.2-27.7C440.1,355.4,420.1,310.3,420.1,310.1"
			/>
		<path style="clip-path:url(#SVGID_00000041981366646158591350000006501297241143040174_);fill:#FFFFFF;" d="M420.7,311.4
			c-0.4-0.8-16,2.8-14.9,5.1c0.2,0.5,0.4,1,0.5,1.5c2,8.5,5.1,18.8,10.8,30.5c12.6,26.4,33.8,45.7,61.3,55.8l10.2-27.7
			C445,357.5,424.4,319,420.7,311.4"/>
		<path style="clip-path:url(#SVGID_00000041981366646158591350000006501297241143040174_);fill:#231916;" d="M416.7,348.7
			c4.2,8.7,9.3,16.7,15.2,23.8c7.2,8.6,15.7,16,25.3,22c4.4,2.7,9,5.2,13.8,7.3c2.3,1,4.6,2,7,2.9c0,0,0.1,0,0.1,0
			c0.1,0,0.1,0,0.2,0c0.1,0,0.1-0.1,0.2-0.2l3.4-9.3l0.3-0.7l3.2-8.6l3.4-9.1c0.1-0.2,0-0.4-0.2-0.4c-4.1-1.8-7.9-3.7-11.6-5.8
			c-0.2-0.1-0.5-0.3-0.7-0.4c-4.6-2.6-8.9-5.5-12.9-8.4c-2.7-2-5.3-4.1-7.7-6.1c-2.5-2.2-4.9-4.4-7.1-6.6c-0.9-0.9-1.8-1.8-2.6-2.7
			c-15-15.6-23-30.7-25.2-35.1c-0.1-0.2-0.2-0.3-0.3-0.5l-0.7,0.1c0.1,0.2,0.2,0.5,0.3,0.7c1.8,3.8,7.9,15.3,19,28.2
			c2,2.3,4.1,4.7,6.4,7c1.2,1.2,2.4,2.4,3.7,3.7c2.8,2.7,5.7,5.3,8.9,7.9c1.6,1.3,3.2,2.6,4.9,3.8c4.1,3,8.4,5.9,13.2,8.6
			c0.2,0.1,0.5,0.3,0.7,0.4c3.5,2,7.2,3.9,11.1,5.6l-3.3,8.9l-3.1,8.4l-0.3,0.7l-3.4,9.2c-2.4-0.9-4.8-1.9-7.1-2.9
			c-4.7-2.1-9.2-4.5-13.4-7.2c-9.6-6-18.1-13.5-25.4-22.2c-5.8-7-10.8-14.7-14.8-23.2c-4.7-9.8-8.1-19.5-10.7-30.5
			c-0.1-0.6-0.3-1.1-0.6-1.6c-0.2-0.3-0.4-1-0.7-1.6l-0.8,0.2c0.3,0.6,0.7,1.3,0.8,1.6c0.2,0.5,0.4,1,0.5,1.5
			C408.6,329.2,412,338.9,416.7,348.7"/>
		<path style="clip-path:url(#SVGID_00000041981366646158591350000006501297241143040174_);fill:#FFFFFF;" d="M387.7,305.4
			c2.1,0.1,7.4,0.2,9.2-0.2c-0.2-0.4-0.4-0.9-0.6-1.4c-1-2.2-7.1-3.7-7.4-5c-0.5-3,7,0,12.2-0.4c3.5-0.3,7.9,1.7,9.6,2.7l5.9,4.5
			l3.5,4.5l-6.3,4.4c-0.4,0.4-3.7-1-4.3-0.8c-3.5,1-7.1,2-7.1,2c-1.7,0.6-6.8,0-7.8-0.9c-0.4,0-0.8-0.1-1.2-0.2
			c-0.6-0.2-2.6-1.6-3.1-2.1C390,312.5,387.7,305.4,387.7,305.4"/>
		<path style="clip-path:url(#SVGID_00000041981366646158591350000006501297241143040174_);fill:#231916;" d="M403.7,315.6
			c1.6-0.5,3.4-1.3,5.2-2.6c0.4-0.3,0.7-0.7,1-1c0.1-0.1,0.2-0.2,0.3-0.4c0.1-0.1,0.1-0.3,0-0.4c-0.1-0.1-0.3-0.1-0.4,0
			c-0.1,0.1-0.2,0.3-0.3,0.4c-0.2,0.3-0.5,0.7-0.8,0.9c-4.3,3-8.6,3.9-12.8,2.5c-2.9-0.9-4.8-2.7-5-2.9c-1.7-2.8-3.2-6.2-3-6.7
			c0,0,0,0,0.1,0c4.1,1.1,7.5,0.4,10-0.4c0.2,0,0.2-0.2,0.2-0.4c0-0.2-0.2-0.2-0.4-0.2c-2.4,0.7-5.7,1.4-9.7,0.3
			c-0.4-0.1-0.6,0.1-0.7,0.2c-0.7,0.9,1.9,5.5,3,7.4c0,0,0,0,0,0.1C390.3,312.6,395.8,318,403.7,315.6"/>
		<path style="clip-path:url(#SVGID_00000041981366646158591350000006501297241143040174_);fill:#231916;" d="M420.8,310.9
			c-1.7-3.1-9.6-13-19.9-13c-2,0-4.4-0.2-6.5-0.5c-2.7-0.4-4.9-0.8-5.7,0.1c-0.3,0.3-0.4,0.7-0.3,1.2c0.1,0.7,1.2,1.3,3.1,2.3
			c2,1,4.4,2.3,5,3.9c0.1,0.2,0.2,0.2,0.4,0.2c0.2-0.1,0.2-0.2,0.2-0.4c-0.7-1.7-3.3-3.1-5.3-4.2c-1.3-0.7-2.7-1.4-2.8-1.9
			c-0.1-0.4,0.1-0.6,0.1-0.7c0.6-0.6,2.8-0.3,5.2,0.1c2.1,0.3,4.6,0.9,6.6,0.5c4.5-0.7,13.8,3.8,19.3,12.6L420.8,310.9z"/>
		<path style="clip-path:url(#SVGID_00000041981366646158591350000006501297241143040174_);fill:#231916;" d="M399.6,308.2
			c0.1,0,0.1-0.1,0.2-0.1c2.9-4.2,7.5-3.7,7.5-3.6c0.2,0,0.3-0.1,0.3-0.3c0-0.2-0.1-0.3-0.3-0.3c0,0-4.9-0.6-8.1,3.9
			c-0.1,0.1-0.1,0.3,0.1,0.4C399.4,308.2,399.5,308.3,399.6,308.2"/>
		<path style="clip-path:url(#SVGID_00000041981366646158591350000006501297241143040174_);fill:#231916;" d="M488.7,321.3
			c0,0-16.9-0.2-19.6,12.2c-1.8,8.5,0.8,15.3,0.8,15.3s-8.8,1-13.3,11c-4.5,10,4.5,15,4.5,15s-13.8,9.4-2.5,14.5
			c11.3,5.1,69.1-11.9,71-22.6c2-10.6-12.5-18.4-12.5-18.4S520.5,304.6,488.7,321.3"/>
		<path style="clip-path:url(#SVGID_00000041981366646158591350000006501297241143040174_);fill:#FFFFFF;" d="M551,293.1l15.3,0.1
			c0.6,8.8,0.8,22.6-1.2,35.8c-4.4,28.9-19.1,53.5-42.4,71.2l-17.9-23.5C545,342.2,551,293.3,551,293.1"/>
		<path style="clip-path:url(#SVGID_00000041981366646158591350000006501297241143040174_);fill:#FFFFFF;" d="M550.8,294.6
			c0.1-0.8,16.1-1.9,15.8,0.5c-0.1,0.5-0.1,1.1-0.1,1.6c0.5,8.7,0.6,19.5-1.4,32.3c-4.4,28.9-19.1,53.5-42.4,71.2l-17.9-23.5
			C540.9,345.7,549.4,302.8,550.8,294.6"/>
		<path style="clip-path:url(#SVGID_00000041981366646158591350000006501297241143040174_);fill:#231916;" d="M566.8,296.7
			c0-0.5,0-1,0.1-1.6c0.1-0.4,0.2-1.2,0.3-1.8h-0.8c-0.1,0.6-0.1,1.3-0.2,1.7c-0.1,0.6-0.1,1.1-0.1,1.7c0.7,11.3,0.2,21.5-1.4,32.3
			c-1.4,9.3-3.9,18.2-7.4,26.6c-4.4,10.4-10.4,20-17.8,28.6c-3.3,3.8-6.9,7.4-10.8,10.8c-1.9,1.7-3.9,3.3-5.9,4.9l-5.9-7.8l-0.5-0.6
			l-5.4-7.1l-5.7-7.5c3.2-2.8,6.2-5.6,9-8.6c0.2-0.2,0.4-0.4,0.6-0.6c3.7-3.9,7.1-8,10.1-12.1c1.2-1.7,2.4-3.4,3.6-5.1
			c2.3-3.4,4.4-6.8,6.2-10.2c0.9-1.5,1.7-3.1,2.4-4.6c1.5-2.9,2.8-5.8,4-8.6c6.8-15.6,9.2-28.4,9.9-32.5c0-0.2,0-0.5,0.1-0.8
			l-0.7,0.1c0,0.2-0.1,0.4-0.1,0.6c-0.8,4.8-4,21.6-13.9,40.9c-0.6,1.1-1.1,2.2-1.7,3.3c-1.5,2.7-3.1,5.5-4.9,8.3
			c-1.7,2.7-3.6,5.4-5.6,8.1c-2.9,4-6.2,8-9.8,11.8c-0.2,0.2-0.4,0.4-0.6,0.6c-2.9,3.1-6,6-9.4,8.9c-0.1,0.1-0.2,0.3,0,0.5l5.9,7.8
			l5.5,7.3l0.5,0.6l6,7.9c0.1,0.1,0.1,0.1,0.2,0.1c0.1,0,0.1,0,0.2,0c0,0,0.1,0,0.1,0c2-1.5,4-3.1,5.9-4.8c4-3.5,7.7-7.2,11.1-11.1
			c7.4-8.5,13.4-18.1,17.8-28.4c3.6-8.5,6.2-17.6,7.7-27.2C567,318.3,567.5,308,566.8,296.7"/>
		<path style="clip-path:url(#SVGID_00000041981366646158591350000006501297241143040174_);fill:#231916;" d="M552.8,469.7
			c0.9,6.8-23,15.7-53.5,19.8c-30.5,4.1-55.9,1.9-56.8-4.9c0-0.3,0-0.7,0-1c0.3-0.6,0.5-1.2,0.8-1.7c8-16.9,16.4-31.2,24.6-39.3
			c0,0,0,0,0,0c0.8,0.4,34.6,16.6,67.6-2.8c0,0,7.1,9.7,16.5,28.4c0.2,0.4,0.4,0.8,0.6,1.3C552.8,469.5,552.8,469.6,552.8,469.7"/>
		<path style="clip-path:url(#SVGID_00000041981366646158591350000006501297241143040174_);fill:#F7CB6E;" d="M466.6,368.2
			c0,0,41.1,17.6,68.3-29.6c0,0-6.1,37.5-4.2,41.4c12.8,26.4,9.4,26.2,6.5,33.3c0,0,3.1,22.3-1.5,27.1c-9.1,9.3-47.8,16.9-67.6,2.8
			c0,0-4.7-15.5-3.8-35.8C464.1,407.4,454.6,377.2,466.6,368.2"/>
		<path style="clip-path:url(#SVGID_00000041981366646158591350000006501297241143040174_);fill:#F7CB6E;" d="M450.7,350.9
			c0,0,22.5,21.9,39.7,22.1c1.1,0,2.2,0,3.3-0.1c26.8-1.7-29.6,43-29.6,43s-4.5-10-18.9-19.7c0,0,2.1-0.2,3.7-3.6
			C450.8,388.3,455.7,378.7,450.7,350.9"/>
		<path style="clip-path:url(#SVGID_00000041981366646158591350000006501297241143040174_);fill:#F7CB6E;" d="M534.8,338.7
			c0,0,17.3,8,17.7,33.9l-20,27.2l-6.6-40.7L534.8,338.7z"/>
		<path style="clip-path:url(#SVGID_00000041981366646158591350000006501297241143040174_);fill:#FFFFFF;" d="M527.9,417.7
			c2.1-0.3,3.7-0.9,5-1.5c3-1.4,4.5-3.3,4.6-3.3l-0.7-0.6c0,0-1.4,1.8-4.3,3.1c-2.6,1.2-7.1,2.3-13.2,0.7L519,417
			C522.5,417.9,525.5,418,527.9,417.7"/>
		<path style="clip-path:url(#SVGID_00000041981366646158591350000006501297241143040174_);fill:#FFFFFF;" d="M495.5,422.8
			c10.2-1.4,11.1-10.5,11.1-10.6l-0.9-0.1c0,0.4-0.9,9-11.2,9.9l0.1,0.9C494.9,422.9,495.2,422.9,495.5,422.8"/>
		<path style="clip-path:url(#SVGID_00000041981366646158591350000006501297241143040174_);fill:#FFFFFF;" d="M513,363.1
			c0,0,5.4,21.9-4.4,27.4c-9.9,5.5-23.1-10.7-26.5-19C482.1,371.5,502.8,370,513,363.1"/>
		<path style="clip-path:url(#SVGID_00000041981366646158591350000006501297241143040174_);fill:#231916;" d="M514,377.8
			c-0.3,4.4-1.3,8.7-4.1,11.2c-0.2,0.2-0.4,0.3-0.5,0.4c-0.3,0.2-0.7,0.5-1,0.7c-2.1,1.2-4.6,1.4-7.3,0.6c-0.2-0.1-0.3-0.1-0.5-0.2
			c-2.8-1-5.5-2.9-8.1-5.3c-2.1-2-4.1-4.3-5.8-6.6c-0.2-0.3-0.4-0.5-0.6-0.8c-0.5-0.7-1-1.4-1.4-2.1c-0.2-0.3-0.3-0.5-0.5-0.8
			c-0.6-1-1.1-1.9-1.5-2.7c-0.1-0.2-0.1-0.3-0.2-0.5c0.6-0.1,1.8-0.2,3.4-0.4c1.4-0.2,3.2-0.4,5.1-0.8c0.2,0,0.4-0.1,0.7-0.1
			c2.8-0.5,5.9-1.1,9-2c0.9-0.3,1.9-0.5,2.8-0.8c0.2-0.1,0.4-0.1,0.7-0.2c3.1-1,6.1-2.3,8.5-3.9c0.1,0.4,0.2,0.9,0.3,1.6
			c0,0.2,0.1,0.5,0.1,0.7C513.7,368.8,514.3,373.4,514,377.8 M513.9,365.5c0-0.3-0.1-0.5-0.1-0.7c-0.2-1.1-0.4-1.8-0.4-1.8
			c0,0,0-0.1,0-0.1c0-0.1-0.1-0.1-0.2-0.2c-0.1,0-0.2,0-0.3,0c-2.4,1.6-5.4,3-8.6,4c-0.2,0.1-0.5,0.2-0.7,0.2
			c-3.9,1.3-8.1,2.2-11.7,2.8c-0.2,0-0.5,0.1-0.7,0.1c-5.1,0.9-8.9,1.1-9,1.1c-0.1,0-0.2,0.1-0.3,0.2c0,0.1-0.1,0.1-0.1,0.2
			c0,0.1,0,0.1,0,0.2c0.1,0.2,0.1,0.3,0.2,0.5c0.4,0.8,0.8,1.7,1.3,2.6c0.2,0.3,0.3,0.5,0.5,0.8c0.7,1.1,1.4,2.3,2.3,3.4
			c0.2,0.3,0.4,0.5,0.6,0.8c0.8,1,1.6,2,2.4,2.9c0.8,0.9,1.7,1.8,2.7,2.8c2.4,2.3,5.4,4.6,8.7,5.7c0.2,0.1,0.3,0.1,0.5,0.1
			c1.6,0.5,3.2,0.7,4.7,0.5c1.1-0.2,2.2-0.5,3.2-1.1c0.3-0.2,0.7-0.4,1-0.6c0.2-0.1,0.4-0.3,0.5-0.4c2.7-2.4,4.3-6.6,4.6-12.3
			c0-0.9,0.1-1.8,0-2.8C514.8,371.1,514.3,367.7,513.9,365.5 M503.5,367.6c-0.9,0.4-1.8,0.7-2.7,1c0.9-0.3,1.9-0.5,2.8-0.8
			C503.6,367.7,503.5,367.7,503.5,367.6"/>
		<path style="clip-path:url(#SVGID_00000041981366646158591350000006501297241143040174_);fill:#FFFFFF;" d="M498.2,373.3
			L498.2,373.3c3.5-0.5,5.9-3.7,5.5-7.2l-1-7.3c-0.5-3.5-3.7-5.9-7.2-5.5c-3.5,0.5-5.9,3.7-5.5,7.2l1,7.3
			C491.5,371.3,494.8,373.8,498.2,373.3"/>
		<path style="clip-path:url(#SVGID_00000041981366646158591350000006501297241143040174_);fill:#231916;" d="M491.5,370.9
			c0.2,0,0.3-0.2,0.3-0.4l-1.5-11.3c-0.3-2.5,1.4-4.8,3.9-5.2l2.8-0.4c2.5-0.3,4.8,1.4,5.2,3.9l1.4,10.1c0,0.2,0.2,0.3,0.4,0.3
			c0.2,0,0.3-0.2,0.3-0.4l-1.4-10.1c-0.4-2.9-3.1-5-6-4.6l-2.8,0.4c-2.9,0.4-5,3.1-4.6,6l1.5,11.3
			C491.1,370.7,491.3,370.9,491.5,370.9"/>
		<path style="clip-path:url(#SVGID_00000041981366646158591350000006501297241143040174_);fill:#FFFFFF;" d="M485.4,353.1
			c5.6,8.4,15.2,11.9,21.3,7.8c6.1-4.1,5.4-15.6,0.9-22.7c-5.5-8.5-15.2-11.9-21.3-7.8C480.2,334.6,479.8,344.7,485.4,353.1"/>
		<path style="clip-path:url(#SVGID_00000041981366646158591350000006501297241143040174_);fill:#231916;" d="M503.5,362
			c-0.2,0.1-0.5,0.1-0.7,0.2c-1.4,0.3-2.9,0.2-4.5-0.1c-2.3-0.5-4.7-1.5-6.9-3.1c-0.4-0.3-0.8-0.6-1.2-0.9c-0.2-0.2-0.4-0.4-0.7-0.6
			c-1.4-1.3-2.8-2.8-3.9-4.5c-0.2-0.3-0.4-0.6-0.6-0.9c-4.9-8-4.4-17.4,1.4-21.2c1.2-0.8,2.7-1.4,4.2-1.6c1.3-0.2,2.7-0.1,4.2,0.2
			c1.5,0.3,3.1,0.9,4.5,1.7c3,1.6,5.8,4.2,7.8,7.4c5.5,8.5,4.1,18.9-0.8,22.2C505.6,361.3,504.6,361.7,503.5,362 M507.9,338.1
			c-2.2-3.4-5.2-6.1-8.4-7.8c-1.4-0.8-2.9-1.3-4.4-1.6c-3.4-0.7-6.5-0.2-9,1.5c-6,4-6.7,13.8-1.6,22.1c0.2,0.4,0.4,0.7,0.7,1.1
			c1.3,1.9,2.8,3.6,4.4,5c0.2,0.2,0.5,0.4,0.8,0.6c2.5,2,5.2,3.3,7.9,3.8c1.5,0.3,2.9,0.3,4.3,0.2c0.2,0,0.3,0,0.4-0.1
			c0.2,0,0.5-0.1,0.7-0.2c1.2-0.3,2.3-0.8,3.3-1.5C513.2,357.1,512.6,345.4,507.9,338.1"/>
		<path style="clip-path:url(#SVGID_00000041981366646158591350000006501297241143040174_);fill:#231916;" d="M497.8,342.6
			c0.1,0,0.1-0.1,0.2-0.2c0-0.2-0.1-0.3-0.2-0.3c-0.1,0-2.2-0.7-3.6,1.5c-0.1,0.1,0,0.3,0.1,0.4c0.1,0.1,0.3,0,0.4-0.1
			c1.2-1.2,2.9-1.3,3-1.3C497.7,342.7,497.7,342.6,497.8,342.6"/>
		<path style="clip-path:url(#SVGID_00000041981366646158591350000006501297241143040174_);fill:#231916;" d="M506.3,339.2
			c0.1,0,0.1-0.1,0.2-0.2c0-0.2-0.1-0.3-0.2-0.3c-0.1,0-2.2-0.7-3.6,1.5c-0.1,0.1,0,0.3,0.1,0.4c0.1,0.1,0.3,0,0.4-0.1
			c1.2-1.2,2.9-1.3,3-1.3C506.1,339.3,506.2,339.3,506.3,339.2"/>
		<path style="clip-path:url(#SVGID_00000041981366646158591350000006501297241143040174_);fill:#231916;" d="M496.1,346.2
			c0.1,0.7,0.6,1.2,1.1,1.1c0.5-0.1,0.8-0.7,0.7-1.4c-0.1-0.7-0.6-1.2-1.1-1.1C496.3,344.9,496,345.5,496.1,346.2"/>
		<path style="clip-path:url(#SVGID_00000041981366646158591350000006501297241143040174_);fill:#231916;" d="M504.3,343.5
			c0.1,0.7,0.6,1.2,1.1,1.1c0.5-0.1,0.8-0.7,0.7-1.4c-0.1-0.7-0.6-1.2-1.1-1.1C504.5,342.1,504.2,342.8,504.3,343.5"/>
		<path style="clip-path:url(#SVGID_00000041981366646158591350000006501297241143040174_);fill:#231916;" d="M503.1,349.9
			C503.1,349.9,503.1,349.9,503.1,349.9c1.5-0.5,2-1.7,2-1.8c0-0.1,0-0.3-0.2-0.3c-0.1,0-0.3,0-0.3,0.2c0,0-0.4,1.1-1.6,1.4
			c-0.1,0-0.2,0.2-0.2,0.3C502.8,349.8,502.9,349.9,503.1,349.9"/>
		<path style="clip-path:url(#SVGID_00000041981366646158591350000006501297241143040174_);fill:#231916;" d="M499.2,325.1
			c0,0,3.7,18-13.3,26.5c-16.9,8.5-3.3-24.3-3.3-24.3L499.2,325.1z"/>
		<path style="clip-path:url(#SVGID_00000041981366646158591350000006501297241143040174_);fill:#231916;" d="M500.5,354.3
			c0.3,0.4,0.7,0.7,1.3,1c1.4,0.6,5.1,0.1,5.8-2.7c0.1-0.4,0.1-0.8,0.1-1.2c-0.1-1.7-1.3-1.5-2.5-0.4c-0.8,0.7-1.8,1.2-3.4,1.3
			C500.1,352.3,499.8,353.3,500.5,354.3"/>
		<path style="clip-path:url(#SVGID_00000041981366646158591350000006501297241143040174_);fill:#F08E56;" d="M500.5,354.3
			c0.3,0.4,0.7,0.7,1.3,1c1.4,0.6,5.1,0.1,5.8-2.7c-1-0.2-2.5-0.2-3.7,0.8C503.9,353.5,501.3,353.3,500.5,354.3"/>
		<path style="clip-path:url(#SVGID_00000041981366646158591350000006501297241143040174_);fill:#FFFFFF;" d="M488,353.1
			c1.7,0.6,3.4,0.1,3.9-1.1c0.4-1.2-0.9-2.8-2.2-3.4c-1.7-0.6-3.4-0.1-3.9,1.1C485.3,351,486.3,352.5,488,353.1"/>
		<path style="clip-path:url(#SVGID_00000041981366646158591350000006501297241143040174_);fill:#231916;" d="M489.3,353.4l0.1-0.5
			c-1.5-0.2-2.6-0.8-3.1-1.7c-0.3-0.7-0.3-1.5,0.2-2.1c0.9-1.4,3.6,0,3.7,0l0.2-0.4c-0.1-0.1-3.1-1.6-4.3,0.1
			c-0.5,0.8-0.6,1.7-0.2,2.6C486.4,352.5,487.6,353.2,489.3,353.4"/>
		<path style="clip-path:url(#SVGID_00000041981366646158591350000006501297241143040174_);fill:#231916;" d="M504.9,353.8
			C505,353.8,505,353.8,504.9,353.8c0.1-0.1,0.1-0.2,0-0.2c-0.1,0-3.1-0.9-4.5,0.6c0,0,0,0.1,0,0.1c0,0,0.1,0,0.1,0
			C501.9,352.9,504.9,353.8,504.9,353.8C504.9,353.8,504.9,353.8,504.9,353.8"/>
		<path style="clip-path:url(#SVGID_00000041981366646158591350000006501297241143040174_);fill:#FFFFFF;" d="M577.3,280.6
			c-1.9,0.7-3.8,1-5.7,1.1c0.1-0.5,0.1-1,0.2-1.6c0.3-2.4,5.8-5.6,5.6-7c-0.4-3-6.7,2.1-11.8,3.2c-3.5,0.8-8.8,6.5-10.1,8l-3.4,5.9
			c-0.9,3.6-0.7,4.7-0.1,4.8c6.1,1.6,14.3-1.9,14.3-1.9c1.1-0.4,2,0.4,5.3-0.3c0.4-0.1,4.5-2.4,4.9-2.6c0.6-0.4,3.5-1.3,3.8-2
			C580.6,288.3,577.3,280.6,577.3,280.6"/>
		<path style="clip-path:url(#SVGID_00000041981366646158591350000006501297241143040174_);fill:#231916;" d="M568.2,293.6
			c-1.7,0-3.6-0.3-5.7-1c-0.5-0.2-0.9-0.5-1.2-0.7c-0.1-0.1-0.2-0.2-0.4-0.3c-0.1-0.1-0.2-0.3-0.1-0.4c0.1-0.1,0.3-0.2,0.4-0.1
			c0.1,0.1,0.3,0.2,0.4,0.3c0.3,0.2,0.7,0.5,1,0.6c5,1.6,9.3,1.2,13-1.3c2.5-1.8,3.8-3.9,4-4.2c0.8-3.2,1.3-6.8,0.9-7.3
			c0,0,0,0-0.1,0c-3.6,2.3-7.1,2.6-9.7,2.6c-0.2,0-0.3-0.1-0.3-0.3c0-0.2,0.1-0.3,0.3-0.3c2.5,0,5.9-0.3,9.4-2.5
			c0.4-0.2,0.6-0.1,0.7,0c0.9,0.7-0.2,5.8-0.7,8c0,0,0,0,0,0.1C580.2,286.8,576.5,293.6,568.2,293.6"/>
		<path style="clip-path:url(#SVGID_00000041981366646158591350000006501297241143040174_);fill:#231916;" d="M550.5,294.1
			c0.8-3.5,5.3-15.3,15.3-18.2c1.9-0.6,4.1-1.5,6-2.4c2.5-1.2,4.5-2.2,5.5-1.6c0.4,0.2,0.6,0.5,0.6,1c0.1,0.7-0.8,1.6-2.3,3.1
			c-1.6,1.6-3.5,3.5-3.7,5.2c0,0.2-0.2,0.3-0.3,0.3c-0.2,0-0.3-0.2-0.3-0.3c0.2-1.9,2.2-3.9,3.9-5.5c1-1,2.1-2.1,2.1-2.6
			c-0.1-0.4-0.2-0.6-0.3-0.6c-0.7-0.4-2.8,0.6-5,1.6c-1.9,0.9-4.1,2.2-6.2,2.4c-4.5,0.6-12,7.7-14.8,17.6H550.5z"/>
		<path style="clip-path:url(#SVGID_00000041981366646158591350000006501297241143040174_);fill:#231916;" d="M570,285.3
			c-0.1,0-0.1,0-0.2-0.1c-4-3.1-8.2-1.3-8.2-1.3c-0.1,0.1-0.3,0-0.4-0.2c-0.1-0.1,0-0.3,0.1-0.4c0,0,4.5-2,8.8,1.4
			c0.1,0.1,0.2,0.3,0.1,0.4C570.2,285.3,570.1,285.3,570,285.3"/>
		<path style="clip-path:url(#SVGID_00000041981366646158591350000006501297241143040174_);fill:#FFFFFF;" d="M577.6,284.7
			c0,0,3.8-0.9,6.6-5.7s4.9-3,2.8,1.5c-1,2.1-3.7,6.3-7,6C576.7,286.3,577.6,284.7,577.6,284.7"/>
		<path style="clip-path:url(#SVGID_00000041981366646158591350000006501297241143040174_);fill:#231916;" d="M577.8,285
			c0,0.1-0.1,0.3,0,0.5c0.2,0.4,1,0.7,2.1,0.8c3,0.3,5.6-3.6,6.7-5.9c1.1-2.3,0.9-3.7,0.5-3.9c-0.4-0.2-1.4,0.3-2.8,2.6
			C581.8,283.5,578.5,284.7,577.8,285 M580.2,286.9c-0.1,0-0.2,0-0.3,0c-1.4-0.1-2.3-0.5-2.6-1.1c-0.3-0.6,0-1.2,0-1.2
			c0-0.1,0.1-0.1,0.2-0.1c0,0,3.7-1,6.4-5.6c1.3-2.3,2.7-3.3,3.6-2.9c0.9,0.5,0.8,2.4-0.3,4.7C586.1,283,583.4,286.9,580.2,286.9"/>
		<path style="clip-path:url(#SVGID_00000041981366646158591350000006501297241143040174_);fill:#FFFFFF;" d="M576.6,287.8
			c0,0,4.7-2.8,5.1-8.3c0.3-5.5,3.7-4.7,3.8,0.3c0.1,2.3-1.4,7.4-4.5,8.6C578,289.6,576.6,287.8,576.6,287.8"/>
		<path style="clip-path:url(#SVGID_00000041981366646158591350000006501297241143040174_);fill:#231916;" d="M576.6,287.8
			L576.6,287.8L576.6,287.8z M577,287.8c0.5,0.4,1.7,1.1,3.9,0.3c2.9-1.1,4.3-6.1,4.3-8.3c-0.1-2.4-0.9-3.8-1.7-3.8
			c-0.7,0-1.4,1.1-1.6,3.5C581.6,284.3,578.1,287.1,577,287.8 M579,289.1c-1.8,0-2.7-1.1-2.7-1.1c-0.1-0.1-0.1-0.2-0.1-0.2
			c0-0.1,0.1-0.2,0.1-0.2c0,0,4.6-2.8,4.9-8c0.2-3,1.2-4.1,2.1-4.1c0,0,0,0,0,0c1,0,2.2,1.4,2.3,4.4c0.1,2.4-1.5,7.6-4.6,8.9
			C580.3,289,579.6,289.1,579,289.1"/>
		<path style="clip-path:url(#SVGID_00000041981366646158591350000006501297241143040174_);fill:#FFFFFF;" d="M573.2,289.4
			c0,0,5.3-2.5,4.5-8c-0.8-5.5,2.7-5.3,3.8-0.4c0.5,2.2,0.1,7.8-3.2,9.1C575,291.4,573.2,289.4,573.2,289.4"/>
		<path style="clip-path:url(#SVGID_00000041981366646158591350000006501297241143040174_);fill:#231916;" d="M573.2,289.4
			L573.2,289.4L573.2,289.4z M573.7,289.5c0.6,0.5,2.2,1.3,4.5,0.3c3.2-1.3,3.4-6.8,3-8.7c-0.5-2.3-1.6-3.6-2.4-3.4
			c-0.7,0.1-1.2,1.3-0.8,3.7C578.6,286.1,574.9,288.7,573.7,289.5 M576.1,290.8c-2,0-3.1-1.1-3.2-1.2c-0.1-0.1-0.1-0.2-0.1-0.3
			c0-0.1,0.1-0.2,0.2-0.2c0.2-0.1,5-2.5,4.3-7.7c-0.4-3,0.4-4.3,1.3-4.4c1-0.2,2.4,0.9,3.1,3.9c0.3,1.1,0.3,3.1-0.2,5
			c-0.4,1.6-1.3,3.6-3.2,4.4C577.5,290.7,576.8,290.8,576.1,290.8"/>
		<path style="clip-path:url(#SVGID_00000041981366646158591350000006501297241143040174_);fill:#FFFFFF;" d="M570.9,288.4
			c1.3-0.2,2.8-0.8,3.6-2.9c1.7-4.7,4.1-4.5,4-1.4c-0.1,3.3-2.1,7-5.1,8.2L570.9,288.4z"/>
		<path style="clip-path:url(#SVGID_00000041981366646158591350000006501297241143040174_);fill:#231916;" d="M573.3,292.6
			c-0.1,0-0.2-0.1-0.3-0.2c-0.1-0.2,0-0.3,0.2-0.4c3.1-1.2,4.8-4.9,4.9-8c0-1.1-0.3-1.8-0.7-1.9c-0.6-0.1-1.7,0.9-2.7,3.5
			c-0.8,2.2-2.5,2.8-3.8,3.1c-0.2,0-0.3-0.1-0.3-0.2c0-0.2,0.1-0.3,0.2-0.3c1.3-0.2,2.7-0.7,3.4-2.7c1-2.6,2.2-4.1,3.4-3.8
			c0.8,0.2,1.2,1.1,1.2,2.5c-0.1,3.2-1.9,7.2-5.3,8.5C573.4,292.6,573.4,292.6,573.3,292.6"/>
		<path style="clip-path:url(#SVGID_00000041981366646158591350000006501297241143040174_);fill:#FFFFFF;" d="M577.5,284.7
			c0,0,3.8-0.9,6.6-5.7c2.8-4.8,4.9-3,2.8,1.5c-1,2.1-3.7,6.3-7,6C576.6,286.3,577.5,284.7,577.5,284.7"/>
		<path style="clip-path:url(#SVGID_00000041981366646158591350000006501297241143040174_);fill:#231916;" d="M577.7,285
			c0,0.1-0.1,0.3,0,0.5c0.2,0.4,1,0.7,2.1,0.8c3,0.3,5.6-3.6,6.7-5.9c1.1-2.3,0.9-3.7,0.5-3.9c-0.4-0.2-1.4,0.3-2.8,2.6
			C581.7,283.5,578.4,284.7,577.7,285 M580.1,286.9c-0.1,0-0.2,0-0.3,0c-1.4-0.1-2.3-0.5-2.6-1.1c-0.3-0.6,0-1.2,0-1.2
			c0-0.1,0.1-0.1,0.2-0.1c0,0,3.7-1,6.4-5.6c1.3-2.3,2.7-3.3,3.6-2.9c0.9,0.5,0.8,2.4-0.3,4.7C586,283,583.3,286.9,580.1,286.9"/>
		<path style="clip-path:url(#SVGID_00000041981366646158591350000006501297241143040174_);fill:#FFFFFF;" d="M576.5,287.8
			c0,0,4.7-2.8,5.1-8.3c0.3-5.5,3.7-4.7,3.8,0.3c0.1,2.3-1.4,7.4-4.5,8.6C577.9,289.6,576.5,287.8,576.5,287.8"/>
		<path style="clip-path:url(#SVGID_00000041981366646158591350000006501297241143040174_);fill:#231916;" d="M576.5,287.8
			L576.5,287.8L576.5,287.8z M576.9,287.8c0.5,0.4,1.7,1.1,3.9,0.3c2.9-1.1,4.3-6.1,4.3-8.3c-0.1-2.4-0.9-3.8-1.7-3.8
			c-0.7,0-1.4,1.1-1.6,3.5C581.5,284.3,578,287.1,576.9,287.8 M578.9,289.1c-1.8,0-2.7-1.1-2.7-1.1c-0.1-0.1-0.1-0.2-0.1-0.2
			c0-0.1,0.1-0.2,0.1-0.2c0,0,4.6-2.8,4.9-8c0.2-3,1.2-4.1,2.1-4.1c0,0,0,0,0,0c1,0,2.2,1.4,2.3,4.4c0.1,2.4-1.5,7.6-4.6,8.9
			C580.2,289,579.5,289.1,578.9,289.1"/>
		<path style="clip-path:url(#SVGID_00000041981366646158591350000006501297241143040174_);fill:#FFFFFF;" d="M573.1,289.4
			c0,0,5.3-2.5,4.5-8c-0.8-5.5,2.7-5.3,3.8-0.4c0.5,2.2,0.1,7.8-3.2,9.1C574.9,291.4,573.1,289.4,573.1,289.4"/>
		<path style="clip-path:url(#SVGID_00000041981366646158591350000006501297241143040174_);fill:#231916;" d="M573.1,289.4
			L573.1,289.4L573.1,289.4z M573.6,289.5c0.6,0.5,2.2,1.3,4.5,0.3c3.2-1.3,3.4-6.8,3-8.7c-0.5-2.3-1.6-3.6-2.4-3.4
			c-0.7,0.1-1.2,1.3-0.8,3.7C578.5,286.1,574.8,288.7,573.6,289.5 M576,290.8c-2,0-3.1-1.1-3.2-1.2c-0.1-0.1-0.1-0.2-0.1-0.3
			c0-0.1,0.1-0.2,0.2-0.2c0.2-0.1,5-2.5,4.3-7.7c-0.4-3,0.4-4.3,1.3-4.4c1-0.2,2.4,0.9,3.1,3.9c0.3,1.1,0.3,3.1-0.2,5
			c-0.4,1.6-1.3,3.6-3.2,4.4C577.4,290.7,576.7,290.8,576,290.8"/>
		<path style="clip-path:url(#SVGID_00000041981366646158591350000006501297241143040174_);fill:#FFFFFF;" d="M570.8,288.4
			c1.3-0.2,2.8-0.8,3.6-2.9c1.7-4.7,4.1-4.5,4-1.4c-0.1,3.3-2.1,7-5.1,8.2L570.8,288.4z"/>
		<path style="clip-path:url(#SVGID_00000041981366646158591350000006501297241143040174_);fill:#231916;" d="M573.2,292.6
			c-0.1,0-0.2-0.1-0.3-0.2c-0.1-0.2,0-0.3,0.2-0.4c3.1-1.2,4.8-4.9,4.9-8c0-1.1-0.3-1.8-0.7-1.9c-0.6-0.1-1.7,0.9-2.7,3.5
			c-0.8,2.2-2.5,2.8-3.8,3.1c-0.2,0-0.3-0.1-0.3-0.2c0-0.2,0.1-0.3,0.2-0.3c1.3-0.2,2.7-0.7,3.4-2.7c1-2.6,2.2-4.1,3.4-3.8
			c0.8,0.2,1.2,1.1,1.2,2.5c-0.1,3.2-1.9,7.2-5.3,8.5C573.3,292.6,573.3,292.6,573.2,292.6"/>
		<path style="clip-path:url(#SVGID_00000041981366646158591350000006501297241143040174_);fill:#FFFFFF;" d="M389.7,309.3
			c0,0-3.9,0.2-7.9-3.5c-4.1-3.8-5.6-1.4-2.2,2.3c1.5,1.7,5.4,5,8.4,3.8C391,310.6,389.7,309.3,389.7,309.3"/>
		<path style="clip-path:url(#SVGID_00000041981366646158591350000006501297241143040174_);fill:#231916;" d="M381.6,306
			c-2-1.8-3.1-2-3.4-1.7c-0.3,0.3-0.1,1.7,1.6,3.6c1.7,1.9,5.3,4.8,8.1,3.7c1.1-0.4,1.7-0.9,1.8-1.4c0-0.2,0-0.4-0.1-0.5
			C388.8,309.6,385.3,309.5,381.6,306 M379.3,308.3c-1.7-1.9-2.4-3.7-1.6-4.4c0.7-0.7,2.3-0.1,4.3,1.7c3.9,3.6,7.7,3.5,7.7,3.5
			c0.1,0,0.2,0,0.2,0.1c0,0,0.5,0.5,0.4,1.1c-0.1,0.7-0.9,1.3-2.2,1.8c-0.1,0-0.2,0.1-0.3,0.1C384.8,313.1,381.1,310.2,379.3,308.3"
			/>
		<path style="clip-path:url(#SVGID_00000041981366646158591350000006501297241143040174_);fill:#FFFFFF;" d="M391.6,312
			c0,0-5.3-1.3-7.3-6.4s-4.9-3.4-3.6,1.4c0.6,2.2,3.5,6.6,6.8,6.9C390.7,314.1,391.6,312,391.6,312"/>
		<path style="clip-path:url(#SVGID_00000041981366646158591350000006501297241143040174_);fill:#231916;" d="M391.6,312L391.6,312
			L391.6,312z M384,305.6c-0.9-2.3-1.9-3.1-2.5-2.9c-0.7,0.2-1.1,1.9-0.5,4.1c0.6,2.1,3.4,6.4,6.5,6.7c2.3,0.2,3.3-0.9,3.6-1.4
			C389.8,311.8,385.7,310.2,384,305.6 M387.4,314.2c-3.4-0.3-6.4-4.8-7-7.1c-0.8-2.9-0.1-4.6,0.9-4.9c0,0,0,0,0,0
			c0.9-0.3,2.2,0.5,3.2,3.3c1.9,5,7,6.3,7.1,6.3c0.1,0,0.2,0.1,0.2,0.2c0,0.1,0,0.2,0,0.2c0,0.1-0.5,1.4-2.2,1.9
			C389,314.1,388.3,314.2,387.4,314.2"/>
		<path style="clip-path:url(#SVGID_00000041981366646158591350000006501297241143040174_);fill:#FFFFFF;" d="M395.3,312.6
			c0,0-5.8-0.9-6.6-6.3c-0.9-5.5-4.2-4.3-3.8,0.7c0.2,2.3,2.1,7.5,5.7,7.8C394.1,315,395.3,312.6,395.3,312.6"/>
		<path style="clip-path:url(#SVGID_00000041981366646158591350000006501297241143040174_);fill:#231916;" d="M395.3,312.6
			L395.3,312.6L395.3,312.6z M388.4,306.3c-0.4-2.4-1.2-3.4-1.9-3.3c-0.8,0.1-1.5,1.6-1.3,4c0.1,2,2,7.2,5.4,7.5
			c2.5,0.2,3.8-1,4.2-1.6C393.4,312.4,389.1,311,388.4,306.3 M390.5,315c-2.1-0.2-3.5-1.9-4.3-3.3c-1-1.7-1.5-3.6-1.6-4.8
			c-0.2-3,0.8-4.5,1.8-4.6c0.9-0.1,2.1,0.8,2.6,3.8c0.8,5.2,6.2,6,6.4,6.1c0.1,0,0.2,0.1,0.2,0.2c0,0.1,0,0.2,0,0.3
			c0,0.1-0.8,1.5-2.7,2.1C392.2,315,391.5,315.1,390.5,315"/>
		<path style="clip-path:url(#SVGID_00000041981366646158591350000006501297241143040174_);fill:#FFFFFF;" d="M397.2,310.9
			c-1.3,0.1-2.9,0.1-4.3-1.7c-3-4-5.2-3.1-4.2-0.2c1.1,3.2,4,6.1,7.3,6.4L397.2,310.9z"/>
		<path style="clip-path:url(#SVGID_00000041981366646158591350000006501297241143040174_);fill:#231916;" d="M396,315.7
			c0.1,0,0.2-0.1,0.2-0.3c0-0.2-0.1-0.3-0.3-0.3c-3.3-0.3-6.1-3.3-7-6.2c-0.3-1-0.3-1.8,0.1-2.1c0.6-0.3,1.9,0.4,3.6,2.5
			c1.4,1.9,3.2,2,4.6,1.8c0.2,0,0.3-0.2,0.3-0.3c0-0.2-0.2-0.3-0.3-0.3c-1.3,0.1-2.8,0.1-4-1.6c-1.7-2.2-3.3-3.2-4.3-2.7
			c-0.7,0.4-0.9,1.4-0.4,2.8c1,3,3.9,6.3,7.5,6.6C396,315.7,396,315.7,396,315.7"/>
		<path style="clip-path:url(#SVGID_00000041981366646158591350000006501297241143040174_);fill:#FFFFFF;" d="M374.3,613.7
			c0,0-26.2,16.3-28,5.4c-6.1-37.5,19.4-61.1,35.2-76.8c10.2-10.1,71-51.7,75.9-37.7c3,8.5-13.3,24.3-25.9,38.6
			c-8.1,9.3-14,18.6-14.4,22.8c-1,8.7,0.6,18.5-2.7,24.4C402.2,612.6,374.3,613.7,374.3,613.7"/>
		<path style="clip-path:url(#SVGID_00000041981366646158591350000006501297241143040174_);fill:#30303D;" d="M374.3,614.6
			c-0.5,0-0.9-0.4-0.9-0.9c0-0.5,0.4-1,0.9-1c0.2,0,23-1.8,35-16c5.8-6.8,8.2-15.3,7.3-25.4c-1.2-13.5,10.6-25.2,21.9-36.6
			c10.5-10.5,20.4-20.4,18.1-30c-0.2-1-0.8-1.6-1.9-1.9c-5-1.5-18.4,4.2-37.7,16c-16.6,10.2-31.7,21.4-36.1,25.5
			c-0.4,0.3-1,0.3-1.3-0.1c-0.4-0.4-0.3-1,0.1-1.3c8.8-8.1,62.4-45.9,75.7-41.9c1.7,0.5,2.8,1.6,3.2,3.3
			c2.6,10.7-7.7,20.9-18.6,31.8c-11.1,11.1-22.5,22.5-21.4,35.1c1,10.6-1.6,19.6-7.7,26.8C398.1,612.8,375.3,614.5,374.3,614.6
			C374.3,614.6,374.3,614.6,374.3,614.6"/>
		<path style="clip-path:url(#SVGID_00000041981366646158591350000006501297241143040174_);fill:#FFFFFF;" d="M581.1,776.4
			c-4.4-14.6-9.3-28.6-14.1-39.3c-0.1-0.2-0.2-0.5-0.3-0.7c-9.1-19.7-16.1-21-20-33.1c-0.7-2.3-1.3-7.2-1.9-13.7
			c-0.5-5.8-0.9-12.9-1.2-20.5c-0.2-5-0.4-10.2-0.6-15.4c-0.7-22.5-1-45.3-1.1-51.4c0-1,0-1.6,0-1.6c1-15.4,15.9-15.5,20-15.1
			c2.8,0.3,5.8,3.5,7.5,5.6c0,0,0,0,0,0c0.8,1,1.3,1.7,1.3,1.7c1.6-3.3,13.8-6,17.8-3.9c4.1,2.1,9.7,12.4,9.7,12.4
			c1.2-4.3,8.2-7.3,14.3-6c6.1,1.3,23.6,35,27.9,45c2.5,5.8,2.7,20.6,2.7,36.5c0,11.4,0,23.4,0.7,32.9c0.4,5.9,3.6,16.3,8,28.3l0,0
			C664.3,772.3,583.5,784.2,581.1,776.4"/>
		<path style="clip-path:url(#SVGID_00000041981366646158591350000006501297241143040174_);fill:#30303D;" d="M581.9,776.1
			c0,0.1,0.3,0.7,2.5,1.2c6.7,1.4,20.4-0.5,30.4-3.1c8.6-2.3,24.3-7.4,32.4-16.8c5-5.7,6.2-12,3.8-18.8c0,0,0,0,0,0
			c-4.9-13.5-7.6-23.1-8-28.5c-0.7-8.7-0.7-19.6-0.7-30l0-2.9c0-16.5-0.3-30.6-2.7-36.1c-2.3-5.4-7.9-16.5-13.3-25.7
			c-9.4-16.3-13-18.6-14.1-18.8c-5.5-1.2-12.2,1.5-13.3,5.4c-0.1,0.3-0.4,0.6-0.7,0.6c-0.4,0-0.7-0.1-0.9-0.4
			c-1.5-2.8-6.2-10.4-9.3-12.1c-2.1-1.1-7.3-0.8-11.9,0.7c-3,1-4.4,2.1-4.7,2.8c-0.1,0.3-0.4,0.5-0.7,0.5c-0.3,0-0.6-0.1-0.8-0.4
			c0,0-0.5-0.7-1.2-1.7c0,0,0,0,0,0c-2.6-3.2-5.1-5.1-6.9-5.3c-1.5-0.1-9.1-0.6-14.3,3.8c-2.9,2.4-4.5,6-4.8,10.5c0,0.1,0,0.7,0,1.5
			c0,4.4,0.3,27.8,1.1,51.4c0.2,5.5,0.4,10.7,0.6,15.4c0.4,8.3,0.8,15.2,1.2,20.5c0.6,6.9,1.2,11.5,1.8,13.5c1.8,5.7,4.4,9,7.6,13.1
			c3.4,4.3,7.6,9.7,12.4,20l0.3,0.7C572.2,746.4,576.9,759.7,581.9,776.1 M590.2,779.5c-2.4,0-4.5-0.2-6.2-0.5
			c-2.2-0.5-3.5-1.3-3.8-2.4c-5-16.4-9.7-29.6-14.1-39.2l-0.3-0.7c-4.6-10-8.8-15.3-12.1-19.6c-3.2-4.1-6-7.6-7.9-13.6
			c-0.7-2.2-1.3-6.8-1.9-13.9c-0.4-5.4-0.8-12.3-1.2-20.6c-0.2-4.7-0.4-9.9-0.6-15.4c-0.8-23.6-1.1-46.9-1.1-51.4c0-1,0-1.6,0-1.6
			c0,0,0,0,0-0.1c0.3-5,2.1-9,5.4-11.7c5.7-4.9,14-4.4,15.6-4.2c2.9,0.3,6,3.4,8.1,6c0,0,0,0,0,0c0.2,0.3,0.4,0.6,0.6,0.8
			c1.2-1.2,3.3-2,5-2.6c4.4-1.4,10.4-2.1,13.3-0.6c3.3,1.7,7.4,8.3,9.2,11.3c2.4-3.8,8.8-6.2,14.6-4.9c7.1,1.5,25.4,38.2,28.6,45.6
			c2.5,5.9,2.8,19.5,2.8,36.8l0,2.9c0,10.4,0,21.2,0.7,29.9c0.4,5.3,3.1,14.7,7.9,28c0,0,0,0,0,0c2.7,7.5,1.3,14.4-4.1,20.6
			c-8.5,9.7-24.5,15-33.3,17.3C606.4,778.2,597,779.5,590.2,779.5"/>
		<path style="clip-path:url(#SVGID_00000041981366646158591350000006501297241143040174_);fill:#30303D;" d="M586.8,619.8
			c-0.2,0-0.3,0-0.5-0.1c-2.1-1.4-3.1-3.2-3.9-4.8l-0.2-0.3c-7.6-14.3-13.5-22.9-13.6-22.9c-0.3-0.4-0.2-0.9,0.2-1.2
			c0.4-0.3,0.9-0.2,1.2,0.2c0.1,0.1,6,8.8,13.7,23.1l0.2,0.3c0.8,1.4,1.6,3,3.3,4.1c0.4,0.3,0.5,0.8,0.3,1.2
			C587.4,619.7,587.1,619.8,586.8,619.8"/>
		<path style="clip-path:url(#SVGID_00000041981366646158591350000006501297241143040174_);fill:#30303D;" d="M613.8,626.1
			c-0.1,0-0.2,0-0.3-0.1c-2.7-1.1-4.7-3.8-5.3-5.1c-7.1-13.7-10.6-18.9-10.6-18.9c-0.3-0.4-0.2-0.9,0.2-1.2c0.4-0.3,0.9-0.2,1.2,0.2
			c0.1,0.2,3.5,5.3,10.7,19.1c0.7,1.3,2.4,3.5,4.4,4.3c0.4,0.2,0.7,0.7,0.5,1.1C614.5,625.9,614.1,626.1,613.8,626.1"/>
		<path style="clip-path:url(#SVGID_00000041981366646158591350000006501297241143040174_);fill:#30303D;" d="M651.4,723
			c0,0-0.4,0-1.2-0.1c-0.8,0-2-0.1-3.5-0.1c-9.4,0.2-32.2,2.8-59.6,22.4c-3.7,2.7-6.9,5.9-9.6,9.2c-0.9,1.1-1.7,2.2-2.5,3.3
			c-3.4,4.8-5.8,9.6-7.2,13.2l1.5,13.8c13.7,2.1,27.7,5.2,42.5,8.4c16.8,3.6,34.6,7.4,53.8,9.8c12.7,1.6,24.4,2.1,35.1,1.7
			C679.1,769.5,651.4,723,651.4,723"/>
	</g>
	<text transform="matrix(1 0 0 1 631.6597 734.6184)" class="st25 st26 st27"> </text>
	<g>
		<defs>
			<rect id="SVGID_00000030458008687941163100000016775226180459613602_" width="800" height="819.1"/>
		</defs>
		<clipPath id="SVGID_00000150802387360621728660000013184159989009779108_">
			<use xlink:href="#SVGID_00000030458008687941163100000016775226180459613602_"  style="overflow:visible;"/>
		</clipPath>
		<path style="clip-path:url(#SVGID_00000150802387360621728660000013184159989009779108_);fill:#FFFFFF;" d="M560.7,623.9
			c0,0-3.7-0.1-5.7-3c-8.2-12.3-23.6-37.2-34.6-52.2c-7.4-10.1-11.3-15.3-15.4-14c-6,1.9-8.7,14.2,1.7,37.6
			c11.7,26.3,34.7,84.9,38.3,96.7L560.7,623.9z"/>
		<path style="clip-path:url(#SVGID_00000150802387360621728660000013184159989009779108_);fill:#30303D;" d="M544,689.8
			c-1.6-5.4-7.8-20.5-14.9-37.9c-8.5-20.9-18.1-44.6-23.2-59.3c-0.5-1.5-1-2.9-1.5-4.3c-2.5-7.1-4.7-13.2-5-19.5
			c-0.4-7.9,1.3-13.2,4.7-14.3c4.1-1.3,9.7,3.5,16.8,14.3c7.4,11.4,18,27.3,26.6,40.1c3.1,4.6,5.9,8.8,8,12.1c1.7,2.5,4.9,2.6,5,2.6
			l0,1.7c-0.2,0-4.2-0.1-6.4-3.4c-2.2-3.3-5-7.5-8-12.1c-8.5-12.8-19.1-28.7-26.6-40.1c-8.6-13.2-12.9-14.2-14.8-13.6
			c-2.5,0.8-3.9,5.8-3.5,12.6c0.3,6,2.3,11.8,4.9,19c0.5,1.4,1,2.8,1.5,4.3c5.1,14.7,14.7,38.4,23.2,59.2
			c7.1,17.5,13.3,32.7,14.9,38.1L544,689.8z"/>
		<path style="clip-path:url(#SVGID_00000150802387360621728660000013184159989009779108_);fill:#FFFFFF;" d="M546.7,670
			c0,0-10.7-2.8-17.4-7.9c-7.5-5.7-12.6-10-16.4-13.3c-16.2-14.3-41.3-8.8-10,24c29.9,31.3,35.7,59.4,70.3,65.1L546.7,670z"/>
		<path style="clip-path:url(#SVGID_00000150802387360621728660000013184159989009779108_);fill:#30303D;" d="M573.2,738.7
			c0,0-0.1,0-0.1,0c-23.7-3.9-34.2-18.3-47.5-36.6c-6.4-8.7-13.6-18.6-23.2-28.8c-7.1-7.5-11.8-14-13.9-19.4
			c-2.4-6.1-1-9.4,0.7-11.1c4.6-4.7,16-2.3,24.5,5.2c3.2,2.8,8.3,7.2,16.3,13.3c6.5,4.9,17,7.7,17.1,7.7c0.5,0.1,0.8,0.6,0.6,1.1
			c-0.1,0.5-0.6,0.8-1.1,0.6c-0.4-0.1-11-2.9-17.7-8c-8-6.1-13.2-10.6-16.4-13.4c-7.7-6.8-18.1-9.3-22-5.3c-1.6,1.6-5.3,8.5,13.3,28
			c9.7,10.2,17,20.2,23.4,28.9c6.7,9.2,12.5,17.2,19.6,23.4c7.7,6.8,16.2,10.7,26.8,12.4c0.5,0.1,0.8,0.5,0.7,1
			C574.1,738.4,573.7,738.7,573.2,738.7"/>
		<path style="clip-path:url(#SVGID_00000150802387360621728660000013184159989009779108_);fill:#F7CB6E;" d="M458.3,130.1
			c0,0,15.2-66.1,34.1-66.9c18.9-0.8,14.8,17.7,40.2,19.3c25.5,1.6,25.5,20.5,11.9,28.3c-13.6,7.8-52.1,18-55.4,26.9
			C485.9,146.5,461.2,141.6,458.3,130.1"/>
		<path style="clip-path:url(#SVGID_00000150802387360621728660000013184159989009779108_);fill:#F7CB6E;" d="M487,155.1
			c0,0-39.3-80-82.5-89.6c-43.2-9.6-19.2,12-46.4,36c-27.2,24-2.5,38.4,41.6,34.4C443.7,131.9,487,155.1,487,155.1"/>
		<path style="clip-path:url(#SVGID_00000150802387360621728660000013184159989009779108_);fill:#231916;" d="M486.7,155.6
			c-0.1-0.1-13.4-7.3-31.8-15.4c-16.9-7.4-41.7-17-63.6-20.7c-21.7-3.7-37-3-40.9,1.8c-1.1,1.4-1.3,3.1-0.5,5.2l-1.1,0.4
			c-1-2.5-0.8-4.7,0.7-6.4c4.3-5.2,19.6-6,42-2.2c12.2,2.1,33.1,7.3,63.9,20.8c18.4,8.1,31.7,15.3,31.9,15.4L486.7,155.6z"/>
	</g>
	<polygon class="st32" points="633.6,272.2 495.5,290.8 351.8,310.3 331.1,157.1 474.8,137.7 612.8,119 	"/>
	
		<rect x="340.8" y="146.7" transform="matrix(0.991 -0.134 0.134 0.991 -26.2799 57.3914)" class="st33" width="145" height="154.6"/>
	<polygon class="st34" points="327,157.3 331.3,189.2 620.9,147.7 616.9,118.1 	"/>
	<polygon class="st35" points="473.1,168.9 468.2,138.2 327,157.3 331.3,189.2 	"/>
	<polygon class="st36" points="566.6,281.2 543.5,128 563,125.4 586.4,278.6 	"/>
	<polygon class="st37" points="410.8,302.3 392.2,148.5 413.8,145.6 431,299.6 	"/>
	<g>
		<defs>
			<rect id="SVGID_00000142861586770279585260000003937097328352419731_" width="800" height="819.1"/>
		</defs>
		<clipPath id="SVGID_00000009564320696913173490000007042640548668692636_">
			<use xlink:href="#SVGID_00000142861586770279585260000003937097328352419731_"  style="overflow:visible;"/>
		</clipPath>
		<path style="clip-path:url(#SVGID_00000009564320696913173490000007042640548668692636_);fill:#F7CB6E;" d="M459.1,139.4
			c0,0-68.9-18.7-72.8,66.3c-3.9,85-3.1,155.8-96.1,193.1l13.7,10.9l-8,21.9c0,0,67.9-22.2,93.8-70.1
			C445.6,258.2,393.5,158,459.1,139.4"/>
		<path style="clip-path:url(#SVGID_00000009564320696913173490000007042640548668692636_);fill:#F7CB6E;" d="M467.9,138.1
			c0,0,80.3-50.9,131.7,94l-16.3-8.4l-6.1,15.8C577.3,239.4,554.1,142.3,467.9,138.1"/>
	</g>
	<g>
		<path class="st2" d="M491,520.1c-2.3-0.4-3.9-1.6-5-3.1c-0.7,1.8-2.2,3.3-4.5,4.1L480,519c3.1-1.1,4.4-3.3,4.3-5.5l-3.9,0.3
			l-0.2-2.3l3.9-0.3l-0.1-2l2.9-0.2l0.1,2l4-0.3l0.2,2.3l-4,0.3c0.2,2,1.8,3.9,5,4.5L491,520.1z M483.1,521.9l13-0.9l0.5,7.2
			l-13,0.9L483.1,521.9z M486.3,526.7l7.4-0.5l-0.2-2.7l-7.4,0.5L486.3,526.7z M498.4,515.3l-2.7,0.2l0.3,4.7l-2.9,0.2l-0.8-11.7
			l2.9-0.2l0.3,4.7l2.7-0.2L498.4,515.3z"/>
		<path class="st2" d="M520.2,506.7l1.4,20.1l-2.9,0.2l-0.5-7.4l-4.1,0.3c-0.8,2-2.2,3.3-4.2,3.4c-3,0.2-5.4-2.4-5.7-6.8
			c-0.3-4.4,1.7-7.3,4.7-7.5c1.8-0.1,3.4,0.7,4.4,2.4l4.3-0.3l-0.3-4.1L520.2,506.7z M511.9,515.9c-0.2-3-1.3-4.5-2.8-4.4
			c-1.5,0.1-2.3,1.8-2.1,4.7c0.2,3,1.3,4.5,2.8,4.4C511.2,520.5,512.1,518.8,511.9,515.9z M518,517.2l-0.3-3.9l-3.5,0.2
			c0.2,0.6,0.3,1.4,0.3,2.1c0,0.6,0,1.2,0,1.8L518,517.2z"/>
	</g>
	<g>
		<path class="st39" d="M215.5,449.7l-0.9,2.9l-22.3-7l0.9-2.9l9.4,3l0.7-2.2l-6.6-2.1l2.8-9l16.9,5.3l-0.9,2.8l-13.4-4.2l-1,3.3
			l13.6,4.3l-0.9,2.8l-7-2.2l-0.7,2.2L215.5,449.7z M194.2,448l17.2,5.4l-2.7,8.5l-3.5-1.1l1.8-5.7l-13.7-4.3L194.2,448z"/>
		<path class="st39" d="M228.1,447.8c-1.2,3.8-0.7,8.9,2.8,12.1l-2.9,2.2c-2.3-2.1-3.5-5.3-3.6-8.6c-2.1,2.9-5,5.1-8.2,5.6l-1.1-3.5
			c4.7-0.6,8.2-4.7,9.5-8.9l0.4-1.4l-5.1-1.6l0.9-3l13.6,4.3l-0.9,3l-4.9-1.5L228.1,447.8z M240.1,457.9l-3.6-1.1l-4,12.6l-3.5-1.1
			l7.9-25.2l3.5,1.1l-3,9.6l3.6,1.1L240.1,457.9z"/>
		<path class="st39" d="M261.2,462.5c-1.8,5.6-5.6,8.2-9.3,7c-3.7-1.2-5.4-5.5-3.6-11.1c1.7-5.5,5.6-8.1,9.3-6.9
			C261.2,452.7,262.9,457,261.2,462.5z M251.6,459.5c-1.2,3.7-0.6,6.1,1.3,6.7c1.8,0.6,3.7-1,4.9-4.8c1.2-3.7,0.5-6.1-1.3-6.7
			C254.7,454.2,252.8,455.8,251.6,459.5z M271.3,453.9l-8,25.3l-3.5-1.1l8-25.3L271.3,453.9z"/>
		<path class="st39" d="M281,473.1l-9.8-3.1l4-12.8l3.3,1l-1.2,3.9l3.2,1l1.2-3.9l3.3,1l-1.6,5l2.1,0.7l2.1-6.5l3.3,1l-5.6,17.9
			l-3.3-1l2.7-8.4l-2.1-0.7L281,473.1z M289.8,483.8l-0.9,2.9l-17.2-5.4l2.6-8.2l3.5,1.1l-1.7,5.3L289.8,483.8z M279.7,465.9l-3.2-1
			l-1,3.3l3.2,1L279.7,465.9z M290.1,480.7l-3.4-1.1l6-19l3.4,1.1L290.1,480.7z"/>
		<path class="st39" d="M315.4,489.1l-0.9,2.9l-22.4-7.1l0.9-2.9L315.4,489.1z M314.1,484.8l-17.4-5.5l4.4-14l17.2,5.4l-0.9,2.9
			l-13.6-4.3L303,472l13,4.1l-0.9,2.8l-13-4.1l-0.9,2.8L315,482L314.1,484.8z"/>
	</g>
	<g>
		<path class="st39" d="M154.7,459c-2.4,7.7-6.5,13.6-16.8,15.6l-1.1-3.3c4.5-0.8,7.6-2.4,9.9-4.7l-7.3-1.6l0.5-3.2l8.7,2.2
			c0.6-1,1.1-2,1.6-3.2l-7.8-2.5l0.9-2.9L154.7,459z M163.6,459.1l-7.9,25.2l-3.5-1.1l4-12.6l-4.6-1.5l0.9-2.9l4.6,1.5l3-9.7
			L163.6,459.1z"/>
		<path class="st39" d="M174.3,480.2c1.1,0.3,2.1,0.5,3.2,0.7l-0.6,2.7c-5.5-0.7-11.2-2.4-15.6-3.8l0.6-3.1c0.9,0.3,1.8,0.6,2.8,0.9
			l3.6-11.3l-2.1-0.7l0.9-2.9l13.9,4.4l-0.9,2.9l-2.1-0.7L174.3,480.2z M168.1,478.6c0.9,0.3,1.8,0.5,2.8,0.8l3.5-11.1l-2.8-0.9
			L168.1,478.6z M187.6,466.7l-7.9,25.2l-3.6-1.1l7.9-25.2L187.6,466.7z"/>
		<path class="st39" d="M208.9,476.3c-2.4,7.7-7,13.2-17.1,14.8l-1-3.4c7.3-1.1,11.3-4.2,13.5-9.6l-8.2-2.6l0.9-2.9L208.9,476.3z
			 M217,475.9l-7.9,25.2l-3.6-1.1l7.9-25.2L217,475.9z"/>
		<path class="st39" d="M236.9,503.5l-0.9,2.9l-22.4-7.1l0.9-2.9L236.9,503.5z M224.1,483.8l-3.4-1.1l0.9-2.9l18.8,5.9l-0.9,2.9
			l-3.4-1.1l-2.4,7.6l3.3,1l-0.9,2.9l-18.6-5.9l0.9-2.9l3.2,1L224.1,483.8z M232.6,486.5l-5-1.6l-2.4,7.6l5,1.6L232.6,486.5z"/>
		<path class="st39" d="M244.3,502.8c3.7,1.1,6.7,1.9,10.2,2.5l-0.6,3c-4.1-0.6-7.5-1.6-12-3l-2.1-0.7l5.5-17.4l12.5,3.9l-0.9,2.9
			l-9-2.8l-1.3,4.1l7.9,2.5l-0.9,2.8l-7.9-2.5L244.3,502.8z M265.3,491.2l-8,25.2l-3.6-1.1l8-25.2L265.3,491.2z"/>
		<path class="st39" d="M268.1,516.2l14,4.4l-0.9,2.9l-17.6-5.5l2.4-7.5l3.5,1.1L268.1,516.2z M287.1,512.3l-0.9,2.8l-22.2-7
			l0.9-2.8l8.2,2.6l1-3.1l3.5,1.1l-1,3.1L287.1,512.3z M283.3,503.1c0.2-0.6,0.4-1.2,0.6-1.8l-13.8-4.3l0.9-2.9l17.3,5.4l-0.8,2.4
			c-0.8,2.5-1.6,5-3.3,8.1l-3.4-1.3c0.6-1.1,1-2,1.4-2.9l-14-3.7l0.5-3.1L283.3,503.1z"/>
		<path class="st39" d="M316.9,520.2l-0.9,2.8l-22.3-7l0.9-2.8L316.9,520.2z M311.5,528.3c-0.9,3-4.7,3.7-10.1,2
			c-5.3-1.7-8-4.4-7.1-7.4c0.9-3,4.7-3.7,10-2C309.7,522.6,312.4,525.4,311.5,528.3z M296.7,509.7c4.8,1.1,7.7,0.2,8.8-1.4l-6.6-2.1
			l0.9-2.9l18.3,5.8l-0.9,2.9l-6.6-2.1c0,1.9,1.9,4.3,6.5,6.2l-2.1,2.4c-4.5-1.9-7-4.6-7.5-7.4c-2.1,2-5.7,2.8-10.5,1.8L296.7,509.7
			z M307.9,527.2c0.4-1.3-1.1-2.4-4.4-3.5c-3.3-1-5.2-1-5.6,0.3c-0.4,1.3,1.1,2.4,4.4,3.5C305.6,528.6,307.5,528.5,307.9,527.2z"/>
		<path class="st39" d="M331,527.7c-2.4-1.7-3.7-4.1-4.1-6.7c-1.9,2.2-4.5,3.6-7.7,3.7l-0.9-3.4c4.4-0.2,7.2-2.8,8.3-5.9l-4.9-1.5
			l0.9-2.9l13.3,4.2l-0.9,2.9l-4.8-1.5c-0.8,2.9,0,6.4,3.3,8.8L331,527.7z M336.7,536.1c-1,3.1-4.7,3.8-10,2.2
			c-5.3-1.7-7.9-4.5-6.9-7.5c1-3.1,4.7-3.8,10-2.2C335,530.3,337.7,533.1,336.7,536.1z M333.2,535c0.4-1.4-1-2.6-4.2-3.7
			c-3.2-1-5.1-0.9-5.6,0.6c-0.4,1.4,1,2.6,4.3,3.7C330.8,536.6,332.7,536.4,333.2,535z M337.6,520.7l1.9-6.1l3.5,1.1l-4.7,15
			l-3.5-1.1l1.9-6l-3.7-1.2l0.9-2.9L337.6,520.7z"/>
	</g>
</g>
</svg>
