<?xml version="1.0" encoding="UTF-8"?><svg id="Layer_1" xmlns="http://www.w3.org/2000/svg" xmlns:xlink="http://www.w3.org/1999/xlink" viewBox="0 0 1200 435.97"><defs><clipPath id="clippath"><rect x="1118" y="190" width="82" height="25" style="fill:none;"/></clipPath><clipPath id="clippath-1"><rect y="190.53" width="82" height="25" style="fill:none;"/></clipPath></defs><g id="letter"><g style="clip-path:url(#clippath);"><g><polygon points="1198.98 191.92 1.02 191.92 1.02 223.44 1198.98 217.61 1198.98 191.92" style="fill:#ffcc7d;"/><polygon points="1198.98 191.92 1.02 191.92 1.02 223.44 1198.98 217.61 1198.98 191.92" style="fill:none; stroke:#231815; stroke-miterlimit:10; stroke-width:2px;"/></g></g><g style="clip-path:url(#clippath-1);"><g><polygon points="1198.98 191.92 1.02 191.92 1.02 223.44 1198.98 217.61 1198.98 191.92" style="fill:#ffcc7d;"/><polygon points="1198.98 191.92 1.02 191.92 1.02 223.44 1198.98 217.61 1198.98 191.92" style="fill:none; stroke:#231815; stroke-miterlimit:10; stroke-width:2px;"/></g></g><path d="m779.85,304.55l-4.11,1.11-174.08,46.78c-.48.13-1.07.2-1.66.2s-1.18-.07-1.66-.2l-174.08-46.78-4.11-1.11L1.02,191.92v242.53h1197.97v-242.53l-419.13,112.63Z" style="fill:#ffcc7d;"/><path d="m779.85,304.55l-4.11,1.11-174.08,46.78c-.48.13-1.07.2-1.66.2s-1.18-.07-1.66-.2l-174.08-46.78-4.11-1.11L1.02,191.92v242.53h1197.97v-242.53l-419.13,112.63Z" style="fill:none; stroke:#231815; stroke-linejoin:round; stroke-width:2px;"/><line x1="424.59" y1="306.36" x2=".7" y2="434.4" style="fill:none; stroke:#231815; stroke-miterlimit:10; stroke-width:2px;"/><line x1="1199.3" y1="434.4" x2="775.41" y2="306.36" style="fill:none; stroke:#231815; stroke-miterlimit:10; stroke-width:2px;"/><path d="m83.49,213.5l340.77,91.64,174.08,46.81c.48.13,1.07.2,1.66.2s1.18-.07,1.66-.2l174.08-46.81,340.81-91.64" style="fill:none; stroke:#231815; stroke-miterlimit:10; stroke-width:2px;"/></g><g id="girl"><polygon points="1041.33 225.75 999.22 225.75 1020.28 244.18 1041.33 225.75" style="fill:#ffcc7d;"/><path d="m1000.54,250.05l10.22-10.22-14.03-12.28v10.81c2.34,1.33,3.82,3.81,3.82,6.56v5.13Z" style="fill:#ffcc7d;"/><polygon points="1043.82 227.56 1029.79 239.84 1043.82 253.87 1043.82 227.56" style="fill:#ffcc7d;"/><path d="m994.72,240.71l-1.25-.51c-.56-.23-1.14-.34-1.72-.34-1.68,0-3.3.93-4.09,2.51l-.59,1.18c-.53,1.06-.63,2.27-.27,3.4l1.83,5.84c.6,1.91,2.35,3.19,4.35,3.19,2.51,0,4.56-2.04,4.56-4.56v-6.51c0-1.85-1.11-3.51-2.82-4.21" style="fill:#ffc9cf;"/><path d="m1047.12,186.71c-3.28-.09-6.46-.88-9.28-2.25v8.76l9.32,11.28,9.32-11.28v-8.76c-2.82,1.37-6,2.16-9.27,2.25-.01,0-.03,0-.04,0-.01,0-.03,0-.04,0" style="fill:#ffc9cf;"/><path d="m1034.85,192.55v-9.86c-.79-.56-1.52-1.18-2.21-1.84-2.84-2.77-4.96-6.35-6.29-10.65-.16-.05-.3-.11-.46-.17-.27,3.3-1.54,6.52-3.62,9.11-2.11,2.61-5.05,4.55-8.27,5.5,2.88,4,7.48,8.28,14.34,9.33l6.51-1.41Z" style="fill:#a36e70;"/><path d="m1038.76,158.68c1.26,0,2.28,1.02,2.28,2.28s-1.02,2.28-2.28,2.28-2.28-1.02-2.28-2.28,1.02-2.28,2.28-2.28m14.45,11.92c.83,0,1.5.67,1.5,1.5,0,4.16-3.39,7.55-7.55,7.55s-7.55-3.39-7.55-7.55c0-.83.67-1.5,1.5-1.5h12.1Zm-8.95-7.37l3.68-3.68,2.12,2.12-2.62,2.62,2.62,2.62-2.12,2.12-3.68-3.68c-.28-.28-.44-.66-.44-1.06s.16-.78.44-1.06m11.3-4.54c1.26,0,2.28,1.02,2.28,2.28s-1.02,2.28-2.28,2.28-2.28-1.02-2.28-2.28,1.02-2.28,2.28-2.28m-27.65,8.85c.52.13.94.53,1.08,1.05,1.17,4.15,3.1,7.55,5.73,10.12,3.13,3.05,7.66,4.87,12.43,5.01,4.77-.14,9.3-1.97,12.43-5.01,2.64-2.57,4.57-5.97,5.73-10.12.15-.52.56-.92,1.08-1.05,1.3-.32,2.37-.85,3.18-1.57,1.41-1.25,1.99-3.26,1.35-4.68-.18-.39-.45-.79-.83-1.17-.65-.67-1.48-1.19-2.41-1.51-11.48-1.75-16.18-11.86-17.46-15.27-16.5.55-22.34,13.82-22.58,14.39-.17.4-.51.71-.92.84-.98.32-1.85.85-2.52,1.55-.37.39-.65.78-.83,1.17-.64,1.42-.06,3.43,1.35,4.68.81.72,1.88,1.25,3.18,1.57" style="fill:#ffc9cf;"/><path d="m1067.97,170.2c-1.33,4.3-3.44,7.88-6.29,10.65-.68.66-1.42,1.28-2.21,1.84v8.38l15.38-9.51c-.9-.73-1.72-1.53-2.44-2.42-2.11-2.61-3.39-5.89-3.64-9.23-.26.11-.53.21-.8.3" style="fill:#a36e70;"/><path d="m1104.71,119.59c.18-1.72-.37-3.44-1.53-4.73s-2.81-2.02-4.54-2.02c-2.99,0-5.59,2.23-6.03,5.19l-.83,5.53c-.08.52-.42.96-.91,1.16-.49.2-1.04.14-1.46-.17-.49-.35-2.03-1.22-3.27-.97-.58.12-1.06.49-1.47,1.15-.45.73,2.26,3.67,6,6.07l12.97-1.23,1.07-9.98Z" style="fill:#ffc9cf;"/><path d="m1047.16,176.65c1.98,0,3.67-1.28,4.3-3.05h-8.59c.62,1.77,2.31,3.05,4.3,3.05" style="fill:#ff7382;"/><path d="m1051.19,140.31c.45-.07,3.66-.59,5.71-2.71l2.16,2.09c-1.8,1.86-4.15,2.79-5.76,3.23,1.38,3.4,5.59,11.37,14.96,12.74.08.01.17.03.25.06.35.11.68.25,1.01.39v-1.73c0-13.08-10.03-23.72-22.36-23.72s-22.35,10.64-22.35,23.72v1.74c.13-.06.25-.13.38-.18,1.51-2.97,8.92-15.56,26-15.63" style="fill:#a36e70;"/><path d="m1077.07,419.37v-6.25c-2.74.62-7.45,1.49-12.12,1.49-1.75,0-3.48-.13-5.11-.43l.54,6.74c2.3,1.65,4.63,2.26,6.79,2.26,4.65,0,8.55-2.75,9.89-3.82" style="fill:#fff;"/><path d="m1060.44,424.51v8.45h27.51c.59-.1,2.25-2.34,2.01-5.16-.34-3.92-4.19-6.12-10.85-6.23-2.03,1.61-10.27,7.41-18.66,2.93" style="fill:#d68f8a;"/><path d="m1103.83,132.57l-11.93,1.13,2.51,36.99c1.99.21,5.73.9,8.8,3.24l-1.82,2.39c-2.94-2.24-6.77-2.63-7.99-2.7l-34.42,21.29-10.66,12.91c-.28.35-.71.55-1.16.55s-.87-.2-1.16-.55l-10.23-12.39-21.68,4.71c-6.08,1.32-10.64,6.14-11.63,12.28l-1.66,10.34h12.66l-1.39-13.75,2.98-.3,1.42,14.05h28.85c.83,0,1.5.67,1.5,1.5v33.24c0,.83-.67,1.5-1.5,1.5h-25.2l.63,6.27h52.81l5.21-52.94c.04-.42.26-.81.6-1.06l28.26-20.97c4.68-3.47,6.88-9.38,5.63-15.07l-9.44-42.66Z" style="fill:#ff7382;"/><path d="m1067.41,318.4c-14.45-6.37-27.52-16.06-37.81-28.03l2.28-1.96c10,11.64,22.71,21.06,36.75,27.24l-1.21,2.75Zm-47.03-50.13l-26.3,60.34c5.55,1.91,26.24,8.37,53.08,8.37s47.54-6.45,53.08-8.37l-26.3-60.34h-53.55Z" style="fill:#ff7382;"/><path d="m1015.22,421.58c-6.66.11-10.51,2.31-10.85,6.23-.25,2.82,1.42,5.06,2.03,5.16h27.49v-8.46c-8.39,4.47-16.63-1.32-18.66-2.93" style="fill:#d68f8a;"/><path d="m1017.26,409.93c2.97.72,11.38,2.51,17.47,1.25l5.73-71.34c-8.59-.33-16.43-1.27-23.2-2.43v72.51Z" style="fill:#ffc9cf;"/><path d="m1077.07,410.04v-72.63c-6.77,1.15-14.61,2.09-23.2,2.43l5.72,71.23c5.83,1.39,14.07-.23,17.48-1.03" style="fill:#ffc9cf;"/><path d="m1027.53,241.82l-6.27,5.48c-.28.25-.64.37-.99.37s-.7-.12-.99-.37l-6.27-5.48-13.67,13.67c-.11.17-.23.34-.35.51h42.7l-14.17-14.17Z" style="fill:#ffcc7d;"/><path d="m1017.26,413.02v6.36c1.98,1.58,9.47,6.74,16.69,1.56l.53-6.66c-1.48.24-3.05.34-4.62.34-4.96,0-9.95-.99-12.6-1.6" style="fill:#fff;"/><path d="m1047.94,169.03l2.12-2.12-2.62-2.62,2.62-2.62-2.12-2.12-3.68,3.68c-.28.28-.44.66-.44,1.06s.16.78.44,1.06l3.68,3.68Z" style="fill:#231815;"/><path d="m1038.76,163.25c1.26,0,2.28-1.02,2.28-2.28s-1.02-2.28-2.28-2.28-2.28,1.02-2.28,2.28,1.02,2.28,2.28,2.28" style="fill:#231815;"/><path d="m1055.56,163.25c1.26,0,2.28-1.02,2.28-2.28s-1.02-2.28-2.28-2.28-2.28,1.02-2.28,2.28,1.02,2.28,2.28,2.28" style="fill:#231815;"/><path d="m1051.46,173.6c-.62,1.77-2.31,3.05-4.3,3.05s-3.67-1.28-4.29-3.05h8.59Zm-11.85-1.5c0,4.16,3.39,7.55,7.55,7.55s7.55-3.39,7.55-7.55c0-.83-.67-1.5-1.5-1.5h-12.1c-.83,0-1.5.67-1.5,1.5" style="fill:#231815;"/><path d="m1107.63,190.3l-28.26,20.97c-.34.25-.56.64-.6,1.06l-5.21,52.94h-52.8l-.63-6.27h25.2c.83,0,1.5-.67,1.5-1.5v-33.24c0-.83-.67-1.5-1.5-1.5h-28.85l-1.41-14.05-2.99.3,1.39,13.75h-12.66l1.66-10.34c.99-6.14,5.55-10.96,11.63-12.28l21.68-4.71,10.23,12.39c.29.35.71.55,1.16.55s.87-.2,1.16-.55l10.66-12.91,34.42-21.29c1.22.07,5.05.46,7.99,2.7l1.82-2.39c-3.07-2.34-6.81-3.04-8.8-3.24l-2.51-36.99,11.93-1.13,9.44,42.66c1.26,5.69-.95,11.6-5.63,15.07m-7.39,138.31c-5.54,1.92-26.21,8.37-53.08,8.37s-47.53-6.46-53.08-8.37l26.3-60.34h53.56l26.3,60.34Zm-10.29,99.2c.25,2.82-1.42,5.05-2.01,5.16h-27.51v-8.45c8.39,4.47,16.63-1.32,18.66-2.93,6.66.11,10.51,2.31,10.85,6.23m-30.11-13.62c1.63.3,3.36.43,5.11.43,4.67,0,9.38-.87,12.12-1.49v6.25c-1.34,1.07-5.25,3.82-9.89,3.82-2.17,0-4.49-.61-6.79-2.26l-.54-6.74Zm-5.98-74.35c8.59-.34,16.43-1.27,23.2-2.43v72.63c-3.41.8-11.65,2.42-17.48,1.03l-5.73-71.23Zm-19.14,71.34c-6.08,1.25-14.5-.53-17.47-1.25v-72.51c6.77,1.16,14.61,2.09,23.2,2.43l-5.73,71.34Zm-.78,9.75c-7.22,5.18-14.7.02-16.69-1.56v-6.36c2.65.62,7.64,1.6,12.6,1.6,1.57,0,3.14-.1,4.62-.34l-.53,6.66Zm-.06,12.03h-27.49c-.61-.1-2.27-2.34-2.03-5.16.34-3.92,4.19-6.12,10.85-6.23,2.03,1.61,10.27,7.41,18.66,2.93v8.45Zm-34.88-176.98c.13-.16.24-.33.36-.51l13.67-13.67,6.27,5.48c.28.25.63.37.99.37s.71-.12.99-.37l6.27-5.48,14.17,14.17h-42.7Zm-2.27-17.62v-10.81l14.03,12.28-10.22,10.22v-5.13c0-2.75-1.47-5.23-3.82-6.56m.82,13.07c0,2.51-2.04,4.56-4.56,4.56-2,0-3.75-1.28-4.35-3.19l-1.83-5.84c-.36-1.13-.26-2.34.27-3.4l.59-1.18c.79-1.58,2.41-2.52,4.09-2.52.58,0,1.16.11,1.72.34l1.25.51c1.71.71,2.82,2.36,2.82,4.21v6.51Zm46.28-23.88v26.31l-14.03-14.03,14.03-12.28Zm-2.49-1.81l-21.06,18.42-21.06-18.42h42.11Zm-27.33-41.12c3.22-.95,6.15-2.88,8.27-5.5,2.09-2.58,3.35-5.8,3.62-9.1.15.06.3.12.46.17,1.33,4.3,3.45,7.88,6.29,10.65.68.66,1.42,1.28,2.21,1.84v9.86l-6.51,1.41c-6.86-1.05-11.46-5.33-14.34-9.33m42.47-.17v8.76l-9.32,11.28-9.32-11.28v-8.76c2.82,1.37,6,2.16,9.28,2.25h.08c3.28-.09,6.46-.88,9.27-2.25m-33.09-23.18c.18-.39.46-.79.83-1.17.67-.7,1.54-1.23,2.52-1.55.41-.13.75-.44.92-.84.25-.58,6.09-13.84,22.58-14.39,1.27,3.41,5.97,13.53,17.46,15.27.93.32,1.77.84,2.41,1.51.37.39.65.78.83,1.17.64,1.42.06,3.43-1.35,4.68-.81.72-1.89,1.25-3.18,1.57-.52.13-.94.53-1.08,1.05-1.17,4.15-3.1,7.55-5.73,10.12-3.13,3.05-7.66,4.87-12.43,5.01-4.77-.14-9.3-1.97-12.43-5.01-2.64-2.57-4.57-5.97-5.73-10.12-.15-.52-.56-.92-1.08-1.05-1.3-.32-2.37-.85-3.18-1.57-1.41-1.25-1.99-3.26-1.35-4.68m1.42-6.91c0-13.08,10.03-23.72,22.35-23.72s22.36,10.64,22.36,23.72v1.73c-.33-.15-.66-.28-1.01-.39-.08-.03-.16-.05-.25-.06-9.38-1.37-13.58-9.34-14.96-12.74,1.6-.44,3.95-1.37,5.75-3.23l-2.15-2.09c-2.05,2.12-5.27,2.65-5.71,2.71-17.08.06-24.49,12.66-26,15.63-.13.05-.25.12-.38.18v-1.74Zm47.61,24.76c.72.89,1.54,1.7,2.44,2.42l-15.38,9.51v-8.38c.79-.56,1.52-1.18,2.21-1.84,2.84-2.77,4.96-6.35,6.29-10.65.28-.09.54-.19.8-.3.25,3.35,1.52,6.62,3.64,9.23m18.26-48.34c-3.74-2.41-6.44-5.35-6-6.07.4-.65.88-1.03,1.47-1.15,1.24-.25,2.78.62,3.27.97.42.31.98.38,1.46.18.49-.2.83-.64.91-1.16l.83-5.53c.44-2.96,3.04-5.19,6.03-5.19,1.73,0,3.38.74,4.54,2.02,1.16,1.29,1.71,3.01,1.53,4.73l-1.07,9.98-12.97,1.23Zm15.85.07l1.17-10.96c.27-2.56-.56-5.13-2.28-7.05-1.72-1.92-4.19-3.02-6.77-3.02-4.47,0-8.34,3.33-9,7.75l-.52,3.45c-1-.38-2.26-.65-3.55-.4-1.42.28-2.61,1.15-3.46,2.52-2.24,3.63,3.91,8.2,6.73,10.05l2.59,38.1-13.85,8.57c-1.08-.74-2.03-1.61-2.84-2.61-2.08-2.57-3.15-5.92-2.99-9.21,2.25-2.13,3.06-5.44,1.92-7.99-.27-.6-.66-1.19-1.15-1.74v-3.93c0-14.74-11.37-26.72-25.36-26.72s-25.36,11.99-25.36,26.72v3.93c-.49.56-.88,1.14-1.15,1.74-1.18,2.61-.3,6.04,2.1,8.16.06.05.13.1.19.15.08,3.2-.99,6.41-3,8.9-2.13,2.63-5.26,4.42-8.61,4.9-.5.07-.93.39-1.14.85-.21.46-.18.99.08,1.42,2.36,3.82,6.19,8.35,11.95,10.87l-8.76,1.9c-7.29,1.58-12.77,7.37-13.95,14.74l-1.74,10.82h-2.54c-.83,0-1.5.67-1.5,1.5v12.88c-3.42-.93-7.13.66-8.75,3.9l-.59,1.18c-.88,1.76-1.04,3.77-.45,5.64l1.83,5.84c.99,3.16,3.89,5.29,7.21,5.29.54,0,1.06-.06,1.57-.17.2.1.43.17.67.17h21.89l.76,7.53-27.18,62.35c-.16.37-.17.8-.01,1.17.16.38.46.67.84.82.14.06,8.82,3.39,22.74,6v81.73c-7.29.33-10.43,3.08-11.78,5.42-1.9,3.29-1.1,7.02.16,9.21,1,1.74,2.36,2.74,3.74,2.74h29.01c.83,0,1.5-.67,1.5-1.5v-12.67l6.58-81.86c1.22.03,2.45.04,3.7.04s2.48-.02,3.7-.04l6.58,81.86v12.67c0,.83.67,1.5,1.5,1.5h29.01c1.37,0,2.73-1,3.74-2.74,1.26-2.19,2.06-5.92.16-9.21-1.35-2.33-4.49-5.09-11.78-5.42v-81.73c13.92-2.62,22.59-5.95,22.74-6,.38-.15.68-.44.84-.82.16-.38.15-.8-.01-1.17l-27.18-62.35,5.24-53.24,27.72-20.57c5.62-4.17,8.28-11.29,6.77-18.13l-9.67-43.72Z" style="fill:#231815;"/><path d="m1031.87,288.41l-2.28,1.96c10.29,11.97,23.37,21.67,37.81,28.03l1.21-2.75c-14.04-6.19-26.75-15.61-36.75-27.24" style="fill:#231815;"/></g><g id="mail"><polygon points="1062.28 55.93 1085.23 77.58 1067.37 40.3 1062.28 55.93" style="fill:#829ecf;"/><polygon points="1045.72 65.39 1083.45 80.03 1060.29 58.18 1045.72 65.39" style="fill:#829ecf;"/><path d="m1062.28,55.93l5.09-15.63,17.86,37.28-22.95-21.65Zm-16.56,9.45l14.57-7.21,23.16,21.85-37.73-14.64Zm22.74-29.77c-.26-.55-.84-.89-1.45-.85-.61.04-1.14.45-1.33,1.03l-6.35,19.5-17.99,8.9c-.53.26-.86.82-.83,1.41.03.59.4,1.12.96,1.33l48.06,18.65c.18.07.36.1.54.1.41,0,.81-.17,1.1-.48.42-.45.52-1.11.25-1.67l-22.96-47.93Z" style="fill:#231815;"/><path d="m1014.53,27.82c-.12.06-.55-.16-1.13-.84-.75-.87-.62-2.33-.25-3.42.69-2.04,1.92-3.45,3.65-4.21-.15,3.07-1.01,7.77-2.27,8.47m28.84,10.9c-2.12-6.07-4.58-12.38-9.19-17.1-3.3-3.37-9.41-6.23-14.77-5.9-1.63-4.84-5.75-9.08-11.38-11.69-5.04-2.34-10.5-3.2-15.79-4.02l-.46,2.96c5.08.8,10.33,1.62,14.99,3.78,4.72,2.19,8.19,5.64,9.65,9.53-2.94.98-5.05,3.14-6.13,6.31-.83,2.42-.52,4.8.82,6.35,2.13,2.47,3.96,2,4.86,1.5,2.87-1.59,3.81-7.93,3.8-11.74,4.38-.21,9.54,2.25,12.26,5.02,4.18,4.27,6.49,10.24,8.5,15.99l2.83-.99Z" style="fill:#231815;"/></g><g id="mailbox"><rect x="64.6" y="243.94" width="10.3" height="178.31" style="fill:#d68f8a;"/><path d="m84.05,201.44h-18.79l1.21,4.98-2.92.71-1.38-5.69h-16.57c-8.09,0-14.67,6.58-14.67,14.67v24.83h45.28v-24.83c0-6.1,3.11-11.49,7.83-14.67" style="fill:#ff7382;"/><polygon points="45.29 183.14 45.29 190.18 59.44 190.18 57.74 183.14 45.29 183.14" style="fill:#ff7382;"/><rect x="86.41" y="225.75" width="14.95" height="6.52" style="fill:#ff7382;"/><path d="m104.36,233.77c0,.83-.67,1.5-1.5,1.5h-17.95c-.83,0-1.5-.67-1.5-1.5v-9.52c0-.83.67-1.5,1.5-1.5h17.95c.83,0,1.5.67,1.5,1.5v9.52Zm-10.47-32.33c-8.09,0-14.67,6.58-14.67,14.67v24.83h29.34v-24.83c0-8.09-6.58-14.67-14.67-14.67" style="fill:#ff7382;"/><path d="m108.56,240.94h-29.34v-24.83c0-8.09,6.58-14.67,14.67-14.67s14.67,6.58,14.67,14.67v24.83Zm-32.34-24.83v24.83H30.94v-24.83c0-8.09,6.58-14.67,14.67-14.67h16.57l1.38,5.69,2.92-.71-1.21-4.98h18.79c-4.72,3.17-7.83,8.57-7.83,14.67m-1.32,206.14h-10.3v-178.31h10.3v178.31Zm-29.61-232.07v-7.04h12.45l1.71,7.04h-14.15Zm48.6,8.26h-29.35l-4.16-17.15c-.16-.67-.77-1.15-1.46-1.15h-15.13c-.83,0-1.5.67-1.5,1.5v10.04c0,.83.67,1.5,1.5,1.5h16.38l1.27,5.26h-15.84c-9.74,0-17.67,7.93-17.67,17.67v26.33c0,.83.67,1.5,1.5,1.5h32.16v179.81c0,.83.67,1.5,1.5,1.5h13.3c.83,0,1.5-.67,1.5-1.5v-179.81h32.16c.83,0,1.5-.67,1.5-1.5v-26.33c0-9.74-7.93-17.67-17.67-17.67" style="fill:#231815;"/><path d="m101.36,232.26h-14.95v-6.52h14.95v6.52Zm1.5-9.52h-17.95c-.83,0-1.5.67-1.5,1.5v9.52c0,.83.67,1.5,1.5,1.5h17.95c.83,0,1.5-.67,1.5-1.5v-9.52c0-.83-.67-1.5-1.5-1.5" style="fill:#231815;"/><path d="m114.61,176.65l-2.63-1.44-5.26,9.65c-2.74-1.2-5.58-2.14-8.5-2.82l.45-11.92-3-.11-.43,11.45c-2.28-.38-4.59-.61-6.91-.66l-.06,3c2.31.05,4.6.29,6.86.68l-.24,6.53,3,.11.23-6.02c2.45.6,4.85,1.41,7.17,2.41l-2.39,4.38,2.63,1.44,2.47-4.54c3.01,1.54,5.86,3.4,8.47,5.59l1.93-2.3c-2.76-2.31-5.78-4.29-8.96-5.92l5.18-9.5Z" style="fill:#231815;"/></g><g id="guy"><path d="m147.06,265.53c.27-.14,4.19-2.31,8.51-12.83.24-.58.81-.95,1.44-.93.63.02,1.17.43,1.37,1.03.02.05,1.44,4.18,4.68,6.25l-.28-5.71c-.02-.41.13-.81.41-1.11.28-.3.68-.47,1.09-.47h14.69c.47,0,.91.22,1.19.59l9.9,13c.53-3.4,1.56-11.72.04-16.89-.5-1.7-1.34-2.87-2.51-3.45-1.91-.97-4.19-.18-4.21-.18-.65.23-1.37,0-1.76-.57-2.48-3.67-5.62-5.89-9.33-6.59-7.19-1.36-15.55,3.05-21.29,6.99-8.9,6.12-7.01,17.2-5.78,21.7.57-.34,1.18-.63,1.82-.84" style="fill:#a36e70;"/><path d="m112.88,376.69l26.02,2.97.37-14.97-23.67-8.78,1.04-2.81,12.87,4.78-3.05-35.21,2.99-.26,3.17,36.62,7.83,2.91,1.82-1.66c1.15-1.05,2.52-1.77,3.96-2.14v-32.71c0-.83.67-1.5,1.5-1.5h41.49c.83,0,1.5.67,1.5,1.5v32.71c1.44.37,2.8,1.09,3.96,2.14l1.82,1.66,7.83-2.91,3.17-36.62,2.99.26-3.05,35.21,12.87-4.78,1.04,2.81-23.67,8.78.37,14.97,26.02-2.97c3.31-.38,6.2-2.22,7.93-5.07,1.73-2.84,2.05-6.26.86-9.37l-15.77-41.51c-2.5-6.58-8.39-11.32-15.35-12.35l-21.92-3.25-10.28,10.32c-.28.28-.66.44-1.06.44s-.78-.16-1.06-.44l-10.28-10.32-21.92,3.25c-6.97,1.03-12.85,5.77-15.35,12.35l-15.77,41.51c-1.18,3.11-.87,6.52.86,9.37,1.73,2.84,4.62,4.69,7.93,5.07" style="fill:#b573b0;"/><path d="m168.44,296.51c-3.28-.09-6.46-.88-9.27-2.25v8.68l9.32,9.35,9.32-9.35v-8.68c-2.82,1.37-6,2.16-9.27,2.25-.01,0-.03,0-.04,0s-.03,0-.04,0" style="fill:#ffc9cf;"/><path d="m149.24,357.85c1.52.1,3.03.58,4.38,1.44,3.46,2.2,5.07,6.35,4.01,10.31l-1.49,5.58h24.7l-1.49-5.58c-1.06-3.96.55-8.11,4.01-10.31,1.35-.86,2.86-1.34,4.38-1.44v-30.94h-38.49v30.94Z" style="fill:#fff;"/><path d="m168.37,403.36l21.28-13.21c-7.12,1.51-14.35,2.27-21.54,2.27s-14.08-.73-20.9-2.19l21.16,13.14Z" style="fill:#f5949e;"/><path d="m202.49,382.18l-5.71.65s-.01,0-.02,0h0s-5.6.56-5.6.56c-.32.03-.64.05-.95.05-3.6,0-6.84-2.06-8.39-5.25h-26.67c-1.55,3.2-4.78,5.25-8.39,5.25-.32,0-.63-.02-.95-.05l-5.6-.56h0s-.01,0-.02,0l-5.99-.68,4.17,2.59c18.93,6.23,40.19,6.25,59.93.05l4.19-2.6Z" style="fill:#b573b0;"/><path d="m172.78,283.67h-8.59c.62,1.77,2.31,3.05,4.29,3.05s3.67-1.28,4.3-3.05" style="fill:#ff7382;"/><path d="m160.93,282.17c0-.83.67-1.5,1.5-1.5h12.1c.83,0,1.5.67,1.5,1.5,0,4.16-3.39,7.55-7.55,7.55s-7.55-3.39-7.55-7.55m-3.13-11.41c0-1.26,1.02-2.28,2.28-2.28s2.28,1.02,2.28,2.28-1.02,2.28-2.28,2.28-2.28-1.02-2.28-2.28m7.78,2.26l3.68-3.68,2.12,2.12-2.62,2.62,2.62,2.62-2.12,2.12-3.68-3.68c-.59-.59-.59-1.54,0-2.12m11.3-4.54c1.26,0,2.28,1.02,2.28,2.28s-1.02,2.28-2.28,2.28-2.28-1.02-2.28-2.28,1.02-2.28,2.28-2.28m4.03,20.02c2.64-2.57,4.57-5.97,5.73-10.12.15-.52.56-.92,1.08-1.05,1.3-.32,2.37-.85,3.18-1.57,1.41-1.25,1.99-3.26,1.35-4.68-.18-.39-.46-.79-.83-1.17-.67-.69-1.54-1.23-2.52-1.55-.29-.09-.55-.28-.73-.52l-9.95-13.07h-12.37l.33,6.56c.02.48-.18.94-.56,1.24-.38.3-.87.4-1.34.28-3.6-.99-5.92-3.76-7.27-6-4.47,9.48-8.4,11.29-8.87,11.47-.03.01-.06.02-.09.03-.98.32-1.85.85-2.52,1.55-.37.39-.65.78-.83,1.17-.64,1.42-.06,3.43,1.35,4.68.81.72,1.88,1.25,3.18,1.57.52.13.94.53,1.08,1.05,1.17,4.15,3.1,7.55,5.73,10.12,3.13,3.05,7.66,4.87,12.43,5.01,4.77-.14,9.3-1.97,12.43-5.01" style="fill:#ffc9cf;"/><path d="m209.41,417.39c-.45-.42-.95-.79-1.49-1.11l-25.5,11c6.33,3.38,15.41,4.77,20.64,5.32,2.65.28,5.23-.67,7.08-2.6,1.61-1.67,2.46-3.87,2.39-6.19-.07-2.32-1.04-4.47-2.74-6.05l-.39-.36Z" style="fill:#fff;"/><path d="m232.9,382.07c-1.15-1.45-2.6-2.68-4.21-3.6-1.32.62-2.76,1.03-4.26,1.2l-14.97,1.71-52.89,32.84,6.28,18.22,64.39-27.76c3.6-1.55,6.38-4.41,7.82-8.05,1.45-3.64,1.39-7.63-.16-11.23-.52-1.2-1.19-2.33-1.99-3.34" style="fill:#f5949e;"/><path d="m133.19,415.08c-2.18,0-4.26.82-5.86,2.3l-.39.36c-1.7,1.58-2.67,3.73-2.74,6.05-.07,2.32.79,4.52,2.39,6.19,1.85,1.93,4.43,2.87,7.08,2.6,6.32-.66,17.53-2.47,23.56-7.19l-3.56-10.32h-20.5Z" style="fill:#fff;"/><path d="m144.3,362.49l-2.02,1.84-.38,15.65,4.22.42c3.11.31,5.97-1.66,6.78-4.68l1.84-6.89c.72-2.69-.37-5.51-2.72-7.01-2.42-1.54-5.59-1.27-7.7.66" style="fill:#ffc9cf;"/><path d="m133.19,412.08h21.14l11.2-6.95-38.29-23.78-14.69-1.68c-1.54-.18-3.02-.61-4.37-1.25-2.8,1.57-5.04,4.01-6.32,6.99-3.2,7.43.23,16.07,7.66,19.28l19.23,8.29c1.4-.58,2.9-.89,4.45-.89" style="fill:#f5949e;"/><path d="m182.24,368.83l1.84,6.89c.81,3.03,3.66,5,6.77,4.68l4.21-.42-.38-15.65-2.02-1.84c-2.12-1.93-5.29-2.2-7.7-.66-2.35,1.5-3.44,4.31-2.72,7.01" style="fill:#ffc9cf;"/><path d="m169.26,278.83l2.12-2.12-2.62-2.62,2.62-2.62-2.12-2.12-3.68,3.68c-.59.59-.59,1.54,0,2.12l3.68,3.68Z" style="fill:#231815;"/><path d="m162.36,270.76c0-1.26-1.02-2.28-2.28-2.28s-2.28,1.02-2.28,2.28,1.02,2.28,2.28,2.28,2.28-1.02,2.28-2.28" style="fill:#231815;"/><path d="m176.89,273.04c1.26,0,2.28-1.02,2.28-2.28s-1.02-2.28-2.28-2.28-2.28,1.02-2.28,2.28,1.02,2.28,2.28,2.28" style="fill:#231815;"/><path d="m235.05,396.64c-1.45,3.64-4.22,6.5-7.82,8.05l-64.39,27.76-6.28-18.22,52.89-32.84,14.97-1.71c1.5-.17,2.93-.58,4.26-1.2,1.62.92,3.06,2.15,4.21,3.6.8,1.01,1.47,2.13,1.99,3.34,1.55,3.6,1.61,7.58.16,11.23m-22.52,27.17c.07,2.32-.79,4.52-2.39,6.19-1.85,1.93-4.43,2.87-7.08,2.6-5.23-.55-14.31-1.94-20.64-5.32l25.5-11c.53.32,1.03.69,1.49,1.11l.39.36c1.7,1.58,2.67,3.73,2.73,6.05m-78.85,8.79c-2.65.28-5.23-.67-7.08-2.6-1.61-1.67-2.46-3.87-2.39-6.19.07-2.32,1.04-4.47,2.74-6.05l.39-.36c1.6-1.49,3.68-2.3,5.86-2.3h20.5l3.56,10.32c-6.03,4.72-17.24,6.53-23.56,7.19m-24.17-27.91c-7.43-3.2-10.86-11.85-7.66-19.28,1.28-2.97,3.51-5.42,6.32-6.99,1.36.65,2.83,1.08,4.37,1.25l14.69,1.68,38.29,23.78-11.2,6.95h-21.14c-1.55,0-3.05.31-4.45.89l-19.23-8.29Zm42.49-42.86c2.35,1.5,3.44,4.31,2.72,7.01l-1.84,6.89c-.81,3.03-3.67,5-6.78,4.68l-4.22-.42.38-15.65,2.02-1.84c2.12-1.93,5.29-2.2,7.7-.66m40.66.66l2.02,1.84.38,15.65-4.21.42c-3.12.32-5.97-1.66-6.78-4.68l-1.84-6.89c-.72-2.69.37-5.51,2.72-7.01,2.42-1.54,5.58-1.27,7.7.66m-4.94-4.63c-1.52.1-3.03.58-4.38,1.44-3.46,2.2-5.07,6.35-4.01,10.31l1.49,5.58h-24.7l1.49-5.58c1.06-3.96-.55-8.11-4.01-10.31-1.35-.86-2.86-1.34-4.38-1.44v-30.94h38.49v30.94Zm1.92,32.3l-21.28,13.21-21.16-13.14c6.82,1.46,13.83,2.19,20.9,2.19s14.42-.76,21.54-2.27m-51.28-5.42l-4.17-2.59,5.99.68s.01,0,.02,0h0s5.6.56,5.6.56c.32.03.64.05.95.05,3.6,0,6.83-2.06,8.39-5.25h26.67c1.55,3.19,4.78,5.25,8.39,5.25.31,0,.63-.02.95-.05l5.6-.56h0s.01,0,.02,0l5.71-.65-4.19,2.6c-19.74,6.2-41,6.18-59.93-.05m-33.41-13.1c-1.73-2.84-2.05-6.26-.86-9.37l15.77-41.51c2.5-6.58,8.38-11.32,15.35-12.35l21.92-3.25,10.28,10.32c.28.28.66.44,1.06.44s.78-.16,1.06-.44l10.28-10.32,21.92,3.25c6.97,1.03,12.85,5.77,15.35,12.35l15.77,41.51c1.18,3.11.87,6.52-.86,9.37-1.73,2.84-4.62,4.69-7.93,5.07l-26.02,2.97-.37-14.97,23.67-8.79-1.04-2.81-12.87,4.78,3.05-35.21-2.99-.26-3.17,36.62-7.83,2.91-1.82-1.66c-1.15-1.05-2.52-1.77-3.96-2.14v-32.71c0-.83-.67-1.5-1.5-1.5h-41.49c-.83,0-1.5.67-1.5,1.5v32.71c-1.44.37-2.8,1.09-3.96,2.14l-1.82,1.66-7.83-2.91-3.17-36.62-2.99.26,3.05,35.21-12.87-4.78-1.04,2.81,23.67,8.79-.37,14.97-26.02-2.97c-3.31-.38-6.2-2.22-7.93-5.07m72.85-77.36v8.68l-9.32,9.35-9.32-9.35v-8.68c2.82,1.37,6,2.16,9.27,2.25.01,0,.03,0,.04,0s.03,0,.04,0c3.28-.09,6.46-.88,9.27-2.25m-21.75-5.77c-2.64-2.57-4.57-5.97-5.73-10.12-.15-.52-.56-.92-1.08-1.05-1.3-.32-2.37-.85-3.18-1.57-1.41-1.25-1.99-3.26-1.35-4.68.18-.39.46-.79.83-1.17.67-.7,1.54-1.23,2.52-1.55.03,0,.06-.02.09-.03.47-.19,4.41-1.99,8.87-11.47,1.34,2.23,3.67,5.01,7.27,6,.46.13.96.03,1.34-.28.38-.3.58-.76.56-1.24l-.33-6.56h12.37l9.95,13.07c.19.24.44.42.73.52.98.32,1.85.85,2.52,1.55.38.39.65.78.83,1.17.64,1.42.06,3.43-1.35,4.68-.81.72-1.88,1.25-3.18,1.57-.52.13-.94.53-1.08,1.05-1.17,4.15-3.1,7.55-5.73,10.12-3.13,3.05-7.66,4.87-12.43,5.01-4.77-.14-9.3-1.97-12.43-5.01m-5.04-43.83c5.74-3.94,14.09-8.36,21.29-6.99,3.71.7,6.85,2.92,9.33,6.59.38.57,1.11.81,1.76.57.02,0,2.3-.79,4.21.17,1.16.59,2,1.75,2.51,3.45,1.52,5.17.48,13.5-.04,16.89l-9.9-13c-.28-.37-.73-.59-1.19-.59h-14.69c-.41,0-.8.17-1.09.47-.28.3-.43.7-.41,1.11l.28,5.71c-3.24-2.07-4.67-6.21-4.68-6.25-.2-.6-.74-1.01-1.37-1.03-.63-.02-1.2.35-1.44.93-4.33,10.52-8.24,12.69-8.51,12.83-.64.21-1.25.5-1.82.84-1.23-4.5-3.13-15.58,5.77-21.7m84.23,135.54c-1.06-1.34-2.33-2.51-3.74-3.49,1.2-.97,2.24-2.16,3.07-3.52,2.22-3.64,2.62-8.01,1.11-11.99l-15.77-41.51c-2.89-7.6-9.68-13.06-17.72-14.25l-21.39-3.17v-9.78c.79-.56,1.52-1.18,2.21-1.84,2.84-2.77,4.96-6.35,6.29-10.65,1.41-.45,2.62-1.12,3.6-1.99,2.39-2.12,3.27-5.55,2.09-8.16-.32-.7-.79-1.39-1.41-2.02-.24-.25-.5-.48-.77-.7.37-2.03,2.14-12.78.17-19.49-.74-2.53-2.1-4.31-4.03-5.29-2.03-1.03-4.17-.86-5.45-.62-2.85-3.84-6.43-6.19-10.64-6.99-6.59-1.25-14.51,1.26-23.54,7.47-5.44,3.74-8.24,9.66-8.1,17.14.08,4.15,1.04,7.66,1.54,9.22-.32.42-.59.85-.79,1.3-1.18,2.61-.3,6.04,2.09,8.16.99.87,2.2,1.54,3.6,1.99,1.33,4.3,3.45,7.88,6.29,10.65.68.67,1.42,1.28,2.21,1.84v9.78l-21.39,3.17c-8.04,1.19-14.83,6.65-17.72,14.25l-15.77,41.51c-1.51,3.98-1.11,8.35,1.1,11.99.81,1.33,1.82,2.49,2.98,3.44-2.75,1.88-4.94,4.49-6.27,7.59-1.87,4.33-1.94,9.14-.2,13.52,1.74,4.39,5.09,7.83,9.42,9.7l17.3,7.46c-.11.1-.23.19-.34.29l-.39.36c-2.29,2.13-3.6,5.03-3.69,8.17-.09,3.13,1.06,6.1,3.23,8.36,2.21,2.3,5.19,3.57,8.33,3.57.41,0,.82-.02,1.22-.06,6.37-.67,17.51-2.47,24.27-7.2l2.27,6.58c.14.39.43.71.81.88.19.09.4.13.61.13s.4-.04.59-.12l16.48-7.11c6.84,4.48,17.71,6.21,23.72,6.84.41.04.82.06,1.23.06,3.14,0,6.12-1.26,8.33-3.57,2.17-2.26,3.32-5.23,3.23-8.36-.09-3.13-1.4-6.03-3.69-8.17l-.39-.36c-.11-.1-.22-.19-.34-.29l17.3-7.46c8.95-3.86,13.09-14.27,9.23-23.22-.63-1.45-1.43-2.8-2.4-4.01" style="fill:#231815;"/><path d="m164.19,283.67h8.59c-.62,1.77-2.31,3.05-4.29,3.05s-3.67-1.28-4.3-3.05m11.85-1.5c0-.83-.67-1.5-1.5-1.5h-12.1c-.83,0-1.5.67-1.5,1.5,0,4.16,3.39,7.55,7.55,7.55s7.55-3.39,7.55-7.55" style="fill:#231815;"/></g></svg>